<svg id="Слой_1" data-name="Слой 1" xmlns="http://www.w3.org/2000/svg" viewBox="0 0 120 120"><defs><style>.cls-1{fill:#ebebeb;}.cls-2{fill:#2e2828;}.cls-3{fill:#ef405f;}</style></defs><title>main_ic_7</title><circle class="cls-1" cx="55.1" cy="52.56" r="38.45" transform="translate(-21.02 54.36) rotate(-45)"/><path class="cls-2" d="M55.1,93.38A40.83,40.83,0,1,1,84,23.68h0A40.82,40.82,0,0,1,55.1,93.38Zm0-76.87a36,36,0,1,0,25.5,10.55h0A36,36,0,0,0,55.1,16.51Z"/><path class="cls-3" d="M86.29,28.36c-3-9.43-15.32-11.52-24.14-13.6-3.69-.87-8.66-3.71-11.82-1.95C39.72,10.72,26.07,25.2,20.25,31.68A8.06,8.06,0,0,0,18.61,40c-3,3.49-3.3,9,2,11.39a91.36,91.36,0,0,0,10.89,4.14C35.24,56.77,39,52,39.66,47.86c.72-4.49,7.42-4.72,11.26-7.76l.47-.12a18.34,18.34,0,0,0,1,2.63c.94,2.35,4.55,5.63,4.7,8.11.42,6.71,8.44,10,11.07,3.29C72,44.08,89.9,39.54,86.29,28.36Z"/><path class="cls-1" d="M82.29,79.75l20.3,20.3a2.56,2.56,0,0,1,0,3.63l-3.27,3.27a2.56,2.56,0,0,1-3.63,0L74.54,85.79Z"/><path class="cls-2" d="M97.51,110.08a4.93,4.93,0,0,1-3.5-1.45L70.95,85.57l11.54-9,21.79,21.79a4.95,4.95,0,0,1,0,7L101,108.64A4.93,4.93,0,0,1,97.51,110.08ZM78.14,86l19.25,19.25a.18.18,0,0,0,.25,0l3.27-3.27a.2.2,0,0,0,0-.25L82.1,82.92Z"/><path class="cls-2" d="M61.63,65.4,50.47,41,31.92,58.4,15.63,50.65a2.38,2.38,0,0,1,2-4.31L31,52.69,52,32.95,62.84,56.58l38.68-45.81a2.39,2.39,0,0,1,3.65,3.08Z"/><path class="cls-2" d="M103.35,29.09A2.39,2.39,0,0,1,101,26.71v-12h-12a2.38,2.38,0,1,1,0-4.77h16.79V26.71A2.39,2.39,0,0,1,103.35,29.09Z"/><path class="cls-2" d="M55.1,93.38A40.83,40.83,0,1,1,84,23.68h0A40.82,40.82,0,0,1,55.1,93.38Zm0-76.87a36,36,0,1,0,25.5,10.55h0A36,36,0,0,0,55.1,16.51Z"/></svg>