<?xml version="1.0" encoding="utf-8"?>
<!-- Generator: Adobe Illustrator 21.0.2, SVG Export Plug-In . SVG Version: 6.00 Build 0)  -->
<svg version="1.1" id="Слой_1" xmlns="http://www.w3.org/2000/svg" xmlns:xlink="http://www.w3.org/1999/xlink" x="0px" y="0px"
	 viewBox="0 0 120 120" style="enable-background:new 0 0 120 120;" xml:space="preserve">
<style type="text/css">
	.st0{fill:#333551;}
	.st1{fill:#EF405F;}
</style>
<title>main_ic_3</title>
<path class="st0" d="M94.9,110.1H25.1c-3.1,0-5.6-2.5-5.6-5.6V52.5h81v52.1C100.5,107.6,98,110.1,94.9,110.1z M24.3,57.2v47.3
	c0,0.4,0.4,0.8,0.8,0.8h69.9c0.4,0,0.8-0.4,0.8-0.8V57.2H24.3z"/>
<path class="st1" d="M17.5,36.2h85c1.1,0,2,0.9,2,2v14.6c0,1.1-0.9,2-2,2h-85c-1.1,0-2-0.9-2-2V38.2C15.5,37.1,16.4,36.2,17.5,36.2z
	"/>
<path class="st0" d="M101.3,57.2H18.7c-3.1,0-5.6-2.5-5.6-5.6V39.4c0-3.1,2.5-5.6,5.6-5.6h82.7c3.1,0,5.6,2.5,5.6,5.6v12.3
	C106.9,54.7,104.4,57.2,101.3,57.2z M18.7,38.6c-0.4,0-0.8,0.4-0.8,0.8v12.3c0,0.4,0.4,0.8,0.8,0.8h82.7c0.4,0,0.8-0.4,0.8-0.8V39.4
	c0-0.4-0.4-0.8-0.8-0.8L18.7,38.6z"/>
<rect x="57.6" y="36.2" class="st0" width="4.8" height="71.5"/>
<path class="st0" d="M51.9,38.6c-5.9,0-13.5-0.5-17-3.1c-6.4-4.6-7.8-13.4-3.2-19.8S45.1,8,51.5,12.5l0,0c5.8,4.2,10,20.9,10.5,22.8
	l0.7,2.7l-2.8,0.2C59.1,38.4,55.9,38.6,51.9,38.6z M43.2,14.7c-5.2,0-9.4,4.2-9.4,9.3c0,3,1.4,5.9,3.9,7.7
	c2.9,2.1,12.2,2.4,18.9,2.1c-1.8-6.5-5-15.2-7.9-17.3l0,0C47.1,15.3,45.2,14.7,43.2,14.7z"/>
<path class="st0" d="M68.1,38.6c-3.9,0-7.1-0.2-7.9-0.3l-2.8-0.2l0.6-2.7c0.5-1.9,4.7-18.6,10.5-22.8l0,0c6.4-4.6,15.2-3.1,19.8,3.2
	S91.4,31,85,35.6C81.6,38.1,74,38.6,68.1,38.6z M63.4,33.7c6.7,0.3,16,0,18.9-2.1c4.2-3,5.2-8.9,2.2-13.1s-8.9-5.2-13.1-2.2
	c-0.1,0-0.1,0.1-0.2,0.1l0,0C68.4,18.5,65.2,27.2,63.4,33.7z"/>
<path class="st0" d="M40.4,84.1H21.9c-1.3,0-2.4-1.1-2.4-2.4c0-1.3,1.1-2.4,2.4-2.4h18.5c1.3,0,2.4,1.1,2.4,2.4
	C42.7,83,41.7,84.1,40.4,84.1z"/>
<path class="st0" d="M32.4,93.6H21.9c-1.3,0-2.4-1.1-2.4-2.4c0-1.3,1.1-2.4,2.4-2.4h10.5c1.3,0,2.4,1.1,2.4,2.4
	C34.8,92.5,33.7,93.6,32.4,93.6z"/>
</svg>
