<svg id="Слой_1" data-name="Слой 1" xmlns="http://www.w3.org/2000/svg" viewBox="0 0 45 45">
    <defs>
        <style>.cls-1{fill:#2151a1;}.cls-2{fill:#fff;}</style>
    </defs>
    <title>fb</title>
    <rect class="cls-1" width="45" height="45" rx="5" ry="5"/>
    <path class="cls-2"
          d="M20.13,34.13c0-3.41,0-6.83,0-10.24,0-.41-.11-.54-.52-.52-.89,0-1.78,0-2.67,0-.34,0-.48-.08-.47-.45,0-1,0-2.09,0-3.13,0-.32.1-.42.42-.41.89,0,1.78,0,2.67,0,.56,0,.56,0,.57-.55,0-1.09,0-2.17,0-3.26a5,5,0,0,1,1.45-3.37,4.55,4.55,0,0,1,3.15-1.34c1.15,0,2.31,0,3.46.07.22,0,.3.09.3.3,0,1,0,2,0,3,0,.28-.14.32-.37.32a18.46,18.46,0,0,0-2.24,0c-1.29.16-1.64.57-1.7,1.86,0,.86,0,1.72,0,2.58,0,.3.15.34.4.34h3.22l.52,0c-.16,1.22-.32,2.39-.45,3.56,0,.34-.19.4-.49.4-.9,0-1.81,0-2.71,0-.37,0-.48.11-.48.48,0,3.43,0,6.86,0,10.29Z"/>
</svg>