<svg id="Слой_1" data-name="Слой 1" xmlns="http://www.w3.org/2000/svg" viewBox="0 0 45 45">
    <defs>
        <style>.cls-1{fill:#f88413;}.cls-2{fill:#fff;}</style>
    </defs>
    <title>ok</title>
    <rect class="cls-1" width="45" height="45" rx="5" ry="5"/>
    <path class="cls-2"
          d="M29.19,24.57c0,.87-.21,1.37-.72,1.63-1,.5-2,1-3,1.4-.54.23-.61.33-.2.76,1,1,2,2,3,3a1.6,1.6,0,0,1-2.08,2.43c-1-.83-1.85-1.76-2.76-2.66s-.89-.88-1.76,0-1.54,1.56-2.33,2.32-1.79.94-2.52.25a1.66,1.66,0,0,1,0-2.52c.9-.94,1.84-1.84,2.76-2.77.54-.54.49-.61-.22-.89a27.11,27.11,0,0,1-2.64-1.2A1.56,1.56,0,0,1,16.06,24a1.52,1.52,0,0,1,2.24-.57,8,8,0,0,0,5.9,1,11.7,11.7,0,0,0,2.51-1A1.64,1.64,0,0,1,29.19,24.57Z"/>
    <path class="cls-2"
          d="M28.45,16.77a6,6,0,0,1-5.91,6,6.12,6.12,0,0,1-6-6,6.15,6.15,0,0,1,6-6A6,6,0,0,1,28.45,16.77Zm-5.95,2.63a2.54,2.54,0,0,0,2.64-2.65,2.63,2.63,0,1,0-5.26,0A2.52,2.52,0,0,0,22.51,19.39Z"/>
</svg>