<svg id="Слой_1" data-name="Слой 1" xmlns="http://www.w3.org/2000/svg" viewBox="0 0 45 45">
    <defs>
        <style>.cls-1{fill:#5181b8;}.cls-2{fill:#fff;}</style>
    </defs>
    <title>vk</title>
    <rect class="cls-1" width="45" height="45" rx="5" ry="5"/>
    <path class="cls-2"
          d="M18.22,15.66a4.29,4.29,0,0,1,1.26-.51,29.84,29.84,0,0,1,3.9,0c1,.07,1.38.75,1.31,1.91-.07,1.32-.08,2.65-.11,4a.87.87,0,0,0,0,.39c.16.32.3.81.55.88a1.2,1.2,0,0,0,1-.34,22.05,22.05,0,0,0,1.91-2.69,23.64,23.64,0,0,0,1.32-2.74,1.14,1.14,0,0,1,1.2-.8c1.31,0,2.61,0,3.92,0,1.06,0,1.36.33.85,1.21-.86,1.48-1.87,2.87-2.82,4.3-.12.18-.26.35-.4.53-1.25,1.63-1.07,2.33.46,3.67a20.45,20.45,0,0,1,2.76,3.17c.46.61.24,1-.51,1.2a5.32,5.32,0,0,1-1.18.11c-.73,0-1.46,0-2.19,0a3.62,3.62,0,0,1-3.3-1.58,12.54,12.54,0,0,0-1.59-1.6,1,1,0,0,0-1.7.44,7.26,7.26,0,0,0-.33,1.75.94.94,0,0,1-1,1,9.77,9.77,0,0,1-8.87-4.05,43.49,43.49,0,0,1-5.27-9.08c-.32-.71-.16-1,.61-1,1.17,0,2.35,0,3.52,0a1.2,1.2,0,0,1,1.12.77q1.37,2.56,2.82,5.08c.29.5.74,1,1.37.86s.7-.87.73-1.42c.06-1.12,0-2.25,0-3.37a1.69,1.69,0,0,0-1.44-1.75Z"/>
</svg>