<svg id="Слой_1" data-name="Слой 1" xmlns="http://www.w3.org/2000/svg" viewBox="0 0 50 50"><defs><style>.cls-1{fill:none;stroke:#ef405f;stroke-miterlimit:10;stroke-width:2px;}</style></defs><title>fav_hover</title><path class="cls-1" d="M25,10.2a12.54,12.54,0,0,1,8.21-3.87,12.27,12.27,0,0,1,12.5,15.8C44.4,26.88,41.42,30.6,38,34a69.43,69.43,0,0,1-11.59,9.21c-1.24.81-2.31.42-3.39-.25A53.15,53.15,0,0,1,10.12,32.32,39.75,39.75,0,0,1,5.55,25.6a13.58,13.58,0,0,1-1.3-10.47,12.24,12.24,0,0,1,20-5.67Z"/></svg>