<svg id="Слой_1" data-name="Слой 1" xmlns="http://www.w3.org/2000/svg" viewBox="0 0 25 25"><defs><style>.cls-1{fill:#fdfdfe;}</style></defs><title>fb</title><path class="cls-1" d="M13.84,17.52c0,1.52,0,3,0,4.55,0,.36-.11.44-.44.43-1.05,0-2.1,0-3.15,0-.36,0-.43-.12-.43-.45,0-3,0-6.07,0-9.1,0-.36-.08-.49-.45-.46s-.84,0-1.25,0c-.21,0-.3,0-.3-.28q0-1.74,0-3.47c0-.21.09-.26.28-.26.45,0,.91,0,1.36,0,.27,0,.34-.09.34-.35A13.12,13.12,0,0,1,9.9,5.79a3.7,3.7,0,0,1,3.75-3.27c1.06,0,2.12,0,3.19,0,.2,0,.28.06.28.26q0,1.45,0,2.9c0,.21-.08.27-.28.26H15a.86.86,0,0,0-1,1c0,.42,0,.84,0,1.25s.11.35.37.35c.84,0,1.67,0,2.51,0,.2,0,.31,0,.28.28q-.18,1.73-.32,3.46c0,.22-.1.28-.31.28-.78,0-1.55,0-2.33,0-.29,0-.36.09-.36.37C13.85,14.42,13.84,16,13.84,17.52Z"/></svg>