<?xml version="1.0" encoding="utf-8"?>
<!-- Generator: Adobe Illustrator 21.0.2, SVG Export Plug-In . SVG Version: 6.00 Build 0)  -->
<svg version="1.1" id="Слой_1" xmlns="http://www.w3.org/2000/svg"  x="0px" y="0px"
	 viewBox="0 0 17.3 18.5" style="enable-background:new 0 0 17.3 18.5;" xml:space="preserve">
<style type="text/css">
	.st0{fill:#333551;}
</style>
<title>header-search</title>
<rect x="12.6" y="11.2" transform="matrix(0.7071 -0.7071 0.7071 0.7071 -6.4383 13.9616)" class="st0" width="2" height="7.1"/>
<path class="st0" d="M7.6,15.1c-1.9,0-3.8-0.7-5.2-2.2C1,11.5,0.2,9.6,0.2,7.7c0-2,0.8-3.8,2.2-5.2l0,0C3.7,1,5.6,0.2,7.6,0.2l0,0
	c2,0,3.8,0.8,5.2,2.2c2.9,2.9,2.9,7.6,0,10.5C11.4,14.4,9.5,15.1,7.6,15.1z M3.1,3.1l0.7,0.7c-2.1,2.1-2.1,5.6,0,7.7s5.6,2.1,7.7,0
	s2.1-5.6,0-7.7c-1-1-2.4-1.6-3.8-1.6l0,0c-1.4,0-2.8,0.6-3.8,1.6L3.1,3.1z"/>
</svg>
