<svg id="Слой_1" data-name="Слой 1" xmlns="http://www.w3.org/2000/svg" viewBox="0 0 25 25">
    <defs>
        <style>.cls-1{fill:#fff;}</style>
    </defs>
    <title>inst</title>
    <path class="cls-1"
          d="M21.48,12.48c0,1.35,0,2.71,0,4.06a4.83,4.83,0,0,1-4.93,4.91c-2.71.07-5.43.06-8.15,0A4.65,4.65,0,0,1,3.83,18a8.91,8.91,0,0,1-.32-2.38c0-2.42,0-4.85.06-7.27a4.75,4.75,0,0,1,2.17-4,4.68,4.68,0,0,1,2.52-.81c2.84,0,5.69-.11,8.53,0a4.75,4.75,0,0,1,4.68,4.82c.06,1.36,0,2.73,0,4.09ZM19.86,8.62a3.27,3.27,0,0,0-3.45-3.46q-3.88-.08-7.77,0A3.25,3.25,0,0,0,5.18,8.61q-.08,3.88,0,7.77a3.25,3.25,0,0,0,3.45,3.46q3.9.09,7.81,0a3.14,3.14,0,0,0,3.36-3C20,15.37,19.9,9.9,19.86,8.62Z"/>
    <path class="cls-1"
          d="M17.17,12.49A4.65,4.65,0,1,1,12.5,7.85,4.67,4.67,0,0,1,17.17,12.49Zm-4.63-3a3,3,0,1,0,3,3A3,3,0,0,0,12.53,9.49Z"/>
    <path class="cls-1" d="M18.42,7.67a1.08,1.08,0,1,1-1.06-1.07A1.07,1.07,0,0,1,18.42,7.67Z"/>
</svg>