<svg id="Слой_1" data-name="Слой 1" xmlns="http://www.w3.org/2000/svg" viewBox="0 0 1170.03 551.2"><defs><style>.cls-1{fill:#ff3c5c;fill-rule:evenodd;}</style></defs><title>logo_black</title><path class="cls-1" d="M352.13,529.72c.12-.08.09-.17,0-.25C352.06,529.64,352.06,529.76,352.13,529.72Zm-7.47,12.9c1.58-.67-1.77-3.85-1.36-4.75-.26.58,7-.15,2.72-3.39-2.1-1.6-.45-2.59,2,0,1.57,1.63.1,3.6,2,2s-3.82-4.57-2.72-7.46c.19-.51,4.09-.07,4.73.42a53.62,53.62,0,0,1,2.06-5.85c.15-.2,1,1,1.35.68s-.34-1.77,0-2c.86-.69,2.57-.51,3.4-2,1.1-2,.6-7.64.67-8.82,0-.54.76-2.57,1.35-2s-.4,7,0,10.06c.73-1.15,3.5-2.18,3.37-1.91,1.11-2.15-1.63-4.86.68-4.07-4.72-6.26,1-16.12-2-24.43-.75-2.07-.25,18-1.36,18.32,0,0,.66-3.8-1.35-2.72,1.07-.58-.51,4.27-.68,4.08-.35-.41,0-17.77-.67-15.61-.38,1.13.42,14.87,0,17.66a26.91,26.91,0,0,0-1.35,2.71c-1-.94,0-27.3,0-36.66,0-11.6-.34-29.66,0-36.65,2.3-48.86,7-112.86,12.89-145.93.39-2.21-1.29-6.47,1.71-9.18-.51.78,2.35.36,3-.05-.06-.21-.06-.32,0-.27s.11.17,0,.27c.26.82,1.58,3,1.4.41-.83.06-.42-1,0,0,23.3,40.32,43,75.41,74.66,103.17,12,10.53,22.8,17.08,39.37,21.72,4.73,1.33,10,2.33,15.62,4.07,5.83,1.81,11.66,5.51,19,6.79,1.25.21,2.71-.3,4.07,0,7.61,1.69,12.79,4.93,21,6.78,2.14.49,4.73-.05,7.46.69,5.64,1.51,11.09,6.83,16.29,6.11,1.91-.26-.18-1.87,2.72-1.35,0,0-2.08,1.59-1.35,2,2.54,1.57,12.8-1.34,17.64-.68,1.82.25,3.47,2.33,5.43,2.72,1.6.32,3.57-.37,4.75,0,2.25.7,3.79,2.38,5.43,2.72-.69-.15.49-2,.67-2,1-.24,5.47,2.81,4.75,3.39.67-.55-4.24-.07-4.75-.67,1.95,2.28,7.64,1.91,10.86,3.39,4.63,2.12,15.89,11.22,23.08,10.18.73-.11.48-1.45,1.36-1.36,1.52.15,3.73,1.92,5.42,2a7.49,7.49,0,0,0,1.44,0c-.18.09-.41.38.59,1.34,4.44,4.21,23.48,8.39,34.63,6.79,3.12-.45,6.88-2.53,10.85-4.75,9.38-5.22,13.87-8.92,20.37-17,11.28-13.94,20.85-36.71,27.15-57,2.52-8.1,3.76-16.2,5.43-24.43,3.63-18,7.39-33.78,9.49-51.59,1.13-9.55,3.14-21.77,4.08-28.51.87-6.32.81-11.6,2.71-12.22,1.5-.48,3.38,5.19,6.79,7.47,2.09,1.39.44-1.38,2.72.68,4.63,4.18,7.49,10.79,11.54,12.9-2-3.61-9.45-12-3.4-6.11,4.16,4.06,13.15,13.42,16.29,17,2.87,3.24,2.78,4.19,6.79,6.11,9,4.31-10.85-9.83-4.08-11.54,1.47-.36,5.31,6.91,6.79,5.43,1.69-1.68-7.63-8.19-4.76-8.83,1.52-.32,7.07,7.91,8.82,9.51.31.29,6.19,4.3,8.15,6.11.15.14,1.21,2.85,2,2,1.26-1.25-11.74-14-7.46-14.93,1.45-.31,5.59,5.61,6.79,6.79,4.22,4.13,6.19,5.67,9.5,9.5,4.13,4.78,1.41-2-2-5.43-.41,0-.8-.1-.68-.68-.41,0-.8-.11-.68-.68-.41,0-.8-.1-.68-.69-2-.13.65-2.81,0,0,.41,0,.8.11.68.69.41,0,.81.1.68.68.42,0,.8.1.68.68,2.22,1.17,3.2,3.58,5.43,4.75-2.77-6.11-2-5.45-6.11-10.19-8.61-10,2.42,1.1,5.43,3.39,5,3.85-2.73-6.32-5.43-9.49-.16-.2-8.85-8.8-7.46-10.19.61-.62,10.55,12.86,12.22,14.93,3.83,4.8-.55-3.51-1.35-4.75-1.42-2.19-4.44-5.07-3.4-6.11-.19.19,4.44,3,3.4,2,1.08,1,9.11,10.47,12.21,13.57,2.49,2.48,2.34.79.68-3.39-3.68-9.28-16.15-25.08-20.36-32.57-5.48-9.76,7.4,5.18,8.15,6.11,3.62,4.52,5,7.84,8.15,10.86-4.29-9.36,5.59,3.21,7.46,5.43,3.68,4.35,5.94,8.61,8.15,9.5-1.49-4.9-5.32-6.33-6.79-10.19-.28-.73.39-2,0-2.71-3.61-6.36-10.09-12.3-14.93-19.69-1.73-2.64-4.35-5.62-6.11-8.82-3.09-5.62,2.47.72,3.4,2,5.86,8.34,12.88,18.34,18.32,25.8,2.86,3.9,3.75,6.88,6.79,10.18.67.73,2.52.47,4.75,2.71-.06-.05,1.19,3.57,2,2.72.66-.66-4.33-8.85-4.75-9.51-3.51-5.46-6-6.14-6.79-11.53-1.84-1.55-6.61-6.27-5.43-7.46,0,0,6.3,6.84,5.43,7.46,2.24,1.86,6.59,8.16,10.18,11.53s-6.42-9.31-6.78-10.86c-.1-.4,1.12-1.24.68-2s-5.55-4-3.39-4.75c2.63-.88,6.24,6.78,8.15,8.83,2.57,2.75-1.29-4.25-2-5.43-2.16-3.44-4.2-4.6-4.08-6.79s-1.37-3.71-4.07-7.46c-1.3-1.81-4.67-6.42-3.39-6.11-.73-.18,4.07,4.75,4.08,4.75.82-1.35-9.26-13.53-8.15-17,.12-.36,2.05.74,2,.68-1.07-4.39-5.56-9.11-8.83-14.26C830.94,218,823.25,205.15,815.71,191c.13.24-2.34-3.44-1.36-4.08.81-.53,3,3.84,4.08,4.08,0-.38.55-.77.67,0,1.8,2,4.51,7.63,7.47,12.22,2.39,3.7,7.13,8.53,7.47,11.54,0-.09-1.73.06-1.36.67.18.31,2.4.31,2.72.68,1,1.15,1.56,4.18,2.72,6.11a407.44,407.44,0,0,0,23.76,35.29c-2.33-5.45-2.16-5.44,2-.68-1-2.06-2.3-5.34.67-2.72,0-2.26-2.2-2.31-2-4.75-2-.14.65-2.82,0,0,7.58,8.83,17.31,28.24,27.15,39.36,4.46,5-.63-2.77-2-4.75-3-4.15-3.86-5.41-5.43-9.5-1.91-.78-2.48-3-4.08-5.43-1-1.61-4.35-8.53-2-5.42,2.59,3.45,4.25,8.31,6.1,10.86,2.29,1.52,2.52,3.71,4.75,6.79.77,1.05,5.26,6,5.43,4.75.21-1.5-7.77-10-8.82-11.54a120.74,120.74,0,0,1-7.46-12.9,21855.71,21855.71,0,0,0-2.72-4.07c-.53-.15-.79-.57-.68-1.36-.82.07-.41-1,0,0,.53.15.78.58.68,1.36a21855.71,21855.71,0,0,1,2.72,4.07c5.09,5.46,9.62,14.41,15.61,21,5.41,6-5.42-8.77-6.79-10.85a449.84,449.84,0,0,1-23.07-39.38c-.54-.15-.79-.56-.68-1.35-1.35-.48-1.81-1.81-2-3.39-.53-.16-.79-.58-.68-1.36-.41,0-.8-.1-.68-.68-.53-.15-.79-.57-.68-1.36-.53-.15-.79-.56-.68-1.35-.82.06-.42-1,0,0,.53.14.79.56.68,1.35.53.15.79.58.68,1.36.41,0,.8.11.68.68.53.15.79.57.68,1.36,1.34.46,1.81,1.8,2,3.39.53.15.79.56.68,1.35,5.47,8.78,13.61,18.83,20.36,28.51,2.4,3.45,3.93,7.75,6.79,9.5-1-.62-1.1-5.19,1.36-1.36,5.32,8.3,12,19.21,19.68,26.48,4,3.77-3.49-5.91-4.07-6.79-1.12-1.72-4.45-8.59-3.4-8.83,1.57-.34,2.93,6.45,6.11,7.47a42.48,42.48,0,0,0-4.75-8.82c-2.31-3.67-7.25-12.15-2-4.75.3.43,6.92,10,7.47,9.5.71-.71-7-10.17-7.47-10.86-1.65-2.54-2.63-5-4.76-8.82-4.38-7.92,5.7,7.29,8.3,9.82-.15-.93,1.13-3.29,1.21-2.35-.34-4-.93-1-2.72-4.75-1.07-2.25-1.4-4.57-2.71-6.79-5.52-9.34,2.34,2.86,4.75,2-.73.25-3.51-8-.68-2.72,3.16,5.87,8.44,12.62,12.89,19,5,7.24-2.4-5.15-3.39-6.78-.87-1.43-4.51-8.86-4.07-8.83,1.38.11,6.61,11.15,7.46,12.22.5.61,1.44.16,2,.68,4.63,4,6,11.69,10.18,13.57,0,0-2-5.54,1.36-1.36,5.11,6.36-.47-7.61,0-8.82,0,.11,2,1.25,2,1.35-.68-3.93-6.6-13.33-10.18-19.68-1.33-2.35-3.59-6-5.43-9.51-.72-1.36-5.09-9.1-4.75-10.17,0,.15,2,1.22,2,1.36-1.48-8.52-11.33-22-15.61-29.87-4.77-8.81,1.62,1.24,3.4,4.07,2.27,3.64,2.72,5,5.43,7.46-.75-3.54-3.49-5.1-4.07-8.82-1.34-.47-1.81-1.81-2-3.39-.53-.15-.79-.58-.68-1.36-4.7-4.68-1.15-6.18,0,0,.53.15.79.57.68,1.36,1.34.46,1.81,1.81,2,3.39a27.83,27.83,0,0,1,5.43,9.5c.53.15.79.58.68,1.36,1.34.47,1.81,1.81,2,3.39,1.64.86,2.2,2.79,2.72,4.76.53.15.79.57.68,1.36,1.21,1.14,4.4,5.88,6.1,8.15,2.83,3.76-3.77-7.61-4.07-8.15-8.31-14.63-16.67-29.63-24.43-44.8-12.38-24.17-25.91-51.12-39.38-74.66-.41,0-.8-.1-.67-.68-2-.14.65-2.82,0,0,.41,0,.81.1.67.68.55.13.68.68,1.36.68-5-11.68-14.73-25.94-23.08-35.3-2-2.28-5-3.8-6.11-6.11.4.86,1.42-.94,1.36-1.36-.17-1.16-3.86-1.54-1.36-2,2.24-.44,4.62,6.4,4.07,1.35,0-.22-7.55-8.51-10.17-10.86C818,59.88,810,56.62,806.88,55.27c-5.42-2.33,4.58-.73,4.07-1.36-.85-1.05-21.15-5.47-25.79-4.75-1.55.25-2.77,1.32-4.07,1.36-1.65,0-6.09-1.73-8.82-1.36-2.28.32-1.83,1.6-3.39,1.36-1.76-.29-4.71-3.09-8.15-3.39-4.44-.39-12.81.6-13.57-3.39,0,0,2.1-1.63,1.36-2-3.85-2.09-9.11,1-12.9,1.36-4.07.35-4.52-1.05-5.43-.67-3,1.24,3.71,4.74-1.35,2.71-1.93-.77,2.68-4.15-1.36-3.4-3,1.9-2,3.82-6.09,2-.53-.22-1.74-1.27-2-1.35-2.31-.6-6.17.62-7.47,0-.6-.3-1.45-4.33-2-4.76-2.35-1.75-14.68.5-9.49-3.39,3.75-2.82-5,1.14-6.12.67-.67-.29,1.42-5.12-4.07-2-3.12,1.76-4.43-1.79-9.5-1.35-1.17.1-4.1,3.63-4.75,1.35-.37-1.3,3-3.11,2.72-3.39-1.2-1.09-3.48.16-6.79-.68-1.35-.34-3.87-2.05-4.07-2-1.36.1-.87,2.29-2,2a8.67,8.67,0,0,0-1.35-2c-2.16-.59-3.48,2.09-3.39-2-.93,0-3,2.07-3.4,2a8.94,8.94,0,0,0-.67-2c-.78-.45-2.71.56-3.4,0-1.11-.88.41-2.21-1.36-2.71.21.06-1.24,1.37-2,1.36-1.34,0-2.38-1.46-2.72-1.36-.12,0-1.8,2.87-2.71,2.71-.3,0,1-2.32.68-2.71a69.72,69.72,0,0,1-9.52-.68c-2-2.44-1.17.86-3.39-1.36-1.89-1.89-1.82,1.22-4.07.69-.4-.1.48-2.09-.68-2,.22,0-.82,1.92-1.35,2-3.24.73-12.15,0-13.57-1.36-.92-.9-.25-2.45-1.35-2.72-1.57-.37-3.4,2.06-5.43,2,.37,0-2.24-1.91-2.72-2-3.49-.87-11.08,4.74-8.82.68,2-3.67-.89,1-3.4,1.35-2.76.35-1.38-2-3.39-.67-2.49,1.67-8.25,14.95-11.54,29.87-7.4,33.54-10.77,72-13.57,112-2.53,36-6.42,66.48-10.86,99.09-.51,3.76-2.59,17.6-4.76,17.66.6,0-1.8-3-2-3.39-4.74-8.91-7.47-21.89-11.53-27.83,2.65,8.49,6.57,17.86,10.17,28.51-.2-.59,3.24,3.13.67,3.39-.61.07-3.19-7.4-4.07-9.5-10.34-24.55-21.51-50-30.54-77.38-3.16-9.56-6.62-17.15-8.15-27.15-1.95-12.75-10.83-24.3-10.86-32.58-4.07-10.34-10.87-21.22-17.64-30.55-2.19-3-6-7.22-5.43-9.49-1.07-1.25-7.33-9.88-10.86-12.23-2-1.31-4.49.53-3.4-2,.12-.29,8.92,3.09,8.83,2-.07-.66-7.21-3.61-8.24-4.19-1.9-.31-4.77-.07-6.7-.56-1.1-.27-2.06-1.63-3.39-2-7.07-2.12-18.81-3.69-26.48-6.79-4-1.6-6.64-4.25-10.86-4.75-4.9-.58-8-2.79-12.9-3.4-1.62-.2-3.73.49-5.42,0-4.3-1.25-7.82-5.51-11.54-6.78-1.89-.64-4.2,0-5.42-.68-.09,0-.63-2.73-1.36-3.39s-13.65-4.19-15.4-6.27a.52.52,0,0,1-.21-.52.65.65,0,0,0,.21.52c.78.72,3.52.63,2.49-.52-.3-.34-1.8.34-3.39-.68-.78-.49-.88-2.45-1.35-2.72-4.52-2.57-8-.51-14.26-2-.85-.2-1.72-2-3.4-2.71s-3.7-.12-4.75-.69c-1.22-.64-2.25-2.82-4.06-4.06-1.13-.77-2.66-.57-3.4-1.36-1.45-1.52-1.29-3.85-2.72-4.75a34.83,34.83,0,0,0-8.82-2c-4.16-.26-13.08,2.32-14.26-.68-.46-1.17,2.39-3,5.42-2.71.62.06,1.8,1.36,2,0,.32-1.84-8.33-4.27-10.72-4.34a1,1,0,0,0,.55.94c-1.46-.7-1.39-1-.55-.94-.06-.77.11-1.67-1.5-1.78-6.43-.4-7.27,4.18-13.57,5.43-1.2.24-.73-1.43-2.72-1.35-1.45.05-1.43,1.57-2.72,1.35-.57-.1-1.93-1.78-3.4-2s-3.51.25-4.07,0c-.19-.09-.56-2.7-.67-2.71-2.71-.36-2.54,2.25-4.75,2.71.19,0-1.29-1.31-2-1.35-10.66-.66-19.58,7.16-25.11,13.57C211,49.12,194,98,183.79,136.72c-1.79,6.83-2.18,13.74-4.07,19-.4,1.1-1.8,1.94-2,2.71-1.07,3.56-.31,6.09-2,8.14.5-.62-.66-1.42-.68-1.35-1.82,4.3-.45,7.21-3.39,8.82-.83.45-.15-3.63-2.72-3.39,1.05-.1-2,3.69-2.72,3.39-2.64-1.11-2.77-7.35-5.43-8.82,1.3.7-2.27,1.67-2.31,2a1,1,0,0,0,.29.08c-.23,0-.3,0-.29-.08-1.72-.45-.88-4.23-3.11-2-3.14,3.19,2.74,3.7-.68,6.79,1.06-1-.63-2.14-1.87-2.88-.67.55-2.9,1.27-2.53,1.46-3.2-.59-5.7-8.18-5.11-2,.55,5.65-2.29-1.7-2.72-2.71-1.55-3.72-3-5.84-1.35,0,.3,1.08.94,3,0,3.39-2.16,1-7.67-17.67-9.5-9.5-1.06,4.72-2.24-1.63-3.39-2.72,0,0-4.18.63-4.75-2-1.14-5.21-4.33,1.87-4.08,2-1.14-.73-.34-6.32-1.35-7.46-.59-.67-4.87.58-6.79-1.36-.76-.75.26-2-.68-2.71.67.5-1.64.32-2,.11.11.5,2.29,3.93.66,6,1-1.25-.7-3.52-1.35-4.08.18.15-1,1.47-1.36,1.36s-.28-2.58-1.36-2a1,1,0,0,0-.6.63c.15.41-.07.29,0,0a5.78,5.78,0,0,0-.75-1.31c-2.27-3.25-1.33,3.14-3.39,3.4.11,5.59-3.2-2.5,0,0-1.07-3.15-.57-6.71-3.4-8.83s-.5,1.63-2.72,1.36c.47.06-2.07-2-2-2-1.77-.5-2,1-2.72.68-.6-.27.55-1.87-.67-2-1.82-.24-3.1,1.83-4.07.68-.51-.59,2.3-4-.69-3.4-1.08.23-2.75,6-4.06,5.43.1,0-.09-7.63-.69-8.15s-8.5.2-8.82.68c-1.17,1.74,1.39,4.06-.67,6.1,2,.15-.65,2.82,0,0-2.58,1.66-.5-1.65-.68-3.39.45-2.63-4.37-3.84-4.07-4.07-.6.49.57,6.14-.67,8.82,2.16-7.73,2.23,8.45,0,0-2,1.62.73-9.78-.68-10.86-1.73-1.32-5.71,5.47-6.8,4.75-2.11-1.44,1.89-7.3.68-8.15-.83-.59-1.32-1-1.6-1.21a2.86,2.86,0,0,1,.25,3.93,19.85,19.85,0,0,0-4.08,2.72c-1.59,2.12-.87,5.43-2.71,4.07-2.46-1.83,2.2,0-.68-4.07.8,1.12-1.34,1.39-1.36,1.36-.44-2,.65-2,1.22-3.6-.35.76-.46-2-.08-2-.85-.66-3.75-2.59-4.53-2.5s-.06,1.5-2,2.72c-1.22.75-3.38.89-4,2.54.27-.17-.53,7.88-2.8,5.6-1.77-1.77,2.57-12.36,2-12.9s-5.64,1.86-6.59,4.19c.59-.41,2.06,3.76.48,2.6-1.82-1.33-.11-4.06-2-5.43A5.35,5.35,0,0,1,28,127c0,.12-.07.21-.32.25.09,0,.19-.11.32-.25,0-.63-3.35-2.09-4.39-1.11-2.26,2.14.82,1.7,1.27,3.45a1,1,0,0,1,.09.63,1.78,1.78,0,0,0-.09-.63c-.36-.59-1.83,1.31-2.49,2.9a4.66,4.66,0,0,1-.13,1.81c-.32-.29-.19-1,.13-1.81,0-2-.35-4.82-1.49-5-2.18-.31.45,6.28-1.36,6.11-.83-.08-1-4.42-1.35-3.39-.79,2.28-.19,11.68,2,12.22-.78-.19.08-4.56,1.35-4.75-.13,0,4.35,8.74,6.1,10.18-.75-.61.87-1.59,1.36-1.36,1.92.94-1.64,4.51,1.35,2.72.53-.31-.48-3,0-3.39.22-.2,1.93.24,2,0a8.16,8.16,0,0,0,.65-2.52c-.4-1.38.07-1.29,0,0a9.71,9.71,0,0,0,.72,1.85c.54,1.13,1.49,2.26,2,2,1.21-.5-2.92-5.36-.67-6.11.75-.25,2,6.47,2.72,7.46s4.32,3.53,4.07,3.4c1,.55,2.75-.87,4.07.68,1.48,1.73,2.1,6.37,4.08,10.86,4.1,9.41,8,21.23,11.54,32.58,4.33,14.1,10.35,30.61,14.93,43.45,15.87,44.54,39,102.11,58.37,148,5.09,12,10,23.48,15.62,36,1.79,4,5,7.38,6.11,10.86,1.76,5.53.18,9.45,2.71,12.22,0-.06.45-.83.69,0,.53,1.83-.4,6,.67,7.47.87,1.19,1.89-1.22,3.4-.68-.3-.11,2.86,3.39,3.39,4.08,5.12,6.69,8.92,20.2,12.22,21.72-.65-5.12-3.07-5.47-4.75-9.51-.54-1.27-1-3.79-.68-4.07-.58.59,6,1.71,5.43,1.35,2.86,1.83,5.34,14.24,8.82,10.86-.63.61-.94-2.78,0-2,1.2,1,1.38,4.89,3.4,6.79,1.62,1.53,4.43,1.32,6.11,2.71.36.31,3.57,7.27,5.43,6.11,1.06-.67-3.54-5.79-2-6.78s.27,3.38,2.72,2.71c-.17-.68,0-2.3.68-2,3.5,1.45,3.72,7.85,8.14,9.5-1.26-.48,1.19-2.81,2-2.71.2,0,2.17,2.87,4.75,4.07.55.26,1.67.17,1.35,0,2.43,1.34,3.07-.27,6.79.68-1.41-2.23,1-3,.68,0,.53.15.78.58.67,1.35.38,0,.77.56,0,.68,1,.49,1.41,2.81,2.72,4.08.34.32,1.73-.35,2,0,.16.17-.19,1.25,0,1.35,3.1,1.6,1.19-1.36,2.72-1.35,3.4,0,2.08,3.66,4.07,3.39,1.74-.23-2.3-3.19.68-4.76.34-.17,2.4,3.66,4.07,2.72,2.35-1.34,1.86,1.85,4.07,2.71-.89-.35.54-2.17,1.36-2,2.59.44,1,4.06,4.75,6.12-.08-.05,3.84-1,4.75-.69,4.42,1.53.55,4.08,4.74,2.72,1.88-.6-2-1.58-1.35-3.39.11-.27,2.4.18,2.71,0,.84-.5,2.83-5.18,4.76-.68,0,.1,2.66,5.4,2.72,5.43,2.3,1.63,2-1.27,4.07.67.34.31-.26,1.65,0,2a13.27,13.27,0,0,0,3.39,2.72c-.27-.13.27-2.64,0-2.72,3,.76,1.78,3.1,4.07,2.72,3.31-.54,1-5.1,3.4-4.75.76.11,1.53,6.71,1.36.68-.15-5,3.34,1.8,2.71.68,1.05,1.85-1.32.45,1.36,3.39,1,1.08,1.36-.46,2,0,.32.22.47,1.95.68,2,1.62.74,3.2-.4,4.74,1.36,2.18,2.49,1.92,5.56,4.76,2.72,2.39-2.4.55,1.27,2.71,2,4,1.39,1.26,0,.68-4.76-3,.13-.19-2.67,0,0,.42,2.29,2.06-.44,3.39,1.36.22.27-.15,3,0,3.39.7,2,2.85,5.18,4.75,6.11-.94-.46.55-2.22,1.36-2,2.4.55,1.44,2.73,4.75.69,3.91-2.44,1.53,7.06,6.79,3.39,3.54-2.48.36,2.16,4.07,2-.27,0,0-2.17.44-3.05,0-.1,0-.2.25-.34a.9.9,0,0,0-.25.34c.07.55,3.06.49,3,.34.59.83-1.4,3.37.67,5.43,1,1,1.29-1.82,2.72-1.36C342.82,539.49,342.1,543.7,344.66,542.61ZM677.92,440.13c-1,.13.27-3.24,1.35-3.4C680.74,436.52,677.84,440.13,677.92,440.13Zm4.07-4.07c-1.74-.12-1-2.59.68-2.72C684.75,433.18,681.34,436,682,436.06Zm137.79-156.8c.41,0,.8.11.68.68,4,1,.45,4.52,0,0-.42,0-.81-.1-.68-.68C817.75,279.12,820.43,276.45,819.78,279.26ZM647.37,23.37c1-.09.48,1.2,0,1.35C646.47,25,647.36,23.37,647.37,23.37Zm91,21c.34-.35,1,1.69.67,2S738,44.76,738.33,44.41Zm65.16,8.82c1.29.26-.44.86-1.35.68C800.84,53.65,802.57,53.06,803.49,53.24Zm-29.87-.68c.32-.32.87,1.16.68,1.35S773.44,52.74,773.62,52.56Zm13.58.68c0-1.11,2.16-1.27,3.4-.68C793,53.72,787.23,54.7,787.2,53.24ZM33.11,130.61c-1.32-1.32,1.31-2.71,1.35-2.71C36.08,128,34,131.51,33.11,130.61Zm6.79,8.15s1.13.9.67,1.35C39.11,141.58,36.81,132.77,39.9,138.76Zm28.51,6.11c-2-.14.65-2.82,0,0C71.9,147.75,65.95,151,68.41,144.87Zm26.47,1.35c-.18-.3,1.78,2.3.68,3.4C94.83,150.34,93.75,144.26,94.87,146.22Zm2,9.51c.35-.35,1,1.69.68,2S96.57,156.07,96.91,155.73Zm386.89,148c-.53-.15-.78-.57-.68-1.36-.53-.15-.78-.56-.67-1.35-.54-.15-.79-.57-.68-1.36-.53-.15-.79-.56-.68-1.35-2-.14.65-2.82,0,0,.54.15.79.56.68,1.35.53.15.79.58.68,1.36.53.15.78.57.67,1.35.54.16.79.58.68,1.36C484.61,303.62,484.21,304.68,483.8,303.7Zm1.35,2.72c-2-.14.66-2.82,0,0C486,306.34,485.58,307.4,485.15,306.41Zm12.9,19c-18.2-29.6-33.41-65.55-46.84-100.46-1.49-3.87-6.64-13.52-5.42-15.61-.45.76,3.24,1.23,2.71.68,1.66,1.72.91,3.14,1.36,4.07,1.47,3,2.08,6.47,2.71,8.15,13.89,36.64,29.85,70.58,45.49,103.18C500.09,325.55,497.41,328.23,498.05,325.42Zm-156.8-55.67s-2-2-.67-3.39C340.59,266.37,341.64,269.38,341.26,269.75Zm.68-7.46c-.82-5.08,2.08-2.19,0,0C342.76,267.37,339.86,264.48,341.94,262.29Zm.68-6.79c.35-.35,1.13,2.27.67,2.72S342.16,256,342.62,255.5Zm.67-3.39c.35-.35,1,1.69.68,2S342.95,252.46,343.29,252.11Zm-25.78-12.22c.36-6.49,1.83-13.33,3.39-21,1.6-7.91,3-16,4.07-19.68-.18.65,4.28-11.43,3.4-10.86,1.27-.82,1,3.84.67,5.43-2.53,14.16-9.5,33.2-11.53,46.16C318.29,244.24,315.43,241.38,317.51,239.89ZM301.89,244c-.33.35-1-1.69-.67-2S302.23,243.62,301.89,244Zm6.8-36.66c.35-.35,1.13,2.27.67,2.72S308.23,207.76,308.69,207.31Zm.67-2c.32-.32.87,1.17.68,1.36S309.18,205.46,309.36,205.28Zm-6.11,0c.32-.32.86,1.17.68,1.36S303.06,205.46,303.25,205.28Zm12.89-50.9c1.42-.65,0,2.29,0,2-1.05,6-3.76,16.08-5.42,19.69-.07,2.2-.36,4.17-1.36,5.43-.11,1,.25,2.51-.67,2.71a75.24,75.24,0,0,1-4.08,17c.78,4.34-2.07,1.49,0,0a71.15,71.15,0,0,1,4.08-17c.11-1-.25-2.51.67-2.71-.11-2.38.19-4.35,1.36-5.43.76-6.14,2.58-10.85,4.07-16.29C314.51,160.83,315.62,154.61,316.14,154.37Zm-3.39,38c.78,4.35-2.07,1.49,0,0C312,188.78,314.81,191.58,312.76,192.38Zm-.68,5.43c-.34.34-1-1.69-.68-2S312.42,197.46,312.07,197.81Zm-.68,2.71c-.35.34-1-1.69-.67-2S311.74,200.18,311.39,200.52Zm-.67,2c-.32.32-.87-1.17-.68-1.35S310.9,202.37,310.72,202.56Zm31.9,29.87c-.35.34-1-1.69-.68-2S343,232.08,342.62,232.42Zm-1.36.68c2.06-.53-3.15,12.52-.67,2.71C340.52,236.09,341.6,233,341.26,233.11Zm158.83,97.06c.31-.32.87,1.17.68,1.35S499.9,330.35,500.09,330.17Zm4.07,7.46c-.45.44.29-.28,0,0Zm148,77.38c1.22.13-5.61,10.33-6.78,10.18C643.57,425,651.06,414.89,652.12,415Zm-10.18,4.75c-.07-.82,1-.41,0,0C642,420.58,641,420.18,641.95,419.75Zm15.61-2c1.71-3.8,1.9-6.4,3.4-6.79.89-.23-2.39,7.8-3.4,6.79C657.62,418.54,656.57,418.14,657.56,417.72Zm4.07,9.5c1.52-2.47,2.15-5.91,3.4-7.47,8-10-.55,7.16-3.4,7.47C661.71,428,660.64,427.65,661.63,427.23Zm31.23,2c-.69,4.28-3.6,1.37,0,0C692.85,425.7,695.71,428.55,692.86,429.26Zm70.59-164.94c.93.93-2.2,15.63-2.72,19.68-2.48,19.73-5.95,42.29-10.18,59a304.81,304.81,0,0,1-17,60.41c-.56,1.4-6.62,18.26-8.15,18.33-1.26.05.51-3.65.68-4.08,9-22.62,19.25-50.31,24.44-74.66.63-14.42,3.78-24.58,6.11-42.08.79-6,1.4-14.43,2-19.68C758.82,280.22,761.29,262.17,763.45,264.32Zm84.85-9.5c.82-.07.41,1,0,0C844.72,252.72,847.63,249.8,848.29,254.83ZM739,240.57C733.7,299,728.17,357.79,707.78,399.4c.65,2.82-2,.14,0,0,1.62-4.92,4-11.13,6.11-17.64,1.49-4.52,5.55-14.56,5.43-18.33-.09-3.28-1.59,1.26-1.35-.68,1.06-9.17,5.24-19.47,7.46-30.54,5.43-27.15,8.45-53.81,11.55-83.49.32-3.21.86-17.05,2-17.64C740.55,230.28,739.17,238.83,739,240.57Zm-2.71-5.43a619.69,619.69,0,0,1-25.12,140.5c-5.65,18.71-13.18,41.15-25.1,52.26.65,2.83-2,.15,0,0,2.76-7.86,8.22-13,11.53-20.36-.67,0-.8.55-1.35.68.65,2.82-2,.14,0,0,8.31-18,14-33.18,17.64-55,2.87-17.35,7.68-34.12,10.19-51.59,2.62-18.19,5.48-36.19,6.79-55.66.28-4.26-.44-20.67,2.72-21.72C738.05,222.79,736.42,233.2,736.3,235.14ZM657.56,404.83c.32-.32.86,1.17.68,1.36S657.37,405,657.56,404.83Zm17.66-2Zm52.93-179.86c-.35.33-1-1.69-.68-2S728.49,222.58,728.15,222.93Zm-.68-3.39Zm-12.21-24.44c2.53,2.63-.32,15.56-.68,19.69C709.72,270.72,703,326.7,688.11,371.57c-2.06,7.56-3.7,14.51-6.79,21.72-.82,1.91-5,9.63-2.72,3.39,2.74-7.37,6.68-19.56,9.5-25.11,2.36-9.58,3.94-15.2,5.42-23.07,4.37-23.09,8.53-45.11,11.54-69.91,3-24.59,5.39-49,7.47-74C713.08,198,712.32,192,715.25,195.09ZM671.13,373.61c2.25-11.45,9.15-26.24,9.5-35.3-2.06-.8.74-3.61,0,0,1-.13.63-1.64.68-2.72-1.11.48-1.11-3.2,0-2.72,8.82-42.75,13.06-83.11,17-129.64.59-7.07.76-20.49,2-27.15,2-10.18.91,5.23.67,8.82-4.31,66.51-9.84,127.26-26.47,181.22-.47,1.54-3.49,11.54-3.4,11.54C667.8,377.81,676.56,345.85,671.13,373.61Zm-3.39-10.19c.31-.31.86,1.17.67,1.36S667.55,363.62,667.74,363.42Zm30.54-120.13c-.68.68,1.59,5.19.68,6.11C699,249.39,696.75,244.83,698.28,243.29Zm-1.35,19c.75,7.79-2,4.86,0,0-.54-3.35.52-5.41.67-6.79C699.15,242,698,261.17,696.93,262.29Zm-1.36,8.83c0-.4-.25-2.46,0-2.72C696.46,267.51,695.84,279.35,695.56,271.12Zm0,6.1c-.31.33-.86-1.16-.68-1.35S695.75,277,695.56,277.22Zm-4.75,29.19Zm-.67,8.82c-.32.32-.87-1.17-.68-1.36S690.32,315,690.14,315.23Zm-.68,4.75c-.36.35-1.13-2.26-.67-2.72S689.91,319.53,689.46,320Zm-1.35,6.79c-.36.35-1.13-2.26-.68-2.72S688.55,326.33,688.11,326.77Zm-3.4,12.89c-.37,1,.79,3.51-.67,3.39.41,3.09-.84,4.07-1.36,6.11-3.09,12.1.37-5.7,1.36-6.11.37-1-.8-3.51.67-3.39C684,336.07,686.77,338.86,684.71,339.67ZM680,360c-.1.8.11,1.93-.68,2-.11,1,.25,2.5-.67,2.71.65,2.82-2,.14,0,0,.11-1-.25-2.5.67-2.71.11-.8-.11-1.93.68-2C679.17,355.68,682,358.54,680,360Zm-13.57,9.5a14.24,14.24,0,0,1-2.71,8.15c.21,2.72-1.58,4.5-2.72,7.46-.39,1-4.15,11.87-3.4,6.11.45-3.42,6-11.91,6.12-13.57.57-3,.89-6.33,2.71-8.15C666.23,363.71,669.16,366.63,666.38,369.53ZM703.71,191.7c-1.11,14.12-2.62,34.33-4.07,43.44,0,1.45,0,2.8,0,4.08-.26,7.6-1.59-1,0-4.08-.53-8.31.2-16.48,1.35-29.87.59-6.88,1.34-13.64,2-20.36.19-1.86,1-11.49,1.35-4.76C704.71,185.92,704.23,185.12,703.71,191.7Zm97.74-29.19c4.14,7,6.6,8.51,10.18,14.94,1.35,2.42,5.83,10,1.36,4.75-.41,4.48-3.36-2.81-4.08-4.07-2.57-4.5-7.36-12.74-9.5-17C795.85,154.1,799.77,159.67,801.45,162.51Zm-105.21-.68c.08.24.75,0,.68.68-3.53,35.69-5.4,73.65-10.18,109.29C685.23,283,685,295.62,682,306.41c-.3,1.09-2.07,3-2.72,4.75-1.69,4.66-2.07,10.42-3.39,15.61-6.35,25.08-12.17,49-23.08,71.95-1.32,2.78-11.82,22.39-14.93,22.4-1.53,0,3.88-6.25,4.75-7.46,5.58-7.77,9.6-17.27,12.89-25.8,5-13.07,11.09-26.82,13.57-38,.75-3.35.64-6.9,1.36-10.18s2-6.23,2-9.5a14.29,14.29,0,0,0-1.36-3.39c-.53-4,1.61-11.34,2.72-17.65,6.17-35,11.42-90.14,14.26-124.21.7-8.48,0-16.78,2.71-25.11-1.58,4.79-.31-3.35,1.36-3.4C693.25,156.37,695.38,159,696.25,161.83ZM684,158.44c.12-1.2,1-11.2,1.35-4.07.37,7.86-1.06,16.1-1.35,23.08-1.86,43-6.66,84.83-12.9,124.88-2.12,13.68-6.37,35.91-10.86,46.16-4.36,17.81-9.26,35.08-18.33,48.19-1.05,2.75-3.34,10.53-4.75,10.86-.45.11,3.6-11.38,4.75-10.86,6.58-15.59,13.07-31.27,18.33-48.19C675.59,291.18,677.13,224.1,684,158.44Zm-239.6-4.76c-1-.83-1.3-2.33-1.36-4.06-1.19-.63-1.5-2.12-1.35-4.08-1-.58-1.46-1.71-1.36-3.39-2-.13.65-2.82,0,0,1,.58,1.47,1.7,1.36,3.39,1,.84,1.27,2.34,1.35,4.08,1.19.62,1.5,2.12,1.36,4.06,12.31,30.4,22.79,63.78,36.64,98.42a806,806,0,0,0,38,80.77c2.17,4,5.57,8.19,6.11,10.86.65,3.26-2.29-.73-2,0-.89,2.44,2,2.56,0,2.72-2.15.17-8.18-11.95-10.18-15.61-21.67-39.73-40.78-85.85-55-128.29-.79-.11-.74-1.07-.67-2-.79-.11-.74-1.07-.68-2-.79-.12-.74-1.07-.68-2-1.61-1.78-2.24-4.55-2.72-7.46-.78-.11-.73-1.07-.68-2-1.85-2.45-2.66-5.94-3.39-9.5-2.33-3.79-3.56-8.67-4.74-13.59-1.2-.62-1.51-2.12-1.36-4.06-.79-.12-.74-1.07-.68-2-2.85-2.11.06-5,0,0,.79.12.74,1.08.68,2,1,.84,1.29,2.34,1.36,4.06,2.31,3.79,3.54,8.67,4.74,13.59,1.86,2.44,2.67,5.93,3.39,9.5.79.11.74,1.07.68,2,1.62,1.79,2.24,4.55,2.72,7.46.79.12.74,1.08.68,2,.79.11.74,1.07.68,2,.78.11.73,1.07.67,2,5.1,9.26,6.62,20.33,11.54,28.51.66,1.08,2.29,1.91,2.72,2.71,1.61,3.06.92,6.21,3.39,8.15C464.86,212.9,454.34,183.61,444.44,153.68Zm25.78,63.13c-.32.32-.86-1.17-.68-1.36S470.41,216.63,470.22,216.82Zm32.58,78.73c.53.15.78.56.67,1.36.54.15.79.56.68,1.36.53.15.79.56.68,1.35.53.15.78.58.68,1.36.53.15.78.57.68,1.35.53.16.78.58.67,1.36,5.93,11.49,12.48,22.36,17.66,34.62,2.84.71,0,3.56,0,0a218.42,218.42,0,0,1-17.66-34.62c-.53-.15-.79-.57-.67-1.36-.54-.15-.79-.56-.68-1.35-.54-.15-.79-.57-.68-1.36-.53-.15-.79-.56-.68-1.35-.53-.15-.79-.57-.68-1.36-.53-.15-.78-.57-.67-1.36C500.06,294,503,291.14,502.81,295.55Zm23.75,29.87c-.53-.15-.78-.58-.67-1.36-.54-.15-.79-.56-.68-1.35-.53-.15-.78-.57-.67-1.36-.54-.15-.79-.56-.69-1.35-32.5-58.44-54.22-127.69-78-194.8-2-.14.64-2.82,0,0,15.73,31,24.72,66,37.32,99.1s26.57,65.14,40.72,95.71c.54.15.79.56.69,1.35.53.16.78.58.67,1.36.53.15.79.56.68,1.35.53.15.78.57.67,1.36C528.59,325.55,525.91,328.23,526.56,325.42Zm12.22-34.63c.32-.31.86,1.18.68,1.36S538.59,291,538.78,290.79Zm-1.35-3.39c-.54-.15-.79-.57-.68-1.36-.79-.11-.74-1.07-.68-2-.53-.15-.79-.57-.67-1.36-.54-.15-.79-.57-.68-1.35-2-.14.65-2.82,0,0,.53.15.78.57.68,1.35.53.15.78.57.67,1.36.79.11.74,1.07.68,2,.53.15.78.57.68,1.36C539.45,287.54,536.78,290.23,537.42,287.4Zm-6.12-14.25c.53.15.79.57.68,1.35.79.12.74,1.08.68,2,2,.13-.66,2.82,0,0-.79-.12-.74-1.08-.68-2-.53-.15-.78-.57-.68-1.35C530.49,273.22,530.89,272.16,531.31,273.15Zm-2-4.75c.79.11.74,1.07.68,2,2,.14-.65,2.82,0,0-.79-.11-.74-1.07-.68-2C527.24,268.26,529.92,265.58,529.27,268.4Zm-10.17-25.8c.78.12.73,1.08.68,2,.53.15.78.56.67,1.35.79.12.74,1.07.68,2,1,.58,1.45,1.72,1.35,3.4,1,.58,1.46,1.71,1.35,3.39,1,.57,1.46,1.71,1.36,3.39.79.12.74,1.08.68,2,.53.15.78.56.67,1.35.79.12.74,1.08.68,2,.53.15.79.57.68,1.36,2,.13-.65,2.82,0,0-.54-.15-.79-.56-.68-1.36-.78-.12-.74-1.07-.68-2-.53-.15-.78-.56-.67-1.35-.79-.12-.74-1.07-.68-2-1-.57-1.45-1.7-1.36-3.39-1-.58-1.45-1.71-1.35-3.39-1-.58-1.45-1.72-1.35-3.4-.79-.11-.74-1.07-.68-2-.53-.15-.78-.56-.67-1.35-.8-.12-.75-1.08-.68-2C517.06,242.47,519.74,239.79,519.1,242.61Zm3.39-8.15c.79.12.74,1.08.68,2,.53.15.78.57.67,1.35,2.07.8-.73,3.6,0,0-.53-.15-.78-.57-.67-1.35-.79-.12-.74-1.08-.68-2C520.45,234.33,523.13,231.64,522.49,234.46Zm-6.79-.68c2.07.8-.73,3.6,0,0-.53-.15-.78-.57-.68-1.36-.79-.11-.74-1.07-.67-2-.79-.11-.74-1.07-.68-2-.53-.15-.78-.57-.67-1.36-.8-.11-.75-1.07-.69-2-.78-.11-.73-1.07-.67-2-.79-.12-.74-1.08-.68-2-2-.13.65-2.82,0,0,.79.12.74,1.08.68,2,.79.11.74,1.07.67,2,.79.11.75,1.07.69,2,.53.15.78.57.67,1.36.79.11.74,1.07.68,2,.79.11.74,1.07.67,2C515.54,232.58,515.81,233,515.7,233.78ZM515,214.1c1,.58,1.46,1.7,1.36,3.39.78.12.73,1.07.68,2,1.33,1.15,1.81,3.15,2,5.43.78.11.73,1.07.68,2,.78.11.73,1.07.67,2,2.86,2.12-.06,5,0,0-.79-.11-.74-1.07-.67-2-.8-.11-.75-1.07-.68-2-1.33-1.15-1.82-3.15-2-5.43-.79-.12-.74-1.07-.68-2-1-.58-1.46-1.71-1.36-3.39-1.15-1.55-2.92-4.54-2-5.43C513.15,208.5,515.82,213.3,515,214.1Zm-16.29-46.83c.79.12.75,1.07.68,2,.79.11.74,1.07.68,2,1.34,1.15,1.82,3.15,2,5.43a22.72,22.72,0,0,1,2.72,8.15,37.74,37.74,0,0,1,4.07,11.53c.79.12.74,1.08.68,2,.78.11.74,1.07.67,2,.69,2.56,4.2,6,2.73,7.46.22-.22-4.18-6.45-2.73-7.46-.78-.11-.73-1.07-.67-2-.79-.12-.74-1.07-.68-2a26.23,26.23,0,0,1-4.07-11.53,14.17,14.17,0,0,1-2.72-8.15c-1.34-1.15-1.82-3.16-2-5.43-.79-.12-.74-1.08-.68-2-.79-.12-.74-1.08-.68-2C496.67,166.46,499.47,163.66,498.73,167.26Zm-41.39-47.51c1.62-.18,1.74,5.25,3.39,6.79.4.37,2.78.34,1.36-1.36,6.49,7.71,6.73,18.67,12.89,27.83-1-10.31-6.22-16.41-8.15-25.8-2-.13.66-2.82,0,0,3.76,5.81,5.23,12.71,8.15,19,1.58,3.4,4.46,6.11,6.11,9.51,4.92,10.13,7.77,21.93,11.54,33.25,1.79,5.38,4.19,10.92,6.11,16.29,10.05,28.21,23.2,57,32.58,82.8,1.73,3.9,10.91,18.31,8.82,20.37.19-.18-.27-1-.67-.68-.4,5.39-6.41-7.88-8.15-11.54C515,262,500.36,221.29,487.2,188.3c11.13,33.41,22.65,65.19,37.33,96.39,2.58,5.51,8.36,17.06,10.86,22.4.21.48,3.85,7.05,2,8.15-2.17,1.31-5.86-4.17-4.75-2.72a50.24,50.24,0,0,1-2.72-5.42c-5.39-10.85-9.27-20.64-14.94-33.26-22.27-49.64-37.95-104.12-57.69-154.07C453.88,116.81,456.82,113.89,457.33,119.75Zm-19.69-6.11c17.49,32.54,28.28,74.45,42.09,110,7.67,19.74,15.3,38.17,23.08,55.66,8.24,18.53,15.94,36.56,25.78,52.94.29.48.64.47.68,1.36.12,2.34.08,5.14-2.72,2.71-2.1-1.83-5.84-10.43-6.78-12.22-16.26-30.41-28.32-59.56-41.42-93-2.08-5.31-5.4-10.12-6.79-14.94-.59-2.07-.21-4.66-.67-6.78-1.26-5.84-4.07-12.17-6.12-18.33-4.93-14.9-10.66-29-15.61-44.8A266.21,266.21,0,0,0,438.32,117C436.06,112,434.38,107.56,437.64,113.64ZM439,138.76c-2-.14.66-2.81,0,0C441,138.9,438.36,141.58,439,138.76Zm-1.35-3.39c-.79-.11-.74-1.07-.68-2-.53-.15-.78-.57-.67-1.36-1-.57-1.47-1.71-1.36-3.39a17.83,17.83,0,0,1-3.39-8.15c-.82.07-.41-1,0,0a17.71,17.71,0,0,1,3.39,8.15c1,.58,1.47,1.7,1.36,3.39.53.16.78.58.67,1.36.79.11.75,1.07.68,2C439.68,135.5,437,138.18,437.64,135.36Zm-18.33-12.89c-1-3-2.31-16,1.35-8.15a549.31,549.31,0,0,1,22.41,57c21.85,65.1,47.11,125.74,77.38,179.86,3.25,1.13-.46,2.24-.67,2.72-1.31,2.91-.59-1,.67-2.72-1.08-.75-2.46,2.7-2.72,2.72-.73.06-4.38-5.22-6.11-8.15-12.5-21.22-24.57-46.36-33.27-66.52-.53-.15-.78-.56-.67-1.36-.54-.15-.79-.56-.68-1.35-2.38-.19,1.7-2.53-.67-2.72.06.82-1,.42,0,0,.49-3.07-1.88,1-1.36-2-2.38-.2,1.7-2.53-.68-2.73.07.83-1,.42,0,0-.15-.53,0-1.34-.67-1.35.06.82-1,.42,0,0-1.7-3.51-1.44-3-2.72-5.43-.53-.15-.79-.56-.68-1.36a.69.69,0,0,1,0-1.36c-14.76-35.3-27.41-71.92-40.72-110C427.39,143.6,421.69,130,419.32,122.47ZM306.65,147.58c-.08-.82,1-.41,0,0C307.43,151.92,304.57,149.07,306.65,147.58Zm-18.34,71.27c3.57-20.81,8.56-39.05,14.26-58.37.72-2.4,1.64-8.68,2-8.82,1.33-.49-4,16.87-4.07,17-4.79,17.87-8.45,33.42-12.22,52.26a24.53,24.53,0,0,1,0,2.71C286.33,224.17,291.1,202.61,288.31,218.85ZM306,167.26c-.45.44.28-.29,0,0Zm-1.36,8.83c-.31.32-.86-1.17-.67-1.35C304.25,174.41,304.79,175.9,304.6,176.09Zm-1.35,1.36Zm-.68,6.1c-.31.32-.87-1.17-.68-1.35S302.76,183.37,302.57,183.55Zm-1.35,2Zm-10.86,78.06c1-9.66,1.48-18.2,2.71-25.8,3.88-23.91,9.56-45.61,14.94-67.19,1.45-5.85,1.23-12.8,3.39-17,.74-1.43,1.11-.64,2-2,.82-1.22-.41-1.73,0-2.72s1-.5,1.36,0c2.16,3.38-2.09,10.81-3.4,15.61-7.85,28.79-14.33,61.77-19.68,95C291.49,261,289.45,272.19,290.36,263.65Zm10.86-16.29c-.36.36-1.13-2.26-.68-2.71S301.66,246.9,301.22,247.36Zm33.94,16.29c.79-5.33,2.25-9.59,3.4-15.61.47-2.51.28-7.2,1.35-7.46.73-.18-1.8,14.17-2,15.61-.72,4.26-1.74,9.07-2.72,13.57C334.38,273.29,334.58,267.49,335.15,263.65Zm4.75,7.47c.36-.36,1.13,2.26.68,2.71S339.46,271.56,339.9,271.12Zm-.68,4.75c.36-.35,1.13,2.26.68,2.72S338.78,276.32,339.22,275.86Zm-.67,3.39c.34-.34,1,1.69.67,2S338.19,279.6,338.55,279.26ZM262.53,506c.09,0,.62-.07.68,0C265.65,508.4,259,506,262.53,506Zm50.9,13.57c1.44-.67,3.22,3.68,3.4,4.76.38,2.22.29,3.61-1.35,3.39C313,527.35,313.57,519.48,313.43,519.54Zm4.75,8.15c.32-.32.87,1.17.68,1.35S318,527.87,318.18,527.69Zm21,8.82c.32-.32.87,1.17.68,1.36S339,536.69,339.22,536.5ZM48.49,128.36a1,1,0,0,1,.22.21C48.63,128.41,48.56,128.35,48.49,128.36ZM30.59,128c-.1.07-.17.23-.2.56A2.3,2.3,0,0,1,30.59,128Zm25.35-2c-.32-.36-.48-.4,0,0Zm96.63,42.62c-1.65-.44-.92-.13.17.51C153,168.92,153,168.74,152.57,168.62ZM453.84,74.15a5.28,5.28,0,0,1,.77.13C453.71,74,453.56,74,453.84,74.15ZM906,273.83c-.1,0-.28-.11-.53-.36A.38.38,0,0,0,906,273.83ZM361.62,520.89c-.35-.18-.55-.72-.65-1.48C360.65,519.92,360.72,520.45,361.62,520.89ZM918.88,241.25Zm-1.36-2.72c.42,1,.82-.07,0,0Zm0,0c-.42-1-.82.07,0,0Zm-1.36-3.39h-.68C915.61,235.91,916.17,235.52,916.17,235.14Zm-1.36-1.36c-.11.79.15,1.21.68,1.36v-1.36Zm-.68-.68c-.12.57.27.64.68.68C914.93,233.21,914.54,233.14,914.12,233.11Zm-.67-1.36c-.11.78.15,1.21.67,1.36C914.24,232.31,914,231.89,913.45,231.75Zm-2-3.39c.23,1.58.69,2.92,2,3.39.08-1.22-.83-1.43-.68-2.72C912.09,229,912,228.48,911.41,228.35Zm-1.36-4.08c-.68,0-.8-.55-1.36-.68.52,2,1.08,3.91,2.72,4.76.08-1.21-.83-1.44-.68-2.72C910.21,225.49,909.94,225.07,910.05,224.28ZM908.7,287.4c.42,1,.82-.07,0,0ZM868,263c.41,1,.82-.07,0,0Zm0,0a1.85,1.85,0,0,0-1.36-2A1.85,1.85,0,0,0,868,263Zm-1.36-2a1.85,1.85,0,0,0-1.36-2A1.85,1.85,0,0,0,866.61,260.93Zm-.68,2.72c-.65,2.82,2,.13,0,0Zm-1.36-9.5c0,3.57,2.86.71,0,0Zm1.36,9.5c.12-.58-.27-.64-.68-.68C865.13,263.54,865.52,263.61,865.94,263.65Zm-.68-4.76a1.84,1.84,0,0,0-1.35-2A1.84,1.84,0,0,0,865.26,258.89Zm0,4.08c.11-.79-.15-1.21-.68-1.36C864.47,262.4,864.73,262.82,865.26,263Zm-.68-1.36a1.85,1.85,0,0,0-1.35-2A1.85,1.85,0,0,0,864.57,261.61Zm-1.35-2a1.86,1.86,0,0,0-1.35-2A1.86,1.86,0,0,0,863.22,259.57ZM860.5,124.5c-.64,2.82,2,.14,0,0Zm0,0c.11-.79-.15-1.21-.68-1.35C859.72,123.94,860,124.35,860.5,124.5Zm-.68,175.8c.42,1,.82-.07,0,0Zm0-177.15a1.85,1.85,0,0,0-1.36-2A1.87,1.87,0,0,0,859.83,123.15Zm0,177.15a1.85,1.85,0,0,0-1.36-2A1.85,1.85,0,0,0,859.83,300.3Zm-1.36-179.19c.11-.79-.15-1.21-.68-1.35C857.68,120.54,857.94,121,858.47,121.11Zm-.68-1.35c-.23-1.58-.7-2.92-2-3.39C856,117.94,856.45,119.28,857.79,119.75ZM844.89,286c.42,1,.82-.07,0,0Zm0,0c.11-.79-.15-1.21-.68-1.35C844.11,285.48,844.36,285.9,844.89,286Zm-.68-1.35c.13-.58-.27-.65-.68-.68C843.41,284.59,843.8,284.65,844.22,284.69Zm-.68-.68c.13-.58-.26-.64-.68-.68C842.73,283.91,843.13,284,843.54,284Zm-6.79,25.11c.42,1,.82-.07,0,0ZM819.1,191h-.67C818.55,191.79,819.1,191.39,819.1,191Zm-6.78-10.19c-.11.79.15,1.21.68,1.36C813.11,181.41,812.84,181,812.32,180.84Zm0,0c.64-2.82-2-.13,0,0ZM792,293.51c.42,1,.82-.07,0,0Zm0,0c.13-.58-.27-.64-.68-.68C791.15,293.41,791.54,293.47,792,293.51Zm-.68-.68c-.05-2-1.55-2.53-2.72-3.4C788.6,291.43,790.11,292,791.27,292.84Zm-2.72-3.4c.12-.58-.26-.64-.68-.68C787.76,289.34,788.14,289.4,788.56,289.44ZM783.13,45.77a9.33,9.33,0,0,0-6.79.68C770.43,49,786.37,46.82,783.13,45.77Zm-60.42-4.08c.76.86,3.23-2.23,4.75,0C729.83,37.27,721.72,40.55,722.71,41.69ZM699.64,403.47c-.58,1.07-2.26,2.6-2,4.07C700.68,404.33,703.42,396.49,699.64,403.47Zm-17-76c-.35.35.34,2.38.68,2S683,327.11,682.67,327.45Zm-.68,5.43c2.07-.8-.73-3.59,0,0Zm0,0h-.67v2.72C682.23,335.38,681.88,333.9,682,332.88ZM661,24.72c1-.42-.08-.81,0,0Zm-121.5,283c.65-2.82-2-.13,0,0Zm-1.35-2.71Zm-.68-2c-.65,2.82,2,.13,0,0Zm0,0c.1-.79-.16-1.21-.68-1.36C536.63,302.44,536.89,302.86,537.42,303Zm-.68-1.36c.1-.79-.15-1.2-.68-1.35C535.95,301.09,536.22,301.51,536.74,301.65Zm-.68-1.35c.11-.79-.14-1.21-.67-1.36C535.27,299.73,535.53,300.15,536.06,300.3Zm-.67-1.36c.65-2.81-2-.13,0,0ZM534,296.23Zm-.67-2c-.66,2.82,2,.14,0,0ZM532,241.93c-.1,1.68.35,2.81,1.36,3.39C533.46,243.63,533,242.5,532,241.93Zm1.36,52.26c.1-.79-.16-1.21-.68-1.35C532.56,293.63,532.82,294,533.35,294.19Zm-.68-1.35c.65-2.82-2-.14,0,0Zm-1.36-53c-.06,1-.11,1.92.68,2C532,241,532.1,240,531.31,239.89Zm-.68-1.35c-.11.79.16,1.21.68,1.35C531.42,239.1,531.15,238.69,530.63,238.53Zm.68,49.54h-.68C530.55,289.76,531.46,289.24,531.31,288.08ZM530,236.5c-.06,1-.11,1.92.67,2C530.69,237.57,530.75,236.61,530,236.5Zm.67,51.58c-.41-1-.82.07,0,0ZM530,236.5c.06-5-2.86-2.12,0,0Zm-.68,48.87c-.65,2.81,2,.13,0,0Zm0,0c.65-2.82-2-.15,0,0Zm-1.35-54.3c-.65,2.82,2,.13,0,0Zm0,50.91c-.65,2.81,2,.13,0,0Zm0-50.91c.06-1,.11-1.92-.68-2C527.18,230,527.13,230.95,527.92,231.07Zm0,50.91c.65-2.82-2-.15,0,0Zm-.68-53c.11-.78-.15-1.2-.68-1.35C526.46,228.47,526.71,228.89,527.24,229Zm-.68,50.23c.29-.28-.44.45,0,0Zm0-51.58c.07-1,.11-1.92-.67-2C525.82,226.6,525.76,227.56,526.56,227.68Zm0,50.9c.19-.18-.36-1.68-.67-1.36S526.23,278.9,526.56,278.58Zm-.67-52.94c.06-1,.11-1.92-.68-2C525.15,224.56,525.09,225.52,525.89,225.64Zm-.68,50.23c-.45.45.29-.28,0,0Zm0-52.27c.06-1,.11-1.92-.67-2C524.47,222.53,524.41,223.49,525.2,223.6Zm-.67-2c.09-1.68-.36-2.82-1.36-3.4C523.06,219.86,523.51,221,524.53,221.57Zm-.69,50.9c-.64,2.82,2,.14,0,0Zm0,0c.65-2.82-2-.13,0,0Zm-.67-54.3c.06-1,.11-1.92-.68-2C522.43,217.1,522.37,218.06,523.17,218.17Zm-.68,50.9c-.65,2.83,2,.15,0,0Zm-2,69.92c.25,2.24,1.59,3.39,2.72,4.75C523.16,341.25,521.83,340.1,520.45,339Zm2-122.86c.06-1,.11-1.92-.67-2C521.75,215.07,521.7,216,522.49,216.13Zm0,52.94c.65-2.81-2-.13,0,0Zm-.67-55c0-1,.1-1.92-.68-2C521.07,213,521,214,521.82,214.1Zm-.68,52.27Zm0-54.3c.06-1,.11-1.92-.68-2C520.4,211,520.34,212,521.13,212.06Zm0,53.62c.18-.18-.36-1.67-.68-1.36S520.81,266,521.13,265.68ZM520.45,210c.65-2.82-2-.14,0,0Zm-.67,127.6c-.11.79.15,1.21.67,1.36C520.56,338.21,520.31,337.78,519.78,337.63Zm-.68-131c-.66,2.82,2,.13,0,0Zm.68,55.66c.18-.18-.37-1.68-.68-1.36S519.44,262.61,519.78,262.29Zm-.68,74c-.12.79.14,1.21.68,1.36C519.88,336.84,519.62,336.42,519.1,336.27Zm0-129.64c.06-1,.11-1.92-.68-2C518.36,205.56,518.3,206.52,519.1,206.63Zm-.68,52.94Zm0,75.35c-.11.78.15,1.2.68,1.35C519.2,335.49,518.94,335.07,518.42,334.92Zm0-130.33c.06-1,.11-1.91-.68-2C517.68,203.52,517.62,204.48,518.42,204.59Zm0,54.3c.19-.18-.36-1.67-.68-1.35S518.09,259.22,518.42,258.89Zm-2,72.63c.22,1.59.69,2.94,2,3.4C518.18,333.33,517.72,332,516.38,331.52Zm1.35-129c.07-1,.12-1.92-.67-2C517,201.49,516.94,202.45,517.73,202.56Zm-.67-2c0-1,.1-1.92-.68-2C516.33,199.45,516.27,200.41,517.06,200.52Zm0,55c.18-.18-.37-1.67-.68-1.35S516.74,255.82,517.06,255.5Zm-.68-57c.06-1,.11-1.92-.68-2C515.63,197.42,515.59,198.37,516.38,198.49Zm-.68,131.68c-.11.79.15,1.21.68,1.35C516.49,330.73,516.22,330.31,515.7,330.17Zm0-133.72c.65-2.82-2-.13,0,0Zm0,55.66c.19-.18-.36-1.68-.68-1.36S515.37,252.43,515.7,252.11Zm-.68,76.7c-.1.79.16,1.21.68,1.36C515.81,329.38,515.54,329,515,328.81Zm-.67-135.75c-.65,2.82,2,.13,0,0Zm0,134.39c-.11.79.15,1.21.67,1.36C515.13,328,514.87,327.6,514.35,327.45Zm0-134.39c.06-1,.11-1.92-.68-2C513.61,192,513.55,192.94,514.35,193.06Zm-.68,133c-.11.79.16,1.21.68,1.36C514.46,326.66,514.19,326.24,513.66,326.09Zm0-135.07c.06-1,.11-1.92-.67-2C512.93,189.95,512.87,190.91,513.66,191Zm0,135.07c-1-2.82-1.92-5.76-4.07-7.46C510.61,321.45,511.52,324.4,513.66,326.09ZM513,189c.06-1,.1-1.92-.69-2C512.24,187.91,512.19,188.87,513,189Zm-.69-2c.07-1,.12-1.93-.67-2C511.57,185.88,511.52,186.84,512.3,186.95Zm-.67,55.66Zm0-57.69c.65-2.82-2-.14,0,0Zm-.68-2c.19-.19-.36-1.68-.68-1.35S510.63,183.2,510.95,182.87Zm-.68-2c.19-.19-.36-1.68-.67-1.36S510,181.16,510.26,180.84Zm-.67-2c.18-.18-.36-1.68-.68-1.35S509.27,179.13,509.59,178.8Zm-1.35,137.11c.09,1.27.44,2.27,1.35,2.72C509.77,317.08,509.43,316.07,508.24,315.91Zm.67-139.14c.19-.19-.36-1.68-.67-1.36S508.6,177.09,508.91,176.77Zm-.67-2c.18-.2-.37-1.69-.69-1.36S507.91,175,508.24,174.74Zm-.69,139.82c-.1.79.16,1.2.69,1.35C508.34,315.12,508.08,314.7,507.55,314.56Zm-.67-143.22c-.65,2.82,2,.13,0,0Zm0,141.85c-.11.79.15,1.21.67,1.36C507.66,313.77,507.4,313.35,506.88,313.19Zm0-141.85c.06-1,.11-1.92-.67-2C506.14,170.26,506.08,171.22,506.88,171.34Zm-2,137.78a6.75,6.75,0,0,0,2,4.07C506.91,311.12,506.25,309.74,504.84,309.12Zm1.36-139.82c.64-2.82-2-.14,0,0Zm-2,137.78c-.06,1-.11,1.92.68,2C504.9,308.16,505,307.2,504.16,307.09Zm-1.35-2.72c-.19,1.55.17,2.55,1.35,2.72C504.06,305.82,503.71,304.82,502.81,304.37Zm-.68-1.35c-.11.79.16,1.21.68,1.35C502.92,303.58,502.65,303.17,502.12,303Zm-.68-1.36c-.1.79.15,1.21.68,1.36C502.24,302.22,502,301.81,501.44,301.65Zm-.67-1.35c-.11.79.15,1.21.67,1.35C501.55,300.87,501.3,300.45,500.77,300.3Zm-.68-1.36c-.11.79.15,1.21.68,1.36C500.87,299.51,500.61,299.09,500.09,298.94Zm-.68-1.35c-.1.79.16,1.21.68,1.35C500.2,298.15,499.94,297.73,499.41,297.58Zm-1.35-3.39c-.11,1.68.35,2.81,1.35,3.39C499.51,295.9,499.06,294.77,498.05,294.19Zm0-145.93c.19-.18-.37-1.68-.68-1.35S497.73,148.58,498.05,148.26Zm-.68,144.58c-.11.79.16,1.2.68,1.35C498.17,293.4,497.9,293,497.37,292.84Zm-.68-147.29Zm0,145.93c-.1.79.16,1.21.68,1.36C497.48,292,497.23,291.63,496.69,291.47Zm-.68-148c-.64,2.82,2,.15,0,0Zm0,146.62c-.1.79.16,1.2.68,1.35C496.8,290.69,496.55,290.27,496,290.12Zm0-146.62c.07-1,.12-1.92-.67-2C495.28,142.44,495.23,143.4,496,143.5Zm-.67,145.26c-.11.79.15,1.21.67,1.36C496.13,289.33,495.87,288.91,495.34,288.76Zm-2-152a6.26,6.26,0,0,0,2,4.75A6.26,6.26,0,0,0,493.3,136.72Zm1.35,150c-.06,1-.1,1.92.68,2C495.39,287.8,495.45,286.84,494.66,286.73Zm-.67-1.35c-.11.78.15,1.2.67,1.35C494.77,285.93,494.51,285.51,494,285.37ZM493.3,284c-.11.79.15,1.21.68,1.36C494.09,284.57,493.83,284.16,493.3,284Zm0-147.29c.11-.79-.15-1.21-.68-1.36C492.51,136.15,492.78,136.57,493.3,136.72Zm-.68,145.93c-.11.79.16,1.21.68,1.36C493.41,283.22,493.16,282.8,492.62,282.65Zm-2-152a6.29,6.29,0,0,0,2,4.75A6.25,6.25,0,0,0,490.59,130.61Zm1.35,150.69c-.1.79.16,1.21.68,1.35C492.73,281.86,492.48,281.45,491.94,281.3Zm-.67-2c-.07,1-.11,1.92.67,2C492,280.33,492,279.38,491.27,279.26Zm-.68-1.36c-.11.79.16,1.21.68,1.36C491.38,278.48,491.11,278.05,490.59,277.9Zm-.67-1.35c-.12.79.13,1.2.67,1.35C490.7,277.11,490.44,276.69,489.91,276.55Zm-.68-2c-.07,1-.11,1.92.68,2C490,275.58,490,274.62,489.23,274.51Zm-.68-1.35c-.11.78.15,1.21.68,1.35C489.33,273.72,489.08,273.3,488.55,273.15Zm-.68-1.35c-.11.78.16,1.2.68,1.35C488.66,272.36,488.4,271.94,487.87,271.8Zm-.67-2c-.07,1-.12,1.92.67,2C487.92,270.83,488,269.88,487.2,269.75Zm0-81.45c-.08-1.73-.39-3.24-1.36-4.07C485.7,186.18,486,187.68,487.2,188.3Zm-.68,80.1c-.11.79.15,1.21.68,1.35C487.31,269,487,268.55,486.52,268.4Zm-.68-1.36c-.11.79.16,1.21.68,1.36C486.63,267.61,486.36,267.19,485.83,267Zm0-82.81c-1.42-5.59-2.87-11.15-5.43-15.61C481.83,174.21,483.28,179.78,485.83,184.23ZM485.15,265c-.06,1-.11,1.92.68,2C485.9,266.08,485.94,265.11,485.15,265Zm-.67-1.36c-.11.79.15,1.21.67,1.36C485.26,264.21,485,263.79,484.48,263.65Zm-.68-1.36c-.11.79.16,1.21.68,1.36C484.59,262.85,484.32,262.44,483.8,262.29Zm-.68-2c0,1-.1,1.92.68,2C483.85,261.33,483.91,260.37,483.12,260.26Zm-.67-1.36c-.11.79.15,1.21.67,1.36C483.23,259.47,483,259,482.45,258.89Zm-1.36-3.39c-.1,1.69.36,2.82,1.36,3.39C482.55,257.21,482.09,256.08,481.08,255.5Zm-1.35-3.39c-.11,1.68.35,2.82,1.35,3.39C481.18,253.81,480.73,252.69,479.73,252.11Zm0-85.53c-.06,1-.11,1.92.67,2C480.47,167.66,480.51,166.7,479.73,166.58Zm-.68-2c-.06,1-.11,1.92.68,2C479.78,165.63,479.84,164.66,479,164.55Zm-.68,84.17c-.1,1.68.36,2.81,1.36,3.39C479.83,250.43,479.37,249.3,478.36,248.72Zm0-86.2c-.06,1-.1,1.92.68,2C479.1,163.59,479.16,162.63,478.36,162.51Zm0,116.75c1-.41-.07-.82,0,0ZM475,153c.73,3.57,1.54,7.06,3.39,9.5C477.65,158.94,476.82,155.45,475,153Zm2.72,94.34c-.11.79.15,1.21.67,1.36C478.48,247.93,478.22,247.51,477.69,247.36Zm0,30.54c1-.42-.08-.82,0,0ZM477,245.32c-.06,1-.11,1.92.68,2C477.75,246.4,477.81,245.43,477,245.32Zm0,31.22c1-.42-.07-.82,0,0ZM476.34,244c-.12.79.13,1.21.67,1.36C477.12,244.53,476.87,244.11,476.34,244Zm0,0c0-1,.1-1.92-.69-2C475.59,242.88,475.55,243.86,476.34,244ZM475,271.8c1-.42-.08-.83,0,0Zm-4.07-9.51c1-.42-.07-.82,0,0Zm-.68-2.72v1.36A.69.69,0,0,0,470.22,259.57Zm-2.72-169c.43,1,.82-.07,0,0ZM367.05,512.75c.37-.37-.68-3.39-.68-3.39C365,510.7,367,512.78,367.05,512.75Zm-2,.68c-.35,3.91,3.42.14,0,0Zm-2.72-25.8c1.29-1.28-.8-12.09-.68-12.22C359.94,477.1,362.62,487.31,362.3,487.63Zm-2.72,42.77c-.06-.07-.58,0-.67,0C355.41,530.4,362,532.84,359.58,530.4ZM354.83,529c.19-.18-.35-1.68-.67-1.35S354.52,529.36,354.83,529ZM228.59,497.81c-.13.59.26.65.67.68v-.68Zm-.68-1.35c-.11.79.16,1.21.68,1.35v-1.35ZM204.15,487c.41,1,.82-.07,0,0Zm-24.43-8.14c.41,1,.82-.07,0,0Zm-30.55-39.38c-11.1-25.73-20.61-50.48-31.22-76-8.29-19.93-16.54-38.64-25.8-60.4-2-4.81-5.23-12-7.46-17.64-.13-.33-.83-2.24-1.36-2-2.66,1,3.7,14,3.39,16.29,2,.14-.65,2.82,0,0-2.73-3.37-3.1-9.11-6.11-12.22.37,8.61,7.49,25,11.54,34.62,9,21.31,17.82,41.29,26.47,61.76,4.72,11.16,8.41,22.05,13.57,30.54-.58-1,.36-1.21.68-.68s1.31,3.71,2.72,6.79c.73,1.57,2.78,6.76,3.4,4.75.45-1.48-5.41-13.62-.68-4.07,2.62,5.28,6.63,10.92,9.5,17C149.07,440.75,154.45,451.69,149.17,439.44Zm-14.93-27.83c-2-.14.65-2.82,0,0C138.09,416.19,134.36,418.33,134.24,411.62Zm-7.47-255.89c.46-.45-.32-3.08-.68-2.72S126.42,156.08,126.78,155.73ZM88.77,286c-.74,3.6,2.06.8,0,0Zm0,0c0-5-2.86-2.11,0,0Zm-8.15,1.36c.65-2.81-2-.13,0,0Zm-8.14-29.87c-.65,2.82,2,.14,0,0Zm0,0c.65-2.81-2-.13,0,0Zm-1.36-3.39c-.64,2.82,2,.14,0,0Zm-.68-1.35c-.1.79.16,1.2.68,1.35C71.23,253.36,71,252.94,70.43,252.79Zm-.67-2c-.06,1-.12,1.92.67,2C70.5,251.82,70.55,250.87,69.76,250.74Zm-.68-114c1-.42-.07-.82,0,0Zm0,112.68c-.11.79.16,1.21.68,1.35C69.87,250,69.6,249.55,69.08,249.4Zm-.67-2c-.07,1-.11,1.92.67,2C69.15,248.43,69.19,247.47,68.41,247.36ZM67.71,246c-.1.79.16,1.21.69,1.36C68.51,246.57,68.25,246.16,67.71,246Zm0-114c.19-.18-.35-1.68-.67-1.35S67.41,132.29,67.71,132ZM67,244c-.06,1-.11,1.92.67,2C67.78,245,67.84,244.08,67,244Zm-1.35-3.39c-.11,1.68.35,2.82,1.35,3.39C67.14,242.28,66.7,241.15,65.69,240.57Zm-1.35-3.4c-.11,1.69.35,2.82,1.35,3.4C65.79,238.89,65.33,237.75,64.34,237.17Zm-.68-2c-.06,1-.11,1.92.68,2C64.38,236.21,64.44,235.25,63.66,235.14Zm-1.36-3.39c-.1,1.69.35,2.82,1.36,3.39C63.76,233.45,63.3,232.32,62.29,231.75Zm0,0c.65-2.82-2-.14,0,0Zm-1.35-3.39c-.65,2.82,2,.13,0,0Zm0,0c.64-2.82-2-.14,0,0Z"/><path d="M279.89,329.66V195.46h66c24.55,0,38.23,15.29,38.23,34.2,0,16.9-10.87,28.17-23.34,30.78,14.29,2.21,26,16.5,26,33,0,20.73-13.88,36.22-39,36.22Zm80.08-96c0-10.06-6.84-17.51-18.91-17.51H303.44V251h37.62C353.13,251,360,243.75,360,233.69Zm2.62,56.54c0-10.06-7-18.51-20.52-18.51H303.44v37.22h38.63C354.94,308.94,362.59,301.9,362.59,290.23Z"/><path d="M469,329.66V319.2c-7.24,8.25-18.51,12.88-31.39,12.88-15.89,0-33.8-10.66-33.8-32.19,0-22.33,17.91-31.59,33.8-31.59,13.08,0,24.35,4.23,31.39,12.47V266.28c0-11.27-9.25-18.11-22.74-18.11-10.86,0-20.32,4-28.77,12.27l-8.65-14.69c11.27-10.66,25.35-15.69,40.84-15.69,21.53,0,40.44,9.05,40.44,35.21v64.38Zm0-22.13V292.84c-4.83-6.64-13.88-10.06-23.14-10.06-11.87,0-20.72,6.84-20.72,17.5,0,10.46,8.85,17.3,20.72,17.3C455.15,317.59,464.2,314.17,469,307.53Z"/><path d="M517.52,329.66V232.48h21.13v14.29c7.24-9.26,18.91-14.29,31.59-14.29V251a31.12,31.12,0,0,0-6.64-.6c-8.85,0-20.72,6.23-24.95,13.07v66.2Z"/><path d="M598.27,307.13V251h-16.1V232.48h16.1V205.92H619.4v26.56h19.72V251H619.4v50.9c0,6.64,3.22,11.47,9.25,11.47,4,0,7.85-1.61,9.46-3.42l5,15.89c-3.82,3.62-10.06,6.24-19.92,6.24C606.92,332.08,598.27,323.23,598.27,307.13Z"/><path d="M652.19,281c0-28.17,20.52-50.9,49.3-50.9,29.17,0,47.89,22.33,47.89,52.92v5h-75c1.61,14.69,12.68,26.76,31,26.76,9.46,0,20.72-3.82,27.56-10.66L742.53,318c-9.66,9.26-23.94,14.08-39.43,14.08C673.92,332.08,652.19,311.76,652.19,281Zm49.3-33.6c-18.11,0-26.36,13.88-27.36,25.75h54.73C728.45,261.66,720.6,247.37,701.49,247.37Z"/><path d="M770.3,329.66V232.48h21.12v14.29c7.24-9.26,18.91-16.5,31.59-16.5V251.2a31.12,31.12,0,0,0-6.64-.6c-8.85,0-20.72,6-24.95,12.88v66.2Z"/><path d="M960,329.66v-99.6l-41.25,99.6H908.66l-41-99.6v99.6H844.08V195.46h33.2l36.42,88.33,36.62-88.33h33.2v134.2Z"/><path d="M1005.45,281c0-28.17,20.52-50.9,49.3-50.9,29.17,0,47.89,22.33,47.89,52.92v5h-75c1.61,14.69,12.68,26.76,31,26.76,9.46,0,20.72-3.82,27.56-10.66l9.66,13.88c-9.66,9.26-23.94,14.08-39.43,14.08C1027.18,332.08,1005.45,311.76,1005.45,281Zm49.3-33.6c-18.11,0-26.36,13.88-27.36,25.75h54.73C1081.7,261.66,1073.86,247.37,1054.74,247.37Z"/><path d="M1124.17,318.18a14.11,14.11,0,0,1,13.9-14.11,14,14,0,1,1,0,28A14.06,14.06,0,0,1,1124.17,318.18ZM1129,289l-3.83-93.29H1151L1147.35,289Z"/></svg>