<svg id="Слой_1" data-name="Слой 1" xmlns="http://www.w3.org/2000/svg" viewBox="0 0 52 52">
    <defs>
        <style>.cls-1{fill:#fff;}</style>
    </defs>
    <title>pen</title>
    <path class="cls-1"
          d="M37.83,6A7.16,7.16,0,0,1,41.9,7.79,11.49,11.49,0,0,1,45.39,12a7.12,7.12,0,0,1,.55,1.64A2.81,2.81,0,0,1,45,16.3Q31.65,29.64,18.3,43a2.61,2.61,0,0,0-.36.37c-.95,1.44-2.4,1.69-4,1.83-2,.17-3.93.48-5.89.72l-.26,0c-1.57.15-2-.23-1.77-1.81.33-2.73.67-5.47,1.05-8.2A1.81,1.81,0,0,1,7.64,35Q18.36,24.31,29.09,13.6,32.53,10.17,36,6.72A2.37,2.37,0,0,1,37.83,6Zm-2.15,4.06c-.14.13-.29.25-.42.38Q22.82,22.89,10.38,35.32a1,1,0,0,0-.26,1.21,14.66,14.66,0,0,0,1.32,2.27,8.77,8.77,0,0,0,4,3.07,1.1,1.1,0,0,0,1.28-.28Q29.1,29.16,41.52,16.75c.14-.14.27-.3.41-.46C38.83,14.65,37.88,13.7,35.68,10.07Zm1.85-1.91a6,6,0,0,0,2.1,3.9,6.51,6.51,0,0,0,4.22,2.43C44,12.23,39.81,8,37.52,8.16Zm-24.77,35L8.84,39.22,8.29,43.7Z"/>
</svg>