<?xml version="1.0" encoding="utf-8"?>
<!-- Generator: Adobe Illustrator 21.0.2, SVG Export Plug-In . SVG Version: 6.00 Build 0)  -->
<svg version="1.1" id="Слой_1" xmlns="http://www.w3.org/2000/svg"  x="0px" y="0px"
	 viewBox="0 0 15.4 16.4" style="enable-background:new 0 0 15.4 16.4;" xml:space="preserve">
<style type="text/css">
	.st0{fill:#333551;}
</style>
<title>bell</title>
<path class="st0" d="M13.5,13.6H1.9c-0.6,0-1.2-0.4-1.4-1s0-1.2,0.5-1.6c0.4-0.3,0.8-0.7,1-1.1c0.3-0.7,0.5-1.4,0.6-2.2
	c0.1-1,0.3-2,0.6-3C3.4,3.2,4.4,2,5.8,1.5C6.4,1.3,7,1.2,7.6,1.2s1.2,0.1,1.8,0.3C10.9,2,12,3.2,12.3,4.7c0.2,1,0.4,1.9,0.5,2.9
	c0.1,0.7,0.3,1.5,0.6,2.2c0.2,0.4,0.6,0.8,1,1.1c0.5,0.4,0.7,1,0.5,1.6C14.7,13.2,14.2,13.6,13.5,13.6z M2.4,11.9H13
	c-0.5-0.4-0.8-0.9-1.1-1.4c-0.4-0.8-0.6-1.7-0.8-2.7C11,6.9,10.8,6,10.6,5.1s-0.8-1.7-1.7-2C8.6,3,8.1,2.9,7.7,2.9
	C7.3,2.9,6.8,3,6.4,3.1c-0.9,0.3-1.5,1.1-1.7,2S4.3,6.9,4.2,7.8c-0.1,0.9-0.4,1.8-0.8,2.7C3.2,11,2.9,11.5,2.4,11.9z"/>
<ellipse class="st0" cx="7.7" cy="1.5" rx="1.5" ry="1.1"/>
<path class="st0" d="M7.7,16c-1.8,0-3.3-1.5-3.3-3.3h1.7c0,0.9,0.7,1.6,1.6,1.6s1.6-0.7,1.6-1.6l0,0H11C11,14.5,9.5,16,7.7,16
	L7.7,16z"/>
</svg>
