<?xml version="1.0" encoding="utf-8"?>
<!-- Generator: Adobe Illustrator 21.0.2, SVG Export Plug-In . SVG Version: 6.00 Build 0)  -->
<svg version="1.1" id="Слой_1" xmlns="http://www.w3.org/2000/svg" xmlns:xlink="http://www.w3.org/1999/xlink" x="0px" y="0px"
	 viewBox="0 0 50 50" style="enable-background:new 0 0 50 50;" xml:space="preserve">
<style type="text/css">
	.st0{fill:none;stroke:#AAADBF;stroke-width:2;stroke-miterlimit:10;}
</style>
<title>fav_unpressed</title>
<path class="st0" d="M25,10.2c2.2-2.3,5.1-3.7,8.2-3.9c6.8-0.4,12.6,4.7,13,11.5c0.1,1.5-0.1,2.9-0.5,4.3c-1.3,4.7-4.3,8.5-7.7,11.9
	c-3.5,3.5-7.4,6.6-11.6,9.2C25.2,44,24.1,43.6,23,43c-4.8-2.8-9.2-6.4-12.9-10.6c-1.7-2.1-3.3-4.3-4.6-6.7
	c-1.8-3.2-2.3-6.9-1.3-10.5c1.9-6.5,8.7-10.2,15.1-8.4c1.8,0.5,3.5,1.4,4.9,2.7L25,10.2z"/>
</svg>
