<?xml version="1.0" encoding="utf-8"?>
<!-- Generator: Adobe Illustrator 21.0.2, SVG Export Plug-In . SVG Version: 6.00 Build 0)  -->
<svg version="1.1" id="Слой_1" xmlns="http://www.w3.org/2000/svg"  x="0px" y="0px"
	 viewBox="0 0 24.1 25.7" style="enable-background:new 0 0 24.1 25.7;" xml:space="preserve">
<style type="text/css">
	.st0{fill:#C9C8DA;}
</style>
<title>search_ic</title>
<rect x="-0.1" y="19.7" transform="matrix(0.7071 -0.7071 0.7071 0.7071 -13.1859 9.5544)" class="st0" width="10" height="2"/>
<path class="st0" d="M13.4,20.8c-5.5,0-10-4.5-10-10s4.5-10,10-10c2.7,0,5.2,1.1,7.1,2.9l0,0c3.9,3.9,3.9,10.2,0,14.1
	C18.6,19.7,16.1,20.8,13.4,20.8L13.4,20.8z M13.4,2.8c-4.4,0-8,3.6-8,8s3.6,8,8,8c4.4,0,8-3.6,8-8c0-2.1-0.8-4.2-2.3-5.7
	C17.6,3.6,15.5,2.8,13.4,2.8L13.4,2.8z"/>
</svg>
