<svg id="Слой_1" data-name="Слой 1" xmlns="http://www.w3.org/2000/svg" viewBox="0 0 17.3 18.5"><defs><style>.cls-1{fill:#fff;}</style></defs><title>search-white</title><rect class="cls-1" x="12.61" y="11.22" width="2" height="7.1" transform="translate(-6.46 13.95) rotate(-45)"/><path class="cls-1" d="M7.6,15.1a7,7,0,0,1-5.2-2.2A7.44,7.44,0,0,1,.2,7.7,7.26,7.26,0,0,1,2.4,2.5h0A6.82,6.82,0,0,1,7.6.2h0a7.26,7.26,0,0,1,5.2,2.2,7.42,7.42,0,0,1,0,10.5A7,7,0,0,1,7.6,15.1ZM3.1,3.1l.7.7a5.44,5.44,0,0,0,7.7,7.7A5.45,5.45,0,0,0,7.7,2.2h0A5.46,5.46,0,0,0,3.9,3.8Z"/></svg>