<?xml version="1.0" encoding="utf-8"?>
<!-- Generator: Adobe Illustrator 21.0.2, SVG Export Plug-In . SVG Version: 6.00 Build 0)  -->
<svg xmlns:xlink="http://www.w3.org/1999/xlink" version="1.1" id="Слой_1" xmlns="http://www.w3.org/2000/svg" x="0px" y="0px"
	 viewBox="0 0 626 740" style="enable-background:new 0 0 626 740;" xml:space="preserve">
<style type="text/css">
	.st0{clip-path:url(#SVGID_2_);}
	.st1{opacity:0.2;fill:#BBD1CF;enable-background:new    ;}
	.st2{fill:#473098;}
	.st3{fill:#604EB4;}
	.st4{fill:#FFFFFF;}
	.st5{fill:#422B93;}
	.st6{fill:#91C8FF;}
	.st7{fill:#C6606E;}
	.st8{fill:#EAEA34;}
	.st9{fill:#4D934A;}
	.st10{fill:#F7DA92;}
	.st11{fill:#FDB175;}
	.st12{fill:#FF3C5C;}
	.st13{fill:#63AEFF;}
	.st14{opacity:0.2;}
	.st15{fill:#3E3083;}
	.st16{fill:#3F336A;}
	.st17{fill:#F5997F;}
	.st18{fill:#463888;}
	.st19{fill:#FFB78D;}
	.st20{fill:#D8D8E5;}
	.st21{fill:none;}
	.st22{fill:#816FD3;}
	.st23{fill:#7167B7;}
	.st24{fill:#625E9E;}
	.st25{fill:#514199;}
	.st26{fill:#342C77;}
	.st27{fill:#F8F9FF;}
	.st28{opacity:0.2;fill:#35277C;enable-background:new    ;}
	.st29{fill:#FFE997;}
	.st30{fill:#463887;}
	.st31{fill:#635C93;}
	.st32{fill:#F59980;}
	.st33{fill:#E2DED9;}
	.st34{fill:#958CB5;}
	.st35{fill:#F5987F;}
</style>
<title>top-ill-formob</title>
<g id="мой">
	<g>
		<defs>
			<rect id="SVGID_1_" x="-985.9" y="-2.9" width="1879" height="743"/>
		</defs>
		<clipPath id="SVGID_2_">
			<use xlink:href="#SVGID_1_"  style="overflow:visible;"/>
		</clipPath>
		<g class="st0">
			<path class="st1" d="M-850.9-21.9c0,0-28,281,216,360.5s676.2-178.5,1042-180.2c312.1-1.5,416,53.9,540,393.8
				s-81.4,241.9-81.4,241.9l-1880.6-8v-830L-850.9-21.9z"/>
		</g>
	</g>
	<path class="st2" d="M-59.4,737.1h-3v-44.7c0-14.6,11.9-26.5,26.5-26.5h442c13,0,23.5-10.5,23.5-23.4c0,0,0,0,0-0.1V400.8
		c0-13-10.5-23.5-23.4-23.5c0,0,0,0-0.1,0H266.3v-70.8c0-14.6,11.9-26.5,26.5-26.5h150.3v3H292.8c-13,0-23.5,10.5-23.5,23.4
		c0,0,0,0,0,0.1v67.8h136.8c14.6,0,26.5,11.9,26.5,26.5v241.7c0,14.6-11.9,26.5-26.5,26.5h-442c-13,0-23.5,10.5-23.5,23.4
		c0,0,0,0,0,0.1L-59.4,737.1z"/>
	<path class="st3" d="M380.9,329.4H185.2c-4.4,0-8,3.6-8,8v78.7c0,4.4,3.6,8,8,8h5.2c0.2,0.1,0.3,0.3,0.5,0.4
		c1.3,1.1,2.2,2.6,2.7,4.3c0.1,0.5,0.2,0.9,0.2,1.4v0.8c0,0.3,0,0.5-0.1,0.8c-0.1,0.6-0.2,1.1-0.3,1.7s-0.4,1.1-0.6,1.7
		c-0.1,0.3-0.2,0.6-0.4,0.9l-0.5,0.8c-0.3,0.6-0.7,1.2-1.1,1.7c-0.8,1.1-1.8,2.1-2.7,3.2c1.5,0.2,2.9,0.4,4.4,0.4
		c0.8,0,1.5,0,2.3-0.1l1.2-0.1c0.4,0,0.8-0.1,1.2-0.2c0.8-0.2,1.6-0.4,2.5-0.6c0.9-0.3,1.7-0.6,2.5-1c0.4-0.2,0.9-0.4,1.3-0.6
		l1.2-0.7c0.9-0.5,1.7-1.1,2.4-1.7c3.3-2.7,5.9-6.2,7.5-10.2c0.4-0.9,0.8-1.9,1.1-2.9h165c4.4,0,8-3.6,8-8v-78.7
		c0.1-4.3-3.3-7.9-7.6-8C381,329.4,380.9,329.4,380.9,329.4z"/>
	<rect x="198.2" y="343.3" class="st4" width="14.3" height="5"/>
	<rect x="198.2" y="359.3" class="st4" width="151.3" height="5"/>
	<rect x="198.2" y="373.3" class="st4" width="128.3" height="5"/>
	<rect x="198.2" y="386.3" class="st4" width="109.3" height="5"/>
	<rect x="198.2" y="405.3" class="st4" width="14.3" height="5"/>
	<rect x="352.2" y="405.3" class="st4" width="14.3" height="5"/>
	<rect x="223.2" y="343.3" class="st4" width="14.3" height="5"/>
	<path class="st5" d="M570.2,510.6H374.5c-4.4,0-8,3.6-8,8v78.7c0,4.4,3.6,8,8,8h165c0.3,1,0.7,1.9,1.1,2.9
		c1.7,3.9,4.3,7.4,7.5,10.2c0.8,0.6,1.6,1.2,2.4,1.7l1.2,0.7c0.4,0.2,0.8,0.4,1.3,0.6c0.8,0.4,1.6,0.7,2.5,1
		c0.8,0.2,1.7,0.4,2.5,0.6c0.4,0.1,0.8,0.2,1.2,0.2l1.2,0.1c0.8,0.1,1.5,0.1,2.3,0.1c1.5-0.1,3-0.2,4.4-0.4c-1-1-1.9-2.1-2.7-3.2
		c-0.4-0.6-0.7-1.2-1.1-1.7l-0.5-0.8c-0.1-0.3-0.3-0.6-0.4-0.9c-0.2-0.6-0.4-1.1-0.6-1.7s-0.2-1.1-0.3-1.7c0-0.3-0.1-0.5-0.1-0.8
		v-0.8c0-0.5,0.1-0.9,0.2-1.4c0.4-1.7,1.4-3.2,2.7-4.3c0.1-0.2,0.3-0.3,0.5-0.4h5.2c4.4,0,8-3.6,8-8v-78.7c0.1-4.3-3.2-7.8-7.5-8
		C570.4,510.6,570.3,510.6,570.2,510.6z"/>
	<rect x="384.9" y="540.4" class="st4" width="151.3" height="5"/>
	<rect x="384.9" y="554.4" class="st4" width="128.3" height="5"/>
	<rect x="384.9" y="567.4" class="st4" width="109.3" height="5"/>
	<rect x="539.9" y="586.4" class="st4" width="14.3" height="5"/>
	<rect x="384.9" y="586.4" class="st4" width="14.3" height="5"/>
	<rect x="384.9" y="524.4" class="st4" width="14.3" height="5"/>
	<path class="st4" d="M27.1,649.9h39.3c1.7,0,3,1.3,3,3v28.8c0,1.7-1.3,3-3,3H27.1c-1.7,0-3-1.3-3-3v-28.8
		C24.1,651.2,25.4,649.9,27.1,649.9z"/>
	<path class="st6" d="M69.4,654.9v-2c0-1.7-1.3-3-3-3H27.1c-1.7,0-3,1.3-3,3v2H69.4z"/>
	<rect x="28.6" y="659.4" class="st6" width="12.7" height="19.2"/>
	<rect x="47.6" y="659.4" class="st6" width="15.8" height="2"/>
	<rect x="47.6" y="676.5" class="st6" width="15.8" height="2"/>
	<rect x="47.6" y="672.5" class="st6" width="12.8" height="2"/>
	<rect x="47.6" y="663.5" class="st6" width="4.8" height="2"/>
	<circle class="st7" cx="27.8" cy="652.4" r="0.9"/>
	<circle class="st8" cx="30.8" cy="652.4" r="0.9"/>
	<circle class="st9" cx="33.8" cy="652.4" r="0.9"/>
	<rect x="347.6" y="660.4" class="st10" width="41.8" height="25.2"/>
	<polygon class="st11" points="367.5,677.9 349.8,662.7 351.1,661.2 367.7,675.3 385.5,662.9 386.7,664.6 	"/>
	
		<rect x="346.3" y="678.4" transform="matrix(0.7071 -0.7071 0.7071 0.7071 -376.7772 449.1098)" class="st11" width="14.8" height="2"/>
	
		<rect x="382.9" y="671.4" transform="matrix(0.761 -0.6488 0.6488 0.761 -348.3899 411.2268)" class="st11" width="2" height="14.1"/>
	<circle class="st12" cx="388.4" cy="660.4" r="7.2"/>
	<polygon class="st4" points="387.4,664 386.5,663.5 389.4,658.3 385.9,658.3 385.9,657.3 391.1,657.3 	"/>
	<ellipse class="st4" cx="121.8" cy="571.6" rx="16.3" ry="14"/>
	<polygon class="st4" points="127.2,581.3 127.3,592.9 118.9,584.9 	"/>
	<path class="st12" d="M128.3,570.5c0,0.6-0.1,1.2-0.2,1.8c-0.2,0.7-0.5,1.4-1,2c-0.4,0.4-0.8,0.8-1.2,1.2c-0.6,0.5-1.2,1.1-1.8,1.6
		c-1,0.8-2,1.7-2.9,2.6h-0.1c-1-1-2-1.9-3.1-2.8c-0.6-0.5-1.2-1-1.8-1.6c-0.4-0.4-0.8-0.8-1.1-1.2c-0.5-0.6-0.8-1.3-1-2
		c-0.1-0.3-0.1-0.7-0.2-1v-1c0-1.6,1.1-3,2.7-3.4c1.1-0.3,2.3-0.1,3.3,0.6c0.5,0.3,0.9,0.8,1.2,1.3h0.1c0.4-0.5,0.8-1,1.3-1.4
		c0.5-0.3,1-0.6,1.6-0.6c1-0.2,2,0.1,2.8,0.8c0.6,0.5,1,1.2,1.2,1.9C128.3,569.7,128.3,570.1,128.3,570.5z"/>
	<path class="st13" d="M430,433.8l4.4,5.6c0.3,0.4,0.2,1.1-0.2,1.4c-0.1,0.1-0.2,0.1-0.3,0.2c-2,0.3-3.6,2-3.8,4
		c-0.5,4.5,0.7,8.4,6.1,9.4c3,0.6,4.5-0.7,5.2-1.8c0.3-0.5,0.9-0.6,1.4-0.3c0,0,0,0,0,0c0.1,0.1,0.3,0.2,0.3,0.3l3.9,6
		c0.3,0.5,0.2,1.1-0.3,1.4c0,0,0,0,0,0c-2.2,1.5-8.6,5.1-15.8,1.7c-8.7-4.2-15.8-19.7-2.1-27.9c0.2-0.3,0.6-0.4,1-0.2
		C429.9,433.6,429.9,433.7,430,433.8z"/>
	<ellipse class="st4" cx="505.5" cy="334.6" rx="15.9" ry="14.6"/>
	<polygon class="st4" points="512.6,344.7 513.1,355.7 505.3,348 	"/>
	<path class="st12" d="M510,341.3l-1.9-0.7c3-7.8-0.4-12.5-0.6-12.6l1.6-1.2C509.3,327,513.4,332.4,510,341.3z"/>
	<circle class="st12" cx="502" cy="329.4" r="1.3"/>
	<circle class="st12" cx="502" cy="338.6" r="1.3"/>
	<g class="st14">
		<path class="st15" d="M305.8,329.7c-0.3-0.8,0.4,0.5-0.1-0.3c-9.1-0.3-16.1,2.5-23.7,2.8c0.2,11.9-4.4,25-11.3,35.5
			c0.2,5.3,0.5,12.5,1,18.3c-1.7,0.2-3.2,1.3-3.9,2.9c-0.5,1.1-0.8,2.3-0.1,3c1.6,1.6,0.2,5.5,0.2,5.5s-1.7,10.4,1.1,11.8
			c0.8,0.4,1.8-0.7,2.9-2.5c0.1,1,0.6,1.9,1.4,2.5c2.9,1.4,9.1-16.9,8.7-19.1c-0.1-0.8-0.4-1.5-0.7-2.2c4.1-6.5,9.6-17.1,12.4-22.3
			h1.7c1.6,0,3.1-1,3.7-2.5C301.9,356.2,308.4,338,305.8,329.7z"/>
	</g>
	<path class="st16" d="M271.7,381.7c0,0-3.9,4.8-2.2,6.4s0.2,5.5,0.2,5.5s-1.7,10.4,1.1,11.8s9.1-16.9,8.7-19.1
		c-0.2-1.3-0.7-2.4-1.4-3.5L271.7,381.7z"/>
	<path class="st17" d="M279.7,355.4c0,0-8.3,34-5.4,34.1s16.7-27.7,18.6-30.7S279.7,355.4,279.7,355.4z"/>
	<path class="st18" d="M270.7,382.2c-2.3-0.4-4.5,0.8-5.4,2.9c-0.5,1.1-0.8,2.3-0.1,3c1.6,1.6,0.2,5.5,0.2,5.5s-1.7,10.4,1.1,11.8
		s9.1-16.9,8.7-19.1c-0.2-1.3-0.7-2.4-1.4-3.5L270.7,382.2z"/>
	<path class="st19" d="M267.9,356.9c0,0,0.6,35,3.4,34.4s9.1-31,10.3-34.4S267.9,356.9,267.9,356.9z"/>
	<path class="st10" d="M229.8,306.7v11.1c0,5.4,2.9,10.5,7.7,13.1l18.9,10.4c2.5,1.4,4.1,4.1,4.1,7v7.5c0,2,1.5,3.7,3.5,4l14.3,1.8
		c0.3,0,0.6,0.1,0.9,0.1h13.9c1.6,0,3.1-1,3.7-2.5c2.6-6.7,9.1-24.9,6.5-33.2c-3.3-10.3-27.3-19.3-27.3-19.3H229.8z"/>
	<path class="st4" d="M276.3,258.3v17.9h14.8l-2-18.9c-1.5,1.5-3.5,2.3-5.6,2.3C281,259.5,278.6,259.1,276.3,258.3z"/>
	<rect x="277.1" y="265.4" class="st20" width="12.9" height="1"/>
	<circle class="st20" cx="280.6" cy="263.2" r="0.7"/>
	<path class="st19" d="M276.9,215.3l-16.3-2.8l-8.3,6.3l3.4,7.6l-5,2.9l-1.2,8.2l1.7,7.6l8.2,8.8h3.7l2.3-7.8l0.9-5.9
		c1.8,0.5,3.6,0.6,5.4,0.3C282.2,238.3,276.9,215.3,276.9,215.3z"/>
	<polygon class="st4" points="248.6,254.1 251,276.2 273.8,277.7 267.9,251.7 	"/>
	<path class="st20" d="M274.4,278.2l-23.8-1.6l-2.5-23l20.2-2.6L274.4,278.2z M251.5,275.7l21.6,1.4l-5.6-24.9l-18.3,2.3
		L251.5,275.7z"/>
	<line class="st21" x1="260.8" y1="252.4" x2="262.4" y2="276.9"/>
	
		<rect x="261" y="252.3" transform="matrix(0.9978 -6.609975e-02 6.609975e-02 0.9978 -16.9182 17.8669)" class="st20" width="1" height="24.6"/>
	<path class="st4" d="M247.1,253l9.7,7.7c0.4,0.3,1.1,0.2,1.4-0.2c0.1-0.2,0.2-0.4,0.2-0.6V253c0-0.3-0.1-0.5-0.3-0.7l-7.6-7.6
		c-0.4-0.4-1-0.4-1.4,0c-0.1,0.1-0.2,0.2-0.2,0.4l-2.2,6.8C246.6,252.3,246.7,252.7,247.1,253z"/>
	<path class="st20" d="M257.4,261.4c-0.3,0-0.6-0.1-0.9-0.3l-9.7-7.7c-0.5-0.4-0.7-1-0.5-1.6l2.2-6.8c0.3-0.8,1.1-1.2,1.9-1
		c0.2,0.1,0.4,0.2,0.6,0.4l7.6,7.6c0.3,0.3,0.4,0.7,0.4,1.1v6.9c0,0.6-0.3,1.1-0.8,1.4H257.4z M249.9,245h-0.1
		c-0.2,0-0.3,0.2-0.4,0.3l-2.2,6.8c-0.1,0.2,0,0.4,0.2,0.5c0,0,0,0,0,0l9.7,7.7c0.2,0.2,0.5,0.1,0.7-0.1c0,0,0,0,0,0
		c0.1-0.1,0.1-0.2,0.1-0.3V253c0-0.2-0.1-0.3-0.2-0.4l-7.6-7.6H249.9z"/>
	<path class="st22" d="M265.2,253.8l2.1-8.5l1.8,0.4c5.5,2.4,9.1,7.8,9.1,13.8v50.1l-11.8-2.8L265.2,253.8z"/>
	<path class="st23" d="M235.5,251.2l11.7-3.1l4.3,9.6c1.8,3.9,2.7,8.1,2.7,12.4v41.7h-11.6c-4.5,0-9-1.6-12.5-4.4l-2.2-1.8
		L235.5,251.2z"/>
	<path class="st24" d="M248.4,276.7h-9.6v-11h9.6V276.7z M239.9,275.7h7.6v-9h-7.6V275.7z"/>
	<rect x="239" y="268.6" class="st24" width="9" height="1"/>
	<circle class="st24" cx="243.6" cy="272.4" r="0.6"/>
	<path class="st4" d="M257.1,295.7l-19.1-9.6c-3.1-1.6-4.8-4.9-4.3-8.3l4.4-29.3l-3-2.5l-6,1.9c-5.4,1.7-9.3,6.3-10.2,11.9l-1.5,9.3
		c-0.7,4.2-0.5,8.5,0.7,12.6l0,0c2.4,8.8,8.9,16,17.4,19.2l19.9,7.6L257.1,295.7z"/>
	<path class="st3" d="M250.7,315.7l-8.3-6.8v-3.2h12.8v7.5c0,1.7-1.3,3-3,3l0,0C251.6,316.2,251.1,316,250.7,315.7z"/>
	<path class="st25" d="M252.1,316.7c-0.7,0-1.3-0.2-1.8-0.6l-8.5-7v-3.9h13.8v8C255.6,315.1,254,316.7,252.1,316.7
		C252.1,316.7,252.1,316.7,252.1,316.7z M242.8,308.6l8.2,6.7c0.3,0.3,0.8,0.4,1.2,0.4c1.4,0,2.5-1.1,2.5-2.5c0,0,0,0,0,0v-7h-11.8
		L242.8,308.6z"/>
	<path class="st3" d="M252.4,274h50.5c1.7,0,3,1.3,3,3v36.2c0,1.7-1.3,3-3,3h-50.5c-1.7,0-3-1.3-3-3V277
		C249.4,275.3,250.7,274,252.4,274L252.4,274z"/>
	<path class="st25" d="M302.9,316.7h-50.5c-1.9,0-3.5-1.6-3.5-3.5V277c0-1.9,1.6-3.5,3.5-3.5h50.5c1.9,0,3.5,1.6,3.5,3.5v36.2
		C306.3,315.1,304.8,316.7,302.9,316.7z M252.4,274.5c-1.4,0-2.5,1.1-2.5,2.5c0,0,0,0,0,0v36.2c0,1.4,1.1,2.5,2.5,2.5c0,0,0,0,0,0
		h50.5c1.4,0,2.5-1.1,2.5-2.5c0,0,0,0,0,0V277c0-1.4-1.1-2.5-2.5-2.5c0,0,0,0,0,0H252.4z"/>
	<line class="st21" x1="242.3" y1="305.7" x2="249.4" y2="311.3"/>
	<rect x="245.3" y="304" transform="matrix(0.6209 -0.7839 0.7839 0.6209 -148.6644 309.6605)" class="st25" width="1" height="9"/>
	<circle class="st3" cx="277.6" cy="295.1" r="3.8"/>
	<path class="st25" d="M277.6,299.5c-2.4,0-4.3-1.9-4.3-4.3s1.9-4.3,4.3-4.3s4.3,1.9,4.3,4.3v0l0,0
		C281.8,297.6,279.9,299.5,277.6,299.5z M277.6,291.8c-1.8,0-3.3,1.5-3.3,3.3s1.5,3.3,3.3,3.3s3.3-1.5,3.3-3.3v0l0,0
		C280.8,293.3,279.4,291.8,277.6,291.8z"/>
	<ellipse class="st26" cx="270" cy="209.1" rx="13.4" ry="9.8"/>
	<circle class="st26" cx="256.9" cy="203.8" r="11.4"/>
	<ellipse class="st26" cx="247.9" cy="218.8" rx="11.3" ry="15"/>
	<ellipse class="st26" cx="241.2" cy="239.1" rx="10.5" ry="14.8"/>
	<ellipse class="st26" cx="241.2" cy="245.3" rx="6.8" ry="11.5"/>
	<ellipse class="st26" cx="250.5" cy="234.7" rx="8.6" ry="12.4"/>
	<polygon class="st20" points="233.1,286.4 232.1,286.2 232.8,283.2 230.4,283.7 230.2,282.7 234.1,281.9 	"/>
	<path class="st4" d="M262.8,251.4l2.7,5.4c0.2,0.5,0.8,0.7,1.3,0.5c0.2-0.1,0.4-0.3,0.5-0.5l3.4-7.8c0.1-0.3,0.1-0.7-0.1-1
		l-3.3-4.1c-0.4-0.4-0.9-0.5-1.4-0.2c-0.1,0.1-0.2,0.2-0.3,0.4l-2.8,6.5C262.6,250.8,262.6,251.2,262.8,251.4z"/>
	<path class="st20" d="M266.4,257.8c-0.6,0-1.1-0.3-1.3-0.8l-2.7-5.4c-0.2-0.4-0.2-0.9,0-1.3l2.8-6.5c0.3-0.8,1.2-1.1,2-0.8
		c0,0,0,0,0,0c0.2,0.1,0.4,0.2,0.6,0.4l3.3,4.1c0.4,0.5,0.4,1.1,0.2,1.6l-3.4,7.8C267.5,257.4,267,257.8,266.4,257.8z M266.4,244
		L266.4,244c-0.2,0-0.4,0.1-0.5,0.3l-2.8,6.5c-0.1,0.1-0.1,0.3,0,0.4l0,0l2.7,5.4c0.1,0.2,0.3,0.3,0.5,0.3c0.2,0,0.4-0.1,0.4-0.3
		l3.4-7.8c0.1-0.2,0-0.4-0.1-0.5l-3.3-4.1C266.7,244,266.6,244,266.4,244L266.4,244z"/>
	<path class="st19" d="M282.5,251.8c0,0,3.9-2.5,5.7-3.5s5.6-6.5,7.5-4.7s-1.2,3.7-1.5,4.8s0.2,3.8-1.6,5.6s-4.3,6.5-8.2,6.9
		s-6.6-0.8-7.4-3.5s-0.5-5.1,0.7-6.4c0,0,2-6.1,3.7-5.5S281.9,249.9,282.5,251.8z"/>
	<polygon class="st11" points="264.4,345 258.4,342.3 264.2,337.1 264.9,337.8 260.2,342 264.8,344.1 	"/>
	
		<rect x="259.2" y="341.2" transform="matrix(0.9877 -0.1561 0.1561 0.9877 -50.1085 45.2423)" class="st11" width="7.6" height="1"/>
	<path class="st11" d="M281.7,323.3c-2.6-0.3-5.2-0.5-7.8-0.6l-0.2-1c0.5-0.1,5.3,0.3,8.2,0.6L281.7,323.3z"/>
	
		<rect x="231.5" y="310.8" transform="matrix(0.6445 -0.7646 0.7646 0.6445 -157.0505 288.7713)" class="st11" width="1" height="4.9"/>
	
		<rect x="297.2" y="331.4" transform="matrix(0.7368 -0.6761 0.6761 0.7368 -145.2886 290.666)" class="st11" width="6.9" height="1"/>
	<rect x="293.2" y="322.4" transform="matrix(0.974 -0.2265 0.2265 0.974 -65.4232 75.5421)" class="st11" width="6.7" height="1"/>
	<path class="st19" d="M212.9,650.9h9.8v-6c3.2-0.7,6-2.9,7.4-5.9c2.7-6-1.5-20.8-1.5-20.8s-22.1,11.5-21.4,12.3
		S212.9,650.9,212.9,650.9z"/>
	<rect x="242.2" y="548.5" transform="matrix(0.6 -0.8 0.8 0.6 -346.9615 434.8736)" class="st6" width="38.4" height="31.8"/>
	
		<ellipse transform="matrix(0.6046 -0.7965 0.7965 0.6046 -333.9928 425.4127)" class="st27" cx="261.5" cy="549.1" rx="2.4" ry="2.4"/>
	
		<rect x="270.2" y="549.6" transform="matrix(0.6046 -0.7965 0.7965 0.6046 -336.091 436.0573)" class="st27" width="2" height="14"/>
	
		<rect x="249.1" y="564.8" transform="matrix(0.6046 -0.7965 0.7965 0.6046 -356.5197 425.314)" class="st27" width="2" height="14"/>
	
		<rect x="261.2" y="551.4" transform="matrix(0.6046 -0.7965 0.7965 0.6046 -344.3003 431.2234)" class="st27" width="2" height="22"/>
	
		<rect x="256.9" y="555.7" transform="matrix(0.6046 -0.7965 0.7965 0.6046 -347.4288 428.4794)" class="st27" width="2" height="17"/>
	
		<rect x="251.2" y="560.2" transform="matrix(0.6045 -0.7966 0.7966 0.6045 -350.1431 424.2491)" class="st27" width="2" height="9"/>
	
		<rect x="265.4" y="553.9" transform="matrix(0.6046 -0.7965 0.7965 0.6046 -339.0683 432.7909)" class="st27" width="2" height="8"/>
	<path class="st19" d="M254.1,653.8l15.2-18.5c0.4-0.4,0.6-1,0.7-1.6l4.8-43.7c0.1-0.5,0.3-1,0.6-1.4l3-4.2c1.5-2,1.9-4.6,1.2-7
		l-2.4-7.7l-5.4,7.3c-0.7,0.9-1.9,1.1-2.8,0.4c-0.3-0.2-0.5-0.4-0.6-0.7c-0.6-1.2-1-2.4-1.4-3.7c-0.4-1.3-2.7,0.3-2.8,1.7l0.3,10.1
		c0,0.7,0.2,1.4,0.6,2l1.4,1.9c0.6,0.8,0.8,1.8,0.5,2.7l-12.6,40.7c-0.2,0.6-0.5,1.1-1,1.4l-9.3,7.6L254.1,653.8z"/>
	<path class="st4" d="M198.1,663.9l-26.6,36.7c-0.6,0.8-0.5,2,0.4,2.7c0,0,0,0,0,0l15.5,12.3l-0.3,25.3c0,0,50.3,2,50.5,0
		s4.6-55.3,5.2-62.9c0-0.6,0.3-1.1,0.6-1.6l16.8-21.8c0.6-0.8,0.5-2-0.3-2.7L246,639.5c-0.7-0.6-1.7-0.7-2.5-0.1l-15.6,11.4
		c-0.9,0.7-2.2,0.8-3.2,0.2l-8.8-0.2l-6.3-1.2L198.1,663.9z"/>
	
		<rect x="184.7" y="707.7" transform="matrix(0.5709 -0.821 0.821 0.5709 -498.7696 462.1416)" class="st20" width="16" height="1"/>
	<rect x="194.1" y="695.7" class="st20" width="3.1" height="1"/>
	
		<rect x="191.7" y="699.5" transform="matrix(0.8719 -0.4897 0.4897 0.8719 -317.849 184.971)" class="st20" width="5.9" height="1"/>
	
		<rect x="226.5" y="708.6" transform="matrix(0.6247 -0.7809 0.7809 0.6247 -465.9782 448.618)" class="st20" width="14.4" height="1"/>
	
		<rect x="194.3" y="719.1" transform="matrix(0.8869 -0.4619 0.4619 0.8869 -310.8951 171.49)" class="st20" width="1" height="3.4"/>
	<path class="st20" d="M237.1,657.2h-1c0.2-1.7-0.3-3.3-1.5-4.5c-2-1.7-5.2-1.2-5.3-1.2l-0.2-1c0.2,0,3.8-0.6,6.1,1.4
		C236.6,653.3,237.3,655.2,237.1,657.2z"/>
	<path class="st20" d="M230.7,655.2c-0.6-1.2-1.8-2-3.2-2.1v-1c1.7,0.1,3.2,1.1,4.1,2.6L230.7,655.2z"/>
	<polygon class="st20" points="241.9,675.7 239.6,671.4 240.5,671 242.8,675.2 	"/>
	
		<rect x="242.1" y="668.4" transform="matrix(0.9079 -0.4191 0.4191 0.9079 -258.1925 163.3267)" class="st20" width="1" height="1.8"/>
	<path class="st10" d="M213.1,602.4c-1.1,0-5.3-6.2-12.3-3.7c-17,6-23.3,35-27.3,41.7s-16.3,9.7-14.3,21s4.3,10,7.3,11.7
		s4.7,10,11,10.7s11.3-6,15-5.7s7,2.3,11.7,1c4.5-1.3,8.4-15.1,9-25.9c0-0.7,0.3-1.3,0.9-1.6c1.1-0.6,3-2.9,5.4-10.6
		c2.1-6.8,1.8-10.1,1.1-11.6c-0.3-0.9,0-1.8,0.7-2.4c3.2-2.2,9.4-7.2,7.2-13.2C225.4,605.8,221.4,602.1,213.1,602.4z"/>
	<path class="st19" d="M177.7,705.4l-6.6,9c-1,1.3-2.8,1.6-4.1,0.7l-31.1-20.4c-0.2-0.1-0.3-0.3-0.4-0.5l-3.5-8.7
		c-0.2-0.6-0.6-1.1-1-1.6c-1.7-1.8-5.9-6.3-7-4.3c-1.4,2.5,4.8,9.4,4.8,9.4s-7.7-4-8.8-6.3c-1.9-3.6,0.4-6.8-1.9-7.4
		s-2.4,5.8-2.4,5.8s-2.3-4.1-3.6-2.7c-0.9,1,1.6,8,1.6,8s-2-1.1-2.6,0.3s4.6,7.3,7.5,9.3s11.6,4,13,3.9c1.2,0,27.2,23.1,35.7,30.7
		c1.5,1.3,3.8,1.3,5.3,0l17.5-15.4L177.7,705.4z"/>
	<path class="st28" d="M483.4,510.7c-6.6-0.1-13.2-1.3-19.4-3.5l-10.9,7.3l2.1,3.8l-2-3.6c-0.5-1-1.7-1.3-2.7-0.8
		c-0.1,0-0.1,0-0.1,0.1l-4.9,3.3c-0.8,0.5-1.1,1.4-0.8,2.3l-1.4,0.7c-0.3,0.1-0.6,0.1-0.9,0l-1.1-0.5l0,0l-0.9-0.4l-5.1-2.5l0,0
		l-0.9-0.4l-4.6-2.3c-0.8-0.4-1.7-0.2-2.3,0.3l-3.7,3.5l-0.1-0.1l-1.3,1.5l23.3,21l0.7-0.7l5.8-5.8c0.5,0.8,1.5,1.1,2.4,0.7l5.8-2.5
		c0.9-0.4,1.4-1.4,1.1-2.3l0.2,0.4l29.2-19.5H483.4L483.4,510.7z"/>
	<path class="st28" d="M578.7,518.9v-0.6h-1.3c-13-0.1-25.6-4-36.3-11.3c-3.6-0.9-7-2.3-10.3-4c-8.1,4-9.3,8.7-25.9,7.6l18.3,7.9
		l-24.5,17.7c-1.9,1.3-3.1,3.4-3.3,5.7c-1,10.7-3.9,41.6-2.3,47c-0.8,0.4-1.3,1.2-1.3,2.1l0.6,5.3c0.1,1,1,1.8,2,1.8v1.7
		c0,0.3-0.2,0.6-0.4,0.8l-1,0.7l0,0l-0.8,0.6l-4.6,3.4l0,0l-0.8,0.6l-2.3,1.7c5.1-1.4,10.3-2.2,15.6-2.3c1.5,0,2.9-0.1,4.4,0
		c1.5-0.1,3,0,4.5,0s2.8-0.1,4.2,0l-2.8-7.9c0.9-0.2,1.5-1,1.4-1.9V589c0-1.1-0.9-2-2-2h-0.2l-0.7,0.1L511,554
		c0.1-1.2,0.9-2.2,2-2.6l58.6-21.5c0.8,1.7,1.6,2.9,2.2,3.1c1.6,0.5,3.4,0.3,4.8-0.7c-0.3-3.1-0.3-6.3,0-9.4
		C578.3,521.4,578.8,520.4,578.7,518.9z"/>
	<path class="st29" d="M441.7,514.1l-2.5,1.3c-0.3,0.1-0.6,0.1-0.9,0l-12.5-6.2c-0.8-0.4-1.7-0.2-2.3,0.3l-4.4,4.2l23.3,21l7.4-7.5
		L441.7,514.1z"/>
	
		<rect x="429.7" y="508.6" transform="matrix(0.6684 -0.7438 0.7438 0.6684 -247.1077 494.2743)" class="st5" width="2" height="31.4"/>
	<path class="st5" d="M444.5,525.9c-3.6,0-7.1-1.4-9.8-3.8c-2.8-2.5-6.6-3.5-10.2-2.7l-0.5-1.9c4.3-1,8.8,0.2,12.1,3.2
		c4.7,4.3,10.6,3.3,11.3,2.8l1.1,1.7C447.2,525.7,445.8,525.9,444.5,525.9z"/>
	
		<rect x="428.5" y="511.5" transform="matrix(0.4366 -0.8996 0.8996 0.4366 -218.9889 675.2878)" class="st5" width="2.3" height="2"/>
	
		<rect x="431.6" y="513.2" transform="matrix(0.4639 -0.8859 0.8859 0.4639 -223.5078 659.1136)" class="st5" width="2.5" height="2"/>
	
		<rect x="434.6" y="514.6" transform="matrix(0.4296 -0.903 0.903 0.4296 -217.0093 687.6823)" class="st5" width="2.4" height="2"/>
	<path class="st3" d="M525.9,516.7L494.3,502c-1-0.5-2.1-0.4-3,0.2l-33.6,22.9l-8.7-15.6l36.3-24.4l56.8,8.1L525.9,516.7z"/>
	<path class="st30" d="M449.2,509.8l8.2,14.5c0.5,1,0.2,2.2-0.8,2.7c-0.1,0-0.1,0.1-0.2,0.1l-5.8,2.5c-1,0.4-2.1,0-2.6-0.9
		l-7.4-13.7c-0.5-0.9-0.2-2,0.7-2.6l4.9-3.3c0.9-0.6,2.2-0.4,2.8,0.6c0,0,0,0,0,0C449.1,509.7,449.1,509.8,449.2,509.8z"/>
	<rect x="489.3" y="497" transform="matrix(0.1466 -0.9892 0.9892 0.1466 -71.6903 911.942)" class="st30" width="6.8" height="1"/>
	
		<rect x="489.8" y="496.2" transform="matrix(0.8742 -0.4856 0.4856 0.8742 -180.4994 300.797)" class="st30" width="1" height="5.1"/>
	<path class="st29" d="M490.3,592v2.8c0,0.3-0.2,0.6-0.4,0.8l-11.3,8.2c-0.7,0.5-1,1.4-0.8,2.2l1.6,5.8l29.4-10.9l-3.2-10L490.3,592
		z"/>
	
		<rect x="478.5" y="605.3" transform="matrix(0.9376 -0.3478 0.3478 0.9376 -179.9838 209.7047)" class="st5" width="31.4" height="2"/>
	<path class="st5" d="M486.9,609.6l-1.9-0.5c1.1-4.2,4.3-7.7,8.4-9.2c6-2.2,7.9-7.9,7.8-8.7l2-0.2c0.2,1.8-2.1,8.3-9.1,10.8
		C490.5,603.1,487.9,606,486.9,609.6z"/>
	<path class="st22" d="M541.9,497l-47.4,34.2c-1.9,1.3-3.1,3.4-3.3,5.7c-1.1,11.3-4.2,45.2-2,47.7c2.7,3,15.3,0,15.3,0l2.2-35.7
		c0.1-1.2,0.9-2.2,2-2.6l63.5-23.3C572.3,523,548.4,492.6,541.9,497z"/>
	<path class="st31" d="M499.9,585.5c-0.1-1.4-1.6-34.6,3.7-42.8c3.8-5.9,57.7-29.4,62.7-30.5l0.2,1c-6.6,1.5-58.6,24.7-62.1,30.1
		c-5,8-3.5,41.9-3.5,42.3L499.9,585.5z"/>
	<path class="st31" d="M487.7,586l0.6,5.3c0.1,1,1,1.8,2.1,1.8l15.4-0.7c1.1,0,1.9-0.9,1.9-1.9c0,0,0,0,0-0.1v-6.5c0-1.1-0.9-2-2-2
		h-0.2l-16,1.8C488.4,583.9,487.6,584.9,487.7,586z"/>
	<path class="st32" d="M547.5,462.4c0,0-29.5,22.3-36.2,22.9s-1,5.7-1,5.7s27.5-7.7,39-16.3S547.5,462.4,547.5,462.4z"/>
	<path class="st10" d="M535.3,499.4l9.2-14.8c0.7-1.1,0.9-2.4,0.7-3.6c-2-9.9-7.9-55.5,10.7-64.4c11.7-5.6,17.8,2.3,22.6,9.7
		c3.4,5.3,5.5,11.3,6.4,17.5c0.7,4.7,1.7,11.6,2.4,16.7c0.9,5.4,0.8,11-0.2,16.4c-1.1,6.3-2.8,15.2-4,20.9
		c-0.7,3.4-1.2,6.8-1.5,10.2c-0.4,4.7-1.3,11.7-2.4,13.4c-1.8,2.8-4.8,8-9.8,6.5c-2.2-0.7-5.2-13.1-11.5-17
		C547.6,504.4,534.1,505.7,535.3,499.4z"/>
	<path class="st19" d="M541.1,376.1c0,0,0.3,15.5-4.5,19.3s4.5,4.3,4.5,4.3s-3,9.5,0.5,11.8c3.3,2.2,7.5,2.7,11.3,1.5
		c3.5-1.3,2.3,8.3,2.3,8.3c1.1,2.5,3.8,3.9,6.5,3.3c4.8-1,8.3-3,8.8-4.5s-2.8-17.3,0-21.8s-13.5-22-13.5-22h-15.9L541.1,376.1z"/>
	<path class="st26" d="M552.3,391.5v4.3c0,0.3,0.1,0.5,0.3,0.7l1.8,1.8c0.4,0.4,1,0.4,1.4,0c0.1-0.1,0.2-0.3,0.3-0.4
		c0.7-2.7,2.4-7.5,5.3-6.3c4,1.7-0.3,10,3,12.7s5.3,1,6.7,0c0.8-0.6,6.3-11.9,9.6-18.6c2.1-4.2,0.8-9.3-3-12.1
		c-1.2-0.8-2.7-1.3-4.2-1.3c-5.3,0.1-10.3-0.7-14-2.7c-3.2-1.8-9.2-8.8-10.7-10.6c-0.2-0.3-0.6-0.4-0.9-0.3
		c-2.5,0.3-12.7,2.6-9.8,16.6C541.3,391.2,552.3,391.5,552.3,391.5z"/>
	<path class="st11" d="M559.2,429.4c-3.3,0.2-6.3-2.3-6.7-5.6l1-0.1c0.3,1.8,1.4,3.3,3,4.2c2.4,1.2,5.8,0.6,10.2-1.7l0.5,0.9
		C564.7,428.4,562,429.2,559.2,429.4z"/>
	<path class="st11" d="M579.3,440.5c-2.1-3.3-4.4-5-6.8-5l0,0c-4.1,0-7.2,4.9-7.2,5l-0.8-0.5c0.1-0.2,3.4-5.4,8-5.4l0,0
		c2.7,0,5.3,1.8,7.6,5.4L579.3,440.5z"/>
	
		<rect x="559.2" y="453.4" transform="matrix(0.2343 -0.9722 0.9722 0.2343 -11.6632 893.0788)" class="st11" width="3.8" height="1"/>
	<path class="st11" d="M572.8,504.2c-5.1-6.3-9.7-7.1-9.7-7.2l0.2-1c0.2,0,4.9,0.9,10.3,7.5L572.8,504.2z"/>
	<path class="st11" d="M570.2,496.7c-0.5-0.9-1.3-1.6-2.2-2.1l0.4-0.9c1.1,0.6,2.1,1.5,2.7,2.6L570.2,496.7z"/>
	
		<rect x="482.3" y="600.6" transform="matrix(0.8051 -0.5931 0.5931 0.8051 -262.7259 403.969)" class="st5" width="2" height="2.3"/>
	
		<rect x="482.3" y="594.7" transform="matrix(0.821 -0.5709 0.5709 0.821 -253.7214 382.5331)" class="st5" width="2" height="2.5"/>
	<rect x="487.9" y="596.7" transform="matrix(0.8 -0.6 0.6 0.8 -260.9503 412.8968)" class="st5" width="2" height="2.4"/>
	<polygon class="st4" points="517.4,495.1 543.2,491 535.8,486.6 510.4,489 514,495.8 	"/>
	<path class="st19" d="M515.1,493l62.5-3c0,0,6.8-2.7,5.3-25.5c-0.4-6.7-16.3-6.8-16.8-2.5s0,16.8,0,16.8l-52.5,9.5L515.1,493z"/>
	<polygon class="st4" points="462.9,457.6 461.6,460.2 474.3,492.8 514.9,495.8 517.4,495.1 502.8,459 	"/>
	<path class="st33" d="M514.9,496.1L514.9,496.1l-40.8-3L474,493l-12.7-32.7l1.4-2.9h0.2l40.1,1.4l0.1,0.1l14.8,36.4L514.9,496.1z
		 M474.4,492.6l40.4,3l2.3-0.7l-14.5-35.7l-39.6-1.4l-1.1,2.4L474.4,492.6z"/>
	<polyline class="st4" points="461.6,460.2 500.7,461.6 514.9,495.8 	"/>
	<polygon class="st33" points="514.6,495.9 500.5,461.8 461.6,460.5 461.6,460 500.9,461.3 515.1,495.7 	"/>
	<line class="st21" x1="500.7" y1="461.6" x2="502.8" y2="459"/>
	
		<rect x="499.9" y="459.9" transform="matrix(0.6222 -0.7828 0.7828 0.6222 -170.7835 566.4567)" class="st33" width="3.3" height="0.5"/>
	<path class="st12" d="M481.6,481.8v-0.1h0.1v-0.1h0.1l0.1-0.1h0.1c0-0.1,0-0.1,0.1-0.2l0,0c0,0.1,0,0.1-0.1,0.2h0.1v-0.1
		c-0.1-0.1,0.1-0.3,0.1-0.5s-0.1,0.3-0.1,0.3l0,0l0.1-0.3l-0.1,0.3l0,0c0-0.2,0.1-0.5,0.2-0.7c0.1-0.2,0.2-0.5,0.2-0.7
		c0.3-0.9,0.6-1.8,1-2.7c0-0.1,0-0.1,0.1-0.2c0.1-0.1,0,0,0.1,0l0,0c0.2,0.8,0.5,1.6,0.9,2.3c0.1,0.2,0.4,0.5,0.6,0.6l0.3,0.2
		c0.1,0.1,0.2,0.2,0.3,0.2h0.1c0.1,0.1,0.2,0.2,0.4,0.2h0.1c0,0,0.2,0.2,0.3,0.2h0.1c0,0,0.3,0,0.3,0.1c0,0.1,0,0.1,0.1,0.1l0,0h0.1
		l0.1,0.1l0,0l0.1,0.1h-0.1c0.1,0.1,0.1,0.1,0.2,0.1c0.1,0,0.2,0.3,0.4,0.3l0,0l0.1,0.1l0,0c0.2,0.2,0.4,0.3,0.6,0.3h0.2
		c0.2,0,0.3-0.1,0.5-0.2c0.3-0.3,0.6-0.6,0.8-0.9c0.1-0.1,0.2-0.2,0.2-0.4c0.2-0.3,0.3-0.6,0.4-0.9c0.1-0.2,0.2-0.3,0.2-0.5
		c0-0.1,0-0.1,0.1-0.2c0,0.1,0,0.1,0.1,0.2l0,0c0.1,0.1,0.1,0.2,0.2,0.3c0.1,0.1-0.1-0.3,0-0.1l0.2,0.4c0,0.1,0,0.1,0.1,0.1
		s-0.2-0.2,0-0.2s0.1,0.2,0.1,0.1s-0.1-0.2,0-0.2s0.1,0.2,0.1,0.2l0.1,0.2l0,0c0-0.1-0.2-0.3-0.1-0.3s0.1,0.1,0.1,0.2
		s0.1,0.1,0.1,0.2v-0.1l0,0c0,0.1,0,0.1,0.1,0.1l0,0c0-0.1,0-0.2-0.1-0.2c-0.1-0.2,0,0,0.1,0.1s0-0.1-0.1-0.2
		c-0.1-0.1-0.1-0.1-0.1-0.2c0.1,0.1,0.1,0.2,0.2,0.3v-0.1c0,0-0.1-0.1,0-0.1l0.1,0.1c0.1,0.1,0.1,0.2,0.2,0.3c0.1,0.1,0,0,0-0.1
		s-0.1-0.5-0.2-0.7s0.1,0.1,0.1,0.2s0.1,0.2,0.1,0.3c0-0.2,0.1,0.1,0.1,0.1l0.1,0.2c-0.1-0.1-0.1-0.1-0.1-0.2l0,0
		c-0.1-0.2-0.1-0.3-0.2-0.5c-0.1-0.2-0.1-0.1-0.1-0.2s0,0,0.1,0.1l0.2,0.6c0,0.1,0,0.2,0.1,0.2l0.1,0.1c0.1,0.1,0,0.1,0,0.1v-0.2
		c0-0.1-0.1-0.1-0.1-0.3s-0.1-0.1-0.1-0.2s0.1,0.2,0.1,0.2c0,0.1,0.1,0.2,0.1,0.3c0,0.1-0.1-0.2-0.1-0.2l0,0c0,0-0.1-0.1,0-0.1
		s0.1,0.2,0.1,0.2v-0.1c0,0-0.1-0.1,0-0.1s0-0.1,0-0.2s-0.1-0.1,0-0.1c0.1,0,0.1,0,0.1,0.1l0,0c0-0.1-0.1-0.3-0.1-0.4l0,0
		c0-0.1,0-0.2-0.1-0.3c-0.1-0.3-0.2-0.6-0.2-0.9v-0.1c0,0.1,0,0.1,0.1,0.1l0,0l0,0c0,0.1,0,0.2,0.1,0.3c0,0.1,0.1,0.2,0.1,0.3l0,0
		v0.1c0.1,0.3,0.2,0.5,0.3,0.8l0,0v-0.1l0,0c0.1,0.3,0.2,0.6,0.3,0.9c0.1,0.3,0-0.1,0-0.1s0-0.1-0.1-0.2v-0.2c0,0.1,0,0.2,0.1,0.2
		s0,0.1,0.1,0.1c0.1,0,0.1,0,0.1,0.1l0,0c0-0.1-0.1-0.2-0.1-0.3s-0.1-0.2-0.1-0.3v-0.1l0,0v0.1c0.1,0.1,0.1,0.3,0.2,0.5l-0.1-0.2
		c-0.1-0.3-0.2-0.6-0.2-0.9l0,0v-0.1l0,0v0.1l0,0c0.1,0.2,0.2,0.4,0.2,0.6c0,0.1,0,0.1,0.1,0.2l0,0c0.1,0.2,0.1,0.4,0.2,0.6
		s0-0.1,0-0.1v-0.2c0,0.1,0,0.1,0.1,0.2v-0.2c0-0.1-0.1-0.3,0-0.1s0.1,0.1,0.1,0.2c0-0.1,0-0.1-0.1-0.2v-0.2c0-0.1,0.1,0.2,0.1,0.2
		l0,0v-0.2c-0.1-0.2,0,0.1,0.1,0.1s0-0.2,0,0c0,0.2,0.1,0.3,0.2,0.4c0.1,0.2,0-0.1,0-0.1v-0.2c0,0.1,0.1,0.2,0.1,0.3l0,0
		c0.1,0.1,0.1,0.2,0.1,0.3l0,0v-0.2l0,0c0-0.1,0-0.3-0.1-0.4c0-0.1,0-0.1-0.1-0.2v-0.2l0,0c0-0.2-0.1-0.4-0.1-0.6v0.1
		c0,0.1,0,0.1,0.1,0.2v-0.3l0,0v0.1c0,0.1,0,0.1,0.1,0.2l0,0v0.2l0,0c0.1,0.1,0.1,0.1,0.1,0.2v-0.2c-0.1-0.3-0.2-0.7-0.2-1
		c-0.1-0.5-0.2-1.1-0.4-1.6l0,0c0-0.3-0.1-0.6-0.3-0.8l-0.1-0.1l0,0c0.1,0,0.1,0.1,0.1,0s-0.1-0.2-0.1-0.3l-0.2-0.2
		c-0.1-0.1,0.1,0,0.1,0c-0.1-0.1-0.3-0.2-0.5-0.2h-0.1c-0.1,0-0.1-0.1-0.2-0.1h-0.1c-0.1,0-0.1,0-0.1-0.1l0,0c0,0-0.2,0-0.2-0.1
		h-0.4c0-0.1,0.1-0.1,0-0.1s-0.1,0.1-0.1,0h-0.1v-0.1c0,0-0.3-0.1-0.2-0.1h-0.1c0,0,0.1-0.1-0.1-0.1s-0.1-0.1-0.2-0.1h-0.1l-0.1-0.1
		l0,0c-0.1,0-0.1,0-0.1-0.1l0,0h-0.2v-0.1h-0.1l-0.2-0.1c0-0.1,0,0-0.1,0H490c-0.1,0-0.2,0-0.3-0.1v-0.1c0-0.1-0.1,0-0.1,0h-0.4
		c-0.2,0.1-0.3,0.3-0.4,0.5c-0.3,0.6-0.6,1.3-0.8,2c-0.2,0.7-0.5,1.2-0.7,1.8c0,0.1-0.1,0.3-0.2,0.3s0-0.1,0-0.1
		c0-0.2,0-0.5-0.1-0.6v0.5c-0.1-0.5-0.2-1.1-0.2-1.6v-0.5c0-0.3-0.1-0.5,0-0.7c0-0.2-0.1-0.5-0.2-0.7c0-0.1,0-0.1-0.1-0.2
		c0-0.1-0.1-0.2-0.1-0.3c-0.1,0-0.1,0-0.1-0.1l0,0c0-0.1,0.2,0.1,0.2,0.1l-0.1-0.1h-0.1l-0.1-0.1c-0.2-0.1-0.3-0.2-0.5-0.3
		c-0.2-0.1-0.1-0.1-0.2-0.1s-0.1-0.1-0.2-0.1h-0.1c-0.1,0-0.1-0.1-0.2-0.2s-0.1,0-0.1,0V473c-0.1-0.1-0.2-0.1-0.3-0.2h-0.1
		c-0.1,0,0,0,0-0.1s-0.2,0-0.3-0.1l-0.1-0.1H484c0-0.1,0-0.1-0.1-0.1l0,0h-0.1c-0.1,0,0-0.1,0-0.1c-0.1-0.1-0.1-0.1-0.2-0.1
		c-0.1,0-0.3,0-0.3-0.1s0.1,0,0.1,0l0,0c-0.1-0.1-0.1-0.1-0.2-0.1h-0.4c-0.1,0,0,0-0.1-0.1h-0.2c-0.2,0-0.4,0-0.5,0.1
		c-0.6,0.5-1.1,1.2-1.5,1.9c-0.1,0.1-0.1,0.3-0.2,0.3h-0.1c0,0.1,0,0.1-0.1,0.1l0,0c0,0.1,0,0.1-0.1,0.1l0,0c-0.1,0,0-0.1,0-0.1
		s-0.1,0.1-0.1,0s0-0.1-0.1-0.2s-0.1,0-0.1,0l0,0l0,0h-0.1c-0.1,0-0.1-0.2-0.1-0.1v-0.1l0,0v0.1c0,0-0.1-0.4-0.1-0.2v-0.1
		c0-0.1-0.1,0-0.1-0.1s-0.1,0-0.1,0v-0.1c-0.1,0-0.1,0-0.1-0.1l0,0l0,0l0,0l0,0c0-0.1,0,0-0.1,0s0-0.1,0,0v-0.2c0-0.1,0,0-0.1,0
		h-0.2c0,0,0.1-0.1,0-0.1c-0.1,0-0.1,0-0.1,0.1l0,0V473h-0.2v0.1l0,0V473c0-0.1,0-0.1-0.1-0.1l0,0c0,0.1,0,0.1-0.1,0.2
		c0.1-0.1,0,0.2,0,0c0,0,0.1-0.2,0-0.2s-0.1,0.1-0.2,0s0.1-0.1,0.1-0.1l0,0v0.1H478c0,0.1,0,0.1-0.1,0.1l0,0c-0.1,0,0,0,0-0.1l0,0
		v-0.1l0,0l-0.1-0.1h-0.2l-0.1,0.1l0.1-0.2h-0.2c-0.1,0,0,0.1,0,0v-0.1l0,0c0,0-0.1-0.1-0.1,0v0.1h-0.1v-0.1c0,0.1,0,0.1-0.1,0.1
		l0,0c-0.1,0,0-0.1,0-0.1s-0.1,0.2,0,0.2s0-0.1,0-0.1s0,0.1,0.1,0.2l0,0c0,0-0.1,0.1,0,0.1s0-0.1,0-0.1l0,0l0,0l0.1,0.1h0.1v0.2
		c0,0.2,0,0.5,0.1,0.7c0,0.3,0,0.6,0.1,0.9c0.1,0.9,0.2,2.1,0.3,3.1c0,0.3,0.1,0.5,0.1,0.8c0,0.1,0,0.1,0.1,0.2v0.2l0,0v0.1h0.1v0.1
		c0.1,0.1,0.1,0.4,0.1,0.5v-0.3c0,0,0.1,0.1,0.1,0s0,0.3,0.1,0.3s0-0.1,0,0v0.1c0.1,0,0.1,0,0.1,0.1l0,0c0,0.1,0,0.2,0.1,0.1
		s0-0.1,0-0.1v0.1l0,0c0,0,0,0.2,0.1,0.2h0.1c0,0.1,0,0.1,0.1,0.1l0,0h0.1v0.1h0.1c0.1,0,0,0.1,0.1,0.1s0-0.1,0-0.1
		c0,0.1,0,0.1,0.1,0.1l0,0c0.1,0,0,0,0.1,0.1l0,0c0,0.1,0,0.1,0.1,0.1l0,0h0.1c0.1,0,0,0.1,0.1,0.1s0,0,0-0.1h0.1c0,0,0.1-0.1,0.1,0
		v0.1h0.1v0.1l0,0c0,0.1,0,0.1,0.1,0.1l0,0c0.1,0,0-0.1,0.1-0.1s0,0.1,0,0s0.1,0,0,0s0,0,0,0.1h0.1c0,0.1,0,0.1,0.1,0.1l0,0l0,0V481
		h0.1c0.1,0,0,0.1,0,0.1s0,0.1,0.1,0.1l0,0c0,0,0,0.1,0.1,0s0,0.1,0.1,0.1s0,0,0.1,0.1s0,0,0-0.1h0.1
		C481.1,481.3,481.6,481.7,481.6,481.8L481.6,481.8z M492.5,474.8L492.5,474.8z M485.6,478.5c-0.2-0.7-0.3-1.4-0.4-2.1
		c0-0.1-0.1-0.3,0-0.3l0,0c-0.1,0,0,0.1,0,0.1v0.2C485.3,477.1,485.5,477.8,485.6,478.5C485.7,478.5,485.6,478.6,485.6,478.5
		L485.6,478.5z M483,476.6L483,476.6C483,476.5,482.9,476.7,483,476.6z M483,476.5C483,476.4,483.1,476.5,483,476.5z M482.6,476
		c0-0.2,0.1-0.3,0.2-0.4c0.1-0.1,0.1-0.3,0.2-0.4s0.1-0.1,0.1-0.2v0.1C482.9,475.4,482.7,475.7,482.6,476L482.6,476z M483,474.4
		L483,474.4c-0.1,0.1-0.1,0.2-0.2,0.3c0,0.1,0,0.1-0.1,0.1l0,0l0,0c0,0.1-0.1,0.2-0.2,0.3l0,0c0-0.1,0.1-0.2,0.2-0.3l0,0
		c0-0.1,0-0.1,0.1-0.1l0,0C482.8,474.6,482.9,474.5,483,474.4c0.1,0,0.1,0,0.1-0.1l0,0L483,474.4z M488,481l-0.2,0.2L488,481z
		 M488.1,481l0.1-0.1L488.1,481L488.1,481z M488.1,481.2l0.1-0.1C488.4,480.9,488.2,481.2,488.1,481.2s0,0.1,0,0.1V481.2z
		 M488.7,481.4L488.7,481.4C488.8,481.4,488.8,481.5,488.7,481.4z M490.9,478.6c0,0.1-0.1,0.2-0.2,0.4c-0.1,0.4-0.3,0.8-0.5,1.1
		c-0.2,0.3-0.4,0.7-0.6,1c0,0-0.2,0.3-0.3,0.3s0-0.1,0-0.1c0.3-0.4,0.6-0.8,0.8-1.3c0.1-0.3,0.2-0.5,0.3-0.8l0.1-0.4
		c0,0,0.2-0.2,0.3-0.2H490.9z M492.5,478.9L492.5,478.9c0,0,0.1,0,0,0.1V478.9z M490.5,478c-0.3,1-0.8,2-1.4,2.8l0,0l0.2-0.3
		c0.1-0.1,0.1-0.2,0.2-0.3l0,0c0,0,0.2-0.3,0.3-0.5l0.6-1.5C490.4,478.1,490.5,478,490.5,478C490.5,477.8,490.6,478.1,490.5,478
		L490.5,478z M490.5,477.9c-0.3,0.9-0.7,1.7-1.2,2.5c-0.2,0.3-0.4,0.6-0.7,0.9l0,0l0.3-0.3l0,0c0.3-0.3,0.5-0.6,0.6-1
		c0.1-0.3,0.3-0.6,0.5-0.9c0.2-0.3,0.3-0.6,0.4-1c0-0.1,0.1-0.4,0.2-0.4s0,0.3,0,0.3L490.5,477.9z M488.2,480.7L488.2,480.7
		L488.2,480.7z M490.4,477.6L490.4,477.6L490.4,477.6z M490.3,477c0,0.1-0.1,0.3-0.1,0.4c-0.3,1-0.8,1.9-1.3,2.8
		c-0.1,0.1-0.2,0.2-0.2,0.4c0,0-0.1,0.2-0.1,0s0.2-0.3,0.3-0.4c0.1-0.1,0.2-0.2,0.2-0.4c0.2-0.4,0.4-0.8,0.6-1.3s0.3-0.9,0.5-1.4
		c0.1,0,0.1-0.1,0.1,0V477z M488.6,480.2c0.1-0.2,0.2-0.4,0.4-0.6c0.1-0.1,0-0.1,0,0l0,0c0.4-0.8,0.7-1.6,1-2.4
		c0-0.2,0.1-0.4,0.2-0.5c0.1-0.1,0,0.1,0,0.2c-0.3,1.2-0.8,2.3-1.4,3.3l-0.1,0.2c0,0.1,0.3-0.5,0,0L488.6,480.2z M488.6,480
		L488.6,480L488.6,480z M489.8,477.9v0.1l0,0V477.9z M489.7,478.2C489.7,478.4,489.6,478.3,489.7,478.2v-0.1c0.2-0.1,0.1,0.2,0,0.2
		V478.2z M489.6,478.4L489.6,478.4L489.6,478.4z M489.6,478.5L489.6,478.5L489.6,478.5z M489.3,479.2L489.3,479.2L489.3,479.2z
		 M489.3,479.3L489.3,479.3L489.3,479.3z M489.2,479.4L489.2,479.4L489.2,479.4z M489.1,479.6L489.1,479.6c0,0.1,0,0.1-0.1,0.2
		C488.9,480,489,479.7,489.1,479.6L489.1,479.6L489.1,479.6z M488.9,480L488.9,480L488.9,480z M488.6,480.1c0,0.1,0,0.1-0.1,0.1
		l-0.1,0.1c0,0-0.1,0.2-0.1,0.1s0.2-0.2,0.2-0.2C488.5,480.1,488.5,480.1,488.6,480.1L488.6,480.1L488.6,480.1z M490.2,476.9
		c-0.1,0.3-0.2,0.5-0.3,0.8l0,0c0-0.2,0.1-0.4,0.2-0.6l0.1-0.4c0,0,0.1-0.2,0-0.1C490.2,476.7,490.2,476.8,490.2,476.9L490.2,476.9z
		 M492.2,476.9c0,0.1,0.1,0.2,0.1,0.3s0.1,0.2,0,0.1c0,0.1,0-0.1-0.1-0.1S492.2,476.9,492.2,476.9l-0.1,0.1L492.2,476.9z
		 M490.2,476.3L490.2,476.3c-0.3,0.6-0.5,1.4-0.8,2l-0.3,0.6L489,479c-0.1,0.1-0.1,0.2-0.1,0.3c-0.2,0.4-0.5,0.8-0.8,1.2
		c0,0-0.3,0.4-0.4,0.4s0.1-0.1,0.1-0.1l0.4-0.4c0.2-0.2,0.3-0.4,0.4-0.6c0-0.1,0-0.1,0.1-0.2s0.1-0.1,0.1-0.2v-0.1
		c0-0.1,0.1-0.2,0.1-0.3c0.4-0.7,0.7-1.5,0.9-2.3c0-0.2,0.1-0.3,0.2-0.5c-0.1,0.1,0-0.1,0-0.1C490,476.2,490.1,476.3,490.2,476.3
		L490.2,476.3z M490,476.2L490,476.2c-0.1,0.1-0.1,0.2-0.1,0.4c-0.3,0.8-0.6,1.6-0.9,2.3c-0.1,0.3-0.2,0.5-0.4,0.8
		c-0.1,0.3-0.3,0.6-0.6,0.8l-0.1,0.2l0.1-0.2c0.2-0.3,0.4-0.5,0.6-0.8c0.6-1.1,1-2.2,1.4-3.3V476.2z M485.5,474.9L485.5,474.9v-0.3
		l0,0V474.9L485.5,474.9c0.1,0.6,0.1,1.3,0.2,2s0.2,1.2,0.3,1.7c0,0.1,0,0.2,0.1,0.2l0,0c0-0.1-0.1-0.3-0.1-0.4
		c-0.2-0.9-0.3-1.8-0.4-2.7l0,0v-0.1l0,0V475l0,0v0.6l0,0v0.1l0,0c0,0.2,0,0.4,0.1,0.6v0.3C485.6,476.1,485.6,475.5,485.5,474.9
		L485.5,474.9z M485.7,476.2L485.7,476.2L485.7,476.2z M485.9,477.9L485.9,477.9c0.1,0.2,0.1,0.5,0.2,0.7l0,0
		C486,478.4,485.9,478.1,485.9,477.9L485.9,477.9L485.9,477.9z M486.2,478.5L486.2,478.5c-0.3-1.4-0.4-2.7-0.5-4.1l0,0
		c0.1,0.7,0.2,1.4,0.2,2.1C486,477.2,486.1,477.9,486.2,478.5L486.2,478.5c0,0-0.1,0.2-0.1,0.1L486.2,478.5z M486.6,477.9
		L486.6,477.9L486.6,477.9z M486.6,477.9L486.6,477.9c0,0-0.1,0.2,0,0.1V477.9z M486.6,477.6L486.6,477.6l-0.1,0.1L486.6,477.6z
		 M486.6,477.5L486.6,477.5l-0.1,0.1L486.6,477.5z M486.5,476.9L486.5,476.9v0.2l0,0V476.9L486.5,476.9c-0.1,0.1-0.1,0.1-0.1,0.2
		L486.5,476.9z M486.6,476.8L486.6,476.8l-0.1,0.1L486.6,476.8z M486.5,476.8L486.5,476.8l-0.1,0.1L486.5,476.8z M486.6,476.4
		L486.6,476.4v0.2l0,0V476.4L486.6,476.4v-0.1l-0.1,0.2L486.6,476.4z M486.5,475.4L486.5,475.4v0.5l0,0l0,0l0,0V475.4L486.5,475.4
		c-0.1,0-0.1,0-0.1,0.1l0,0L486.5,475.4z M486,474.3v0.1l0,0c0.1,0.2,0,0.4,0.1,0.6v-0.5l0,0c0,0.1,0,0.3,0.1,0.4
		c0,0.1,0.1,0.1,0.1,0.2v1c0,0.6,0.2,1.2,0.2,1.7c0,0.1,0.1,0.3,0.1,0.4l0,0c0-0.1-0.1-0.2-0.1-0.3c-0.1-0.7-0.2-1.6-0.3-2.3
		c0,0.7,0.1,1.3,0.2,2l0.1,0.5v0.2c0,0.1-0.1-0.1-0.1-0.1v-0.1c0-0.2-0.1-0.4-0.1-0.7C486,476.4,485.9,475.3,486,474.3
		c-0.1,0-0.1,0-0.1,0.1L486,474.3z M485.7,474.1c0.1,0.8,0.2,1.5,0.2,2.3c0,0.4,0.1,0.8,0.2,1.2c0.1,0.4,0.1,0.8,0.2,1.1l0,0
		c0,0,0,0.1-0.1,0s-0.1-0.2-0.1-0.3c-0.1-0.7-0.2-1.3-0.3-2c0-0.1-0.1-0.2-0.1-0.3v-0.5c0-0.3-0.1-0.6-0.1-0.9
		C485.7,474.5,485.7,474.3,485.7,474.1c-0.1,0.1-0.1,0-0.1,0.1L485.7,474.1z M485.6,474.6L485.6,474.6c0,0-0.1,0.2-0.1,0.1
		L485.6,474.6z M485.6,474.5L485.6,474.5v-0.2l0,0V474.5L485.6,474.5c0,0-0.1,0.2-0.1,0.1L485.6,474.5z M485.3,474.2
		c0-0.1,0-0.3,0.1-0.1c0.1,0.4,0.1,0.8,0.1,1.2c0.1,1.3,0.2,2.5,0.5,3.8h-0.1c0-0.1-0.1-0.1-0.1-0.2c-0.1-0.5-0.2-0.9-0.3-1.4l0,0
		v-0.1l0,0c-0.1-0.8-0.2-1.5-0.2-2.3c-0.2-0.2-0.2-0.4-0.2-0.6L485.3,474.2z M483,474.1L483,474.1c0,0-0.2,0.1-0.1,0.1L483,474.1z
		 M482.3,475.3c0.2-0.3,0.4-0.7,0.6-1l0.1-0.2l-0.2,0.3C482.7,474.7,482.5,475,482.3,475.3L482.3,475.3c0,0.1,0-0.2-0.1,0.1
		L482.3,475.3z M482.8,474.6L482.8,474.6l-0.1,0.1L482.8,474.6z M482.8,474.7L482.8,474.7l-0.2,0.1L482.8,474.7z M482.2,476.1
		c0.1-0.2,0.1-0.3,0.2-0.5l0.6-1.2c0-0.1,0.1-0.2,0.2-0.3l0,0c0,0.1-0.1,0.2-0.1,0.3C482.7,474.9,482.4,475.5,482.2,476.1l-0.2,0.2
		L482.2,476.1z M482.5,475.9L482.5,475.9c0-0.1-0.2,0.2-0.2,0.2L482.5,475.9z M483.1,476.4c0-0.1,0.1-0.2,0.1-0.3s0-0.1,0.1-0.1
		s-0.1,0.2-0.1,0.3l-0.1,0.2c-0.3,0.2-0.2,0.1-0.2,0.1L483.1,476.4z M483.1,476.5L483.1,476.5c0,0.1-0.2,0.2-0.2,0.2L483.1,476.5z
		 M483.1,476.6L483.1,476.6c0,0.1-0.3,0.2-0.3,0.2L483.1,476.6z M483.1,476.7L483.1,476.7l-0.3,0.2L483.1,476.7z M480.6,480.5
		L480.6,480.5c-0.3,0.2-0.4,0.1-0.3,0.2L480.6,480.5z M481.4,481.1v0.2h-0.3L481.4,481.1z M481.4,481.2L481.4,481.2l-0.3,0.2
		L481.4,481.2z M481.8,481.5L481.8,481.5l-0.3,0.2L481.8,481.5z M480.2,473.6L480.2,473.6c0,0-0.2,0.2-0.3,0.2L480.2,473.6z
		 M482.3,481.3L482.3,481.3l-0.3,0.2L482.3,481.3z M494.2,478.8L494.2,478.8l-0.3,0.2L494.2,478.8z M494.2,478.8L494.2,478.8
		l-0.3,0.1L494.2,478.8z M494.2,478.8L494.2,478.8l-0.3,0.1L494.2,478.8z M494.2,478.6L494.2,478.6L494.2,478.6l-0.3,0.1
		L494.2,478.6z M493.2,478.9C493.2,479,493.3,478.9,493.2,478.9L493.2,478.9z M493.2,479.1L493.2,479.1l-0.4,0.1L493.2,479.1z
		 M493.2,479.1L493.2,479.1l-0.4,0.1L493.2,479.1z M493.9,476.5L493.9,476.5c0-0.1-0.4,0-0.4,0H493.9z M492.8,479.6L492.8,479.6
		l-0.4-0.1L492.8,479.6z M492.8,479.6L492.8,479.6l-0.4-0.1L492.8,479.6z M492.8,477.7L492.8,477.7l-0.4-0.1L492.8,477.7z
		 M492.7,477.5L492.7,477.5l-0.4-0.1L492.7,477.5z M491.7,479.5L491.7,479.5l-0.4-0.1L491.7,479.5z M491.7,479.5L491.7,479.5
		c0-0.1-0.4-0.1-0.4-0.1L491.7,479.5z M491.7,479.4L491.7,479.4l-0.4-0.1L491.7,479.4z M492.8,474.8h-0.1c-0.5-0.1-0.2,0-0.3-0.1
		L492.8,474.8z M491.7,474.4L491.7,474.4c0.1,0-0.4-0.1-0.4-0.1L491.7,474.4z M489.4,481.1L489.4,481.1c-0.1,0.1-0.3-0.2-0.4-0.1
		L489.4,481.1z M489.5,479.6L489.5,479.6l-0.4-0.1L489.5,479.6z M489.5,479.7L489.5,479.7c0,0-0.5,0-0.5-0.1L489.5,479.7z
		 M487,478.4L487,478.4l-0.5-0.1L487,478.4z M487,478.4L487,478.4l-0.5-0.1L487,478.4z M487,478.4L487,478.4l-0.5-0.2L487,478.4z
		 M487.2,477.3L487.2,477.3c0.1-0.1,0-0.2,0-0.3c0,0,0,0-0.1,0c-0.1,0-0.3,0-0.4,0.1l0,0L487.2,477.3z M487,478.3L487,478.3
		l-0.5-0.2L487,478.3z M487.2,477.3L487.2,477.3l-0.5-0.2L487.2,477.3z M487.2,477.3L487.2,477.3l-0.5-0.3L487.2,477.3z M487,478.3
		L487,478.3l-0.5-0.3L487,478.3z M487.2,477.3L487.2,477.3l-0.5-0.3L487.2,477.3z M487.2,477.2L487.2,477.2l-0.5-0.3L487.2,477.2z
		 M487.2,477.2L487.2,477.2l-0.5-0.4L487.2,477.2z M487.2,477.1L487.2,477.1l-0.5-0.3L487.2,477.1z M486.9,478.1L486.9,478.1
		l-0.5-0.4L486.9,478.1z M487.2,477.1L487.2,477.1l-0.5-0.4L487.2,477.1z M487.2,477.1L487.2,477.1l-0.5-0.4L487.2,477.1z
		 M487.2,477.1L487.2,477.1c0.1-0.2,0-0.4-0.1-0.5c-0.1-0.1-0.3,0-0.4,0.1l0,0L487.2,477.1z M487.2,477.1L487.2,477.1l-0.5-0.5
		L487.2,477.1z M486.5,479.4v0.1c0.2-0.1,0.2-0.4,0-0.6s-0.4-0.2-0.6,0L486.5,479.4z M487.2,477.1L487.2,477.1l-0.5-0.5L487.2,477.1
		z M487.2,477.1L487.2,477.1c0,0-0.6-0.6-0.5-0.6L487.2,477.1z M487.2,477.1L487.2,477.1c0,0-0.6-0.6-0.5-0.6L487.2,477.1z
		 M486.9,478.1L486.9,478.1c0,0-0.6-0.6-0.5-0.6L486.9,478.1z M486.5,479.4L486.5,479.4l-0.5-0.6L486.5,479.4z M486.9,478L486.9,478
		l-0.6-0.6L486.9,478z M486.5,479.4L486.5,479.4c0,0-0.5-0.6-0.6-0.6L486.5,479.4z M487.2,477L487.2,477c0,0-0.6-0.6-0.5-0.6
		L487.2,477z M486.5,479.4L486.5,479.4c0,0-0.5-0.6-0.6-0.6L486.5,479.4z M487.2,476.9L487.2,476.9l-0.6-0.6L487.2,476.9z
		 M486.9,477.9L486.9,477.9l-0.6-0.6L486.9,477.9z M486.5,479.3L486.5,479.3c0,0.1-0.5-0.6-0.6-0.6L486.5,479.3z M487.2,476.9
		L487.2,476.9l-0.6-0.6L487.2,476.9z M487.2,476.9L487.2,476.9l-0.6-0.6L487.2,476.9z M486.9,477.9L486.9,477.9l-0.6-0.6
		L486.9,477.9z M487.2,476.8L487.2,476.8l-0.6-0.6L487.2,476.8z M486.5,479.3L486.5,479.3c0,0-0.5-0.6-0.6-0.6L486.5,479.3z
		 M486.9,477.8L486.9,477.8l-0.6-0.5L486.9,477.8z M486.5,479.2L486.5,479.2l-0.6-0.5L486.5,479.2z M486.5,479.2L486.5,479.2
		c0,0-0.5-0.5-0.6-0.5L486.5,479.2z M487.2,476.6L487.2,476.6l-0.6-0.5L487.2,476.6z M486.5,479.1L486.5,479.1l-0.6-0.5L486.5,479.1
		z M487.2,476.6L487.2,476.6l-0.6-0.5L487.2,476.6z M486.5,479.1v-0.2c0.1-0.2,0.1-0.4-0.1-0.5s-0.4-0.1-0.5,0.1L486.5,479.1z
		 M487.2,476.5L487.2,476.5l-0.6-0.5L487.2,476.5z M487.2,476.5L487.2,476.5l-0.6-0.6L487.2,476.5z M487.1,476.5L487.1,476.5
		l-0.6-0.6L487.1,476.5z M487.1,476.5L487.1,476.5l-0.6-0.6L487.1,476.5z M487.1,476.5L487.1,476.5l-0.6-0.6L487.1,476.5z
		 M486.4,479L486.4,479c0,0.1-0.5-0.6-0.6-0.6L486.4,479z M487.1,476.4L487.1,476.4l-0.6-0.6L487.1,476.4z M487.1,476.4L487.1,476.4
		l-0.6-0.7L487.1,476.4z M486.4,479L486.4,479c0,0-0.5-0.7-0.6-0.7L486.4,479z M486.4,479L486.4,479l-0.6-0.7L486.4,479z
		 M487.1,476.3L487.1,476.3l-0.6-0.7L487.1,476.3z M486.4,478.9L486.4,478.9c0.2-0.1,0.3-0.3,0.2-0.5c0,0,0-0.1-0.1-0.1
		c-0.2-0.2-0.5-0.3-0.7-0.1c0,0,0,0,0,0L486.4,478.9z M486.4,478.9L486.4,478.9c0,0-0.5-0.7-0.6-0.7L486.4,478.9z M486.4,478.8
		L486.4,478.8c0.2-0.1,0.3-0.3,0.2-0.5c0,0,0-0.1-0.1-0.1c-0.2-0.2-0.5-0.3-0.7-0.1c0,0,0,0,0,0L486.4,478.8z M486.4,478.8
		L486.4,478.8l-0.6-0.7L486.4,478.8z M486.4,478.8L486.4,478.8l-0.6-0.7L486.4,478.8z M486.4,478.8L486.4,478.8l-0.6-0.7
		L486.4,478.8z M486.4,478.8L486.4,478.8l-0.6-0.8L486.4,478.8z M486.4,478.8L486.4,478.8l-0.6-0.8L486.4,478.8z M486.4,478.8
		L486.4,478.8c0.3-0.1,0.3-0.4,0.1-0.7c-0.2-0.2-0.5-0.3-0.7-0.2c0,0-0.1,0-0.1,0.1l0,0L486.4,478.8z M487.1,476L487.1,476l-0.6-0.8
		L487.1,476z M486.4,478.7L486.4,478.7l-0.6-0.8L486.4,478.7z M486.4,478.7L486.4,478.7l-0.6-0.8L486.4,478.7z M486.4,478.7
		L486.4,478.7l-0.6-0.8L486.4,478.7z M487.1,475.9L487.1,475.9l-0.6-0.8L487.1,475.9z M486.4,478.6L486.4,478.6l-0.6-0.8
		L486.4,478.6z M487.1,475.8v0.1c0.3-0.2,0.4-0.5,0.2-0.8c-0.2-0.3-0.5-0.4-0.8-0.2l0,0l0,0L487.1,475.8z M486.4,478.6L486.4,478.6
		l-0.6-0.8L486.4,478.6z M486.4,478.6L486.4,478.6l-0.6-0.9L486.4,478.6z M486.4,478.6L486.4,478.6l-0.6-0.9L486.4,478.6z
		 M487.1,475.8L487.1,475.8l-0.6-0.9L487.1,475.8z M486.4,478.6L486.4,478.6l-0.6-0.9L486.4,478.6z M487.1,475.7v0.1
		c0.3-0.2,0.4-0.5,0.2-0.8c-0.2-0.3-0.5-0.4-0.8-0.2l0,0L487.1,475.7z M486.4,478.6L486.4,478.6l-0.6-0.9L486.4,478.6z M486.4,478.6
		L486.4,478.6c-0.2-0.3-0.4-0.7-0.6-1L486.4,478.6z M486.4,478.6L486.4,478.6l-0.6-1L486.4,478.6z M486.4,478.6L486.4,478.6l-0.6-1
		L486.4,478.6z M486.4,478.6L486.4,478.6c-0.2-0.4-0.4-0.7-0.6-1.1L486.4,478.6z M486.4,478.6L486.4,478.6c-0.2-0.4-0.4-0.8-0.7-1.1
		L486.4,478.6z M486.4,478.6L486.4,478.6l-0.7-1.1L486.4,478.6z M486.4,478.6L486.4,478.6c0,0-0.6-1.1-0.7-1.2L486.4,478.6z
		 M486.8,477L486.8,477c-0.2-0.4-0.4-0.8-0.7-1.2L486.8,477z M486.4,478.5L486.4,478.5l-0.7-1.2L486.4,478.5z M486.4,478.5
		L486.4,478.5l-0.7-1.2L486.4,478.5z M486.8,477v-0.3c-0.1-0.4-0.3-0.7-0.7-0.9L486.8,477z M486.3,478.5L486.3,478.5l-0.7-1.2
		L486.3,478.5z M486.3,478.5L486.3,478.5l-0.7-1.2L486.3,478.5z M486.3,478.5L486.3,478.5c0,0-0.7-1.2-0.7-1.3L486.3,478.5z
		 M486.3,478.5L486.3,478.5l-0.7-1.3L486.3,478.5z M486.3,478.5L486.3,478.5l-0.7-1.3L486.3,478.5z M486.3,478.4L486.3,478.4
		c0.4-0.1,0.5-0.6,0.4-1c-0.2-0.4-0.6-0.5-1-0.4L486.3,478.4z M486.3,478.4L486.3,478.4c0.3-0.1,0.5-0.5,0.4-0.9c0,0,0-0.1-0.1-0.1
		c-0.2-0.4-0.6-0.5-0.9-0.3c0,0,0,0-0.1,0L486.3,478.4z M486.8,476.8L486.8,476.8l-0.7-1.3L486.8,476.8z M486.8,476.8L486.8,476.8
		l-0.7-1.4L486.8,476.8z M486.3,478.3L486.3,478.3c0.4-0.1,0.6-0.5,0.5-0.9c0,0,0-0.1-0.1-0.1c-0.2-0.4-0.7-0.6-1.1-0.4L486.3,478.3
		z M486.8,476.7L486.8,476.7l-0.7-1.4L486.8,476.7z M486.8,476.5v0.2c0.4-0.2,0.7-0.7,0.5-1.1s-0.7-0.7-1.1-0.5l0,0l0,0L486.8,476.5
		z M486.3,478.3L486.3,478.3l-0.7-1.4L486.3,478.3z M486.3,478.3L486.3,478.3l-0.7-1.4L486.3,478.3z M486.3,478.2L486.3,478.2
		l-0.7-1.4L486.3,478.2z M486.3,478.2L486.3,478.2l-0.7-1.4L486.3,478.2z M483,482.7L483,482.7l-0.8-1.4L483,482.7z M483,482.2V482
		l-0.8-1.1L483,482.2z M482.8,483L482.8,483c-0.9-1.4-0.8-1.3-0.8-1.4L482.8,483z M482.7,483L482.7,483l-0.8-1.4L482.7,483z
		 M479.3,480.3c-0.1-0.5-0.1-1.1-0.2-1.6s-0.1-0.8-0.2-1.3c0-0.1,0-0.3-0.1-0.4l0,0v0.3l0,0c0-0.1,0-0.2-0.1-0.3v0.7
		c0.1,0.5,0.1,0.9,0.2,1.3c0,0.2,0.1,0.4,0.1,0.6l0,0v0.1c0,0.2,0.1,0.2,0.1,0.4c-0.3-0.4-0.6-1-0.7-1.5L479.3,480.3z M479.1,479.7
		L479.1,479.7c0,0-0.8-1.3-0.8-1.4L479.1,479.7z M480.3,474.9L480.3,474.9l-0.8-1.4L480.3,474.9z M478.8,476.5L478.8,476.5L478,475
		L478.8,476.5z M478.8,476.5L478.8,476.5L478,475L478.8,476.5z M478.8,476.4L478.8,476.4l-0.8-1.5L478.8,476.4z M478.8,476.4
		L478.8,476.4l-0.8-1.6L478.8,476.4z M478.8,476.4L478.8,476.4l-0.8-1.6L478.8,476.4z M479.3,474.3L479.3,474.3l-0.8-1.6
		L479.3,474.3z M478.8,476.4L478.8,476.4l-0.8-1.6L478.8,476.4z M478.8,476.3C478.7,476.3,478.7,476.4,478.8,476.3
		c0.4-0.2,0.6-0.7,0.5-1.1c0,0,0-0.1-0.1-0.1c-0.3-0.5-0.8-0.6-1.3-0.4L478.8,476.3z M478.8,476.2L478.8,476.2
		c0.4-0.2,0.6-0.7,0.5-1.1c0,0,0-0.1-0.1-0.1c-0.3-0.5-0.8-0.6-1.3-0.4L478.8,476.2z M478.8,476.2L478.8,476.2c0,0-0.9-1.6-0.9-1.7
		L478.8,476.2z M478.8,476.2L478.8,476.2c0.4-0.1,0.6-0.6,0.5-1c0-0.1-0.1-0.1-0.1-0.2c-0.3-0.5-0.8-0.6-1.3-0.4l0,0L478.8,476.2z"
		/>
	<path class="st11" d="M583,462.9c-0.4,0-0.7-0.2-1-0.4c-2.8-2.7-8.6-4.6-15.5-1.2c-0.7,0.4-1.6,0.1-1.9-0.6c0,0,0-0.1-0.1-0.1
		c-0.1-0.2-0.1-0.4-0.2-0.6v-8.9h1v8.8c0,0.2,0.1,0.3,0.2,0.4c0.2,0.1,0.3,0.1,0.5,0c7.4-3.6,13.6-1.5,16.6,1.4
		c0.1,0.2,0.4,0.2,0.6,0.1c0.2-0.1,0.3-0.3,0.3-0.5l-1.8-7l1-0.3l1.8,7.1c0.1,0.8-0.4,1.6-1.2,1.8L583,462.9z"/>
	<path class="st34" d="M555.4,725.5c0.5,0.3,1.1,0.1,1.4-0.3c0,0,0,0,0-0.1c0.1-0.2,0.1-0.5,0.1-0.7c-0.9-4.8-1.4-9.7-1.3-14.6
		c0.2-2.3,0.6-4.6,1.2-6.9c0.3-1.1-0.1-2.2-0.9-3c-2.8-2.5-9.1-6.9-11.8,3.5C541.1,714.9,550.9,723,555.4,725.5z"/>
	
		<ellipse transform="matrix(0.6174 -0.7867 0.7867 0.6174 -322.7459 708.6641)" class="st34" cx="567.1" cy="686.1" rx="2.7" ry="4.2"/>
	<path class="st34" d="M565.7,702.7l-0.2,0.1c-0.9,0.4-7.8,3.8-1.9,18.8c6.3,16,17.7,21.3,18.5,21.3s2-16.2-2.3-29
		S572.8,700.6,565.7,702.7z"/>
	<path class="st19" d="M409.7,275.7l12.8-11.8l15.5,19c0.6,0.8,1.1,1.3,0.5,2l-5.1,6c-0.6,0.8-1.8,0.9-2.6,0.4l-1.6-0.5
		c-0.8-0.5-1.9-0.4-2.6,0.3l0,0c-0.4,0.4-1,0.4-1.4,0l0,0L409.7,275.7z"/>
	<path class="st35" d="M427.4,287.9c-0.6-1-1.9-1.2-3.4-0.8c0.4-0.6,0.4-1.4,0.1-2.1c-0.5-0.8-1.4-1.1-2.3-1c0.3-0.6,0.3-1.3,0-1.9
		c-0.6-0.8-1.5-1.2-2.5-1c0.5-0.7,0.6-1.6,0.2-2.4c-0.7-1.2-2.8-1.3-4.6-0.3s-2.8,2.9-2,4.1c0.6,0.8,1.5,1.2,2.5,1
		c-0.7,0.9-0.6,2.2,0.3,3c0.5,0.4,1.2,0.6,1.8,0.4c-0.3,0.6-0.3,1.3,0,1.9c0.6,1,1.9,1.2,3.4,0.8c-0.4,0.6-0.4,1.4-0.1,2.1
		c0.7,1.2,2.8,1.3,4.6,0.3S428.1,289.1,427.4,287.9z"/>
	<path class="st35" d="M434.3,289.7c1,1,2.4,1.5,3.8,1.5c1.6-0.2,3.1-0.9,4.2-2c0.4-0.5,2.6-10.8,2.6-10.8s-4.3-0.5-6.5-2.1
		c-1.3-1-1.9-4.3-4.6-5.6c-1.3-0.6-3.6-1.7-5.5-1.3c-0.9,0.2-3.8,0.8-5,2.7c-1.5,2.4-1.1,6.5,0,7.2s3.7-0.7,4.7-2.2
		c0.5-0.8,1.1-1.5,1.8-2.2l0.8,0.7c0.6,0.5,1.1,1.1,1.7,1.6c0.8,1.4,1.5,2.8,2.1,4.3c0.2,0.4,0.4,0.7,0.6,1.1l1,1.5
		c0.1,0.3,0.2,0.5,0.3,0.8l0.1,0.4c0.1,0.5,0,1-0.3,1.4L434.3,289.7z"/>
	<polygon class="st4" points="402.8,268.9 408.5,276.5 422.4,264 416.2,254.9 	"/>
	<path class="st20" d="M408.5,277.2l-6.3-8.4l14.1-14.7l6.8,10L408.5,277.2z M403.5,268.9l5.2,6.9l13.1-11.8l-5.7-8.3L403.5,268.9z"
		/>
	
		<rect x="408.3" y="264.8" transform="matrix(0.8016 -0.5979 0.5979 0.8016 -80.1644 297.9767)" class="st20" width="1" height="9.9"/>
	<circle class="st20" cx="411.3" cy="267.3" r="1"/>
	<polygon class="st4" points="443.9,276.5 441.3,292.3 452,295.8 453.9,277.5 	"/>
	<path class="st20" d="M452.5,296.4l-11.8-3.8l2.8-16.6l11,1.1L452.5,296.4z M441.9,291.9l9.8,3.2l1.8-17.1l-9-0.9L441.9,291.9z"/>
	
		<rect x="446.7" y="283.8" transform="matrix(0.2895 -0.9572 0.9572 0.2895 40.8567 633.6216)" class="st20" width="1" height="11"/>
	<circle class="st20" cx="447.3" cy="286.1" r="1"/>
</g>
</svg>
