<?xml version="1.0" encoding="utf-8"?>
<!-- Generator: Adobe Illustrator 21.0.2, SVG Export Plug-In . SVG Version: 6.00 Build 0)  -->
<svg xmlns:xlink="http://www.w3.org/1999/xlink" version="1.1" id="Слой_1" xmlns="http://www.w3.org/2000/svg" x="0px" y="0px"
	 viewBox="0 0 1879 740" style="enable-background:new 0 0 1879 740;" xml:space="preserve">
<style type="text/css">
	.st0{opacity:0.1;fill:#BBD1CF;enable-background:new    ;}
	.st1{clip-path:url(#SVGID_2_);}
	.st2{opacity:0.2;fill:#BBD1CF;enable-background:new    ;}
	.st3{fill:#473098;}
	.st4{fill:#604EB4;}
	.st5{fill:#FFFFFF;}
	.st6{fill:#422B93;}
	.st7{fill:#91C8FF;}
	.st8{fill:#C6606E;}
	.st9{fill:#EAEA34;}
	.st10{fill:#4D934A;}
	.st11{fill:#F7DA92;}
	.st12{fill:#FDB175;}
	.st13{fill:#FF3C5C;}
	.st14{fill:#63AEFF;}
	.st15{fill:#342C77;}
	.st16{fill:#DAD6F4;}
	.st17{opacity:0.2;}
	.st18{fill:#3E3083;}
	.st19{fill:#3F336A;}
	.st20{fill:#F5997F;}
	.st21{fill:#463888;}
	.st22{fill:#FFB78D;}
	.st23{fill:#D8D8E5;}
	.st24{fill:none;}
	.st25{fill:#816FD3;}
	.st26{fill:#7167B7;}
	.st27{fill:#625E9E;}
	.st28{fill:#514199;}
	.st29{fill:#F8F9FF;}
	.st30{opacity:0.2;fill:#35277C;enable-background:new    ;}
	.st31{fill:#FFE997;}
	.st32{fill:#463887;}
	.st33{fill:#635C93;}
	.st34{fill:#F59980;}
	.st35{fill:#E2DED9;}
	.st36{fill:#958CB5;}
	.st37{fill:#F5987F;}
</style>
<title>top-ill</title>
<g>
	<g id="мой">
		<rect class="st0" width="1879" height="743"/>
		<g>
			<g>
				<defs>
					<rect id="SVGID_1_" width="1879" height="743"/>
				</defs>
				<clipPath id="SVGID_2_">
					<use xlink:href="#SVGID_1_"  style="overflow:visible;"/>
				</clipPath>
				<g class="st1">
					<path class="st2" d="M135-19c0,0-28,281,216,360.5S1027.2,163,1393,161.3c312.1-1.5,416,53.9,540,393.8S1851.6,797,1851.6,797
						L-29,789V-41L135-19z"/>
				</g>
			</g>
		</g>
		<path class="st3" d="M926.5,740h-3v-44.7c0-14.6,11.9-26.5,26.5-26.5h442c13,0,23.5-10.5,23.5-23.5V403.7
			c0-13-10.5-23.5-23.5-23.5h-139.8v-70.8c0-14.6,11.9-26.5,26.5-26.5H1429v3h-150.3c-13,0-23.5,10.5-23.5,23.5v67.8H1392
			c14.6,0,26.5,11.9,26.5,26.5v241.7c0,14.6-11.9,26.5-26.5,26.5H950c-13,0-23.5,10.5-23.5,23.5V740z"/>
		<path class="st4" d="M1366.8,332.3h-195.7c-4.4,0-8,3.6-8,8V419c0,4.4,3.6,8,8,8h5.2c0.2,0.1,0.3,0.3,0.5,0.4
			c1.3,1.1,2.2,2.6,2.7,4.3c0.1,0.5,0.2,0.9,0.2,1.4v0.8c0,0.3,0,0.5-0.1,0.8c-0.1,0.6-0.2,1.1-0.3,1.7c-0.2,0.5-0.4,1.1-0.6,1.7
			c-0.1,0.3-0.2,0.6-0.4,0.9l-0.5,0.8c-0.3,0.6-0.7,1.1-1.1,1.7c-0.8,1.1-1.8,2.1-2.7,3.2c1.4,0.2,2.9,0.4,4.4,0.4
			c0.8,0,1.5,0,2.3-0.1l1.2-0.1c0.4,0,0.8-0.1,1.2-0.2c0.8-0.2,1.6-0.4,2.5-0.6c0.8-0.3,1.7-0.6,2.5-1c0.4-0.2,0.9-0.4,1.3-0.6
			l1.2-0.7c0.9-0.5,1.7-1.1,2.4-1.7c3.3-2.7,5.9-6.2,7.5-10.2c0.4-0.9,0.8-1.9,1.1-2.9h165c4.4,0,8-3.6,8-8v-78.7
			C1374.8,335.9,1371.2,332.4,1366.8,332.3z"/>
		<rect x="1184.1" y="346.2" class="st5" width="14.3" height="5"/>
		<rect x="1184.1" y="362.2" class="st5" width="151.3" height="5"/>
		<rect x="1184.1" y="376.2" class="st5" width="128.3" height="5"/>
		<rect x="1184.1" y="389.2" class="st5" width="109.3" height="5"/>
		<rect x="1184.1" y="408.2" class="st5" width="14.3" height="5"/>
		<rect x="1338.1" y="408.2" class="st5" width="14.3" height="5"/>
		<rect x="1209.1" y="346.2" class="st5" width="14.3" height="5"/>
		<path class="st6" d="M1556.1,513.5h-195.7c-4.4,0-8,3.6-8,8v78.7c0,4.4,3.6,8,8,8h165c0.3,1,0.7,1.9,1.1,2.9
			c1.7,3.9,4.2,7.4,7.5,10.2c0.8,0.6,1.6,1.2,2.4,1.7l1.2,0.7c0.4,0.2,0.8,0.4,1.3,0.6c0.8,0.4,1.7,0.7,2.5,1s1.7,0.4,2.5,0.6
			c0.4,0.1,0.8,0.2,1.2,0.2l1.2,0.1c0.8,0.1,1.6,0.1,2.3,0.1c1.5-0.1,3-0.2,4.4-0.4c-1-1.1-1.9-2.1-2.7-3.2
			c-0.4-0.6-0.7-1.2-1.1-1.7l-0.5-0.8c-0.1-0.3-0.3-0.6-0.4-0.9c-0.2-0.6-0.4-1.1-0.6-1.7c-0.1-0.6-0.2-1.1-0.3-1.7
			c0-0.3-0.1-0.5-0.1-0.8v-0.8c0-0.5,0.1-1,0.2-1.4c0.4-1.7,1.4-3.2,2.7-4.3c0.2-0.2,0.3-0.3,0.5-0.4h5.2c4.4,0,8-3.6,8-8v-78.7
			C1564.1,517.1,1560.5,513.5,1556.1,513.5z"/>
		<rect x="1370.8" y="543.3" class="st5" width="151.3" height="5"/>
		<rect x="1370.8" y="557.3" class="st5" width="128.3" height="5"/>
		<rect x="1370.8" y="570.3" class="st5" width="109.3" height="5"/>
		<rect x="1525.8" y="589.3" class="st5" width="14.3" height="5"/>
		<rect x="1370.8" y="589.3" class="st5" width="14.3" height="5"/>
		<rect x="1370.8" y="527.3" class="st5" width="14.3" height="5"/>
		<path class="st5" d="M1013,652.8h39.3c1.7,0,3,1.3,3,3v28.8c0,1.7-1.3,3-3,3H1013c-1.7,0-3-1.3-3-3v-28.8
			C1010,654.1,1011.4,652.8,1013,652.8z"/>
		<path class="st7" d="M1055.3,657.8v-2c0-1.7-1.3-3-3-3H1013c-1.7,0-3,1.3-3,3v2H1055.3z"/>
		<rect x="1014.5" y="662.3" class="st7" width="12.7" height="19.2"/>
		<rect x="1033.5" y="662.3" class="st7" width="15.8" height="2"/>
		<rect x="1033.5" y="679.4" class="st7" width="15.8" height="2"/>
		<rect x="1033.5" y="675.4" class="st7" width="12.8" height="2"/>
		<rect x="1033.5" y="666.4" class="st7" width="4.8" height="2"/>
		<circle class="st8" cx="1013.7" cy="655.3" r="0.9"/>
		<circle class="st9" cx="1016.7" cy="655.3" r="0.9"/>
		<circle class="st10" cx="1019.7" cy="655.3" r="0.9"/>
		<rect x="1333.5" y="663.3" class="st11" width="41.8" height="25.2"/>
		<polygon class="st12" points="1353.4,680.8 1335.7,665.6 1337,664.1 1353.6,678.2 1371.4,665.8 1372.6,667.5 		"/>
		
			<rect x="1332.3" y="681.3" transform="matrix(0.7071 -0.7071 0.7071 0.7071 -90.0467 1147.1183)" class="st12" width="14.8" height="2"/>
		
			<rect x="1368.8" y="674.3" transform="matrix(0.761 -0.6488 0.6488 0.761 -114.6098 1051.5721)" class="st12" width="2" height="14.1"/>
		<circle class="st13" cx="1374.3" cy="663.3" r="7.2"/>
		<polygon class="st5" points="1373.3,666.9 1372.4,666.4 1375.3,661.2 1371.8,661.2 1371.8,660.2 1377,660.2 		"/>
		<ellipse class="st5" cx="1107.7" cy="574.5" rx="16.3" ry="14"/>
		<polygon class="st5" points="1113.1,584.2 1113.2,595.8 1104.8,587.8 		"/>
		<path class="st13" d="M1114.2,573.4c0,0.6-0.1,1.2-0.2,1.8c-0.2,0.7-0.5,1.4-1,2c-0.4,0.4-0.7,0.8-1.2,1.2
			c-0.6,0.5-1.2,1.1-1.8,1.6c-1,0.8-2,1.7-2.9,2.6c0,0,0,0-0.1,0c-1-1-2-1.9-3.1-2.8c-0.6-0.5-1.2-1-1.8-1.6
			c-0.4-0.4-0.8-0.8-1.1-1.2c-0.5-0.6-0.8-1.2-1-2c-0.1-0.3-0.1-0.7-0.2-1c0-0.3,0-0.6,0-1c0-1.6,1.1-3,2.7-3.4
			c1.1-0.3,2.3-0.1,3.3,0.6c0.5,0.3,0.9,0.8,1.2,1.3c0,0,0,0,0.1,0c0.3-0.5,0.8-1,1.3-1.4c0.5-0.3,1-0.6,1.6-0.6
			c1-0.1,2.1,0.1,2.8,0.8c0.6,0.5,1,1.2,1.2,1.9C1114.2,572.6,1114.3,573,1114.2,573.4z"/>
		<path class="st14" d="M1415.9,436.7l4.4,5.6c0.3,0.4,0.3,1.1-0.2,1.4c-0.1,0.1-0.2,0.1-0.3,0.2c-2,0.3-3.6,2-3.8,4
			c-0.5,4.5,0.7,8.4,6.1,9.4c3,0.6,4.5-0.7,5.2-1.8c0.3-0.5,0.9-0.6,1.4-0.3c0.1,0.1,0.3,0.2,0.3,0.3l3.9,6c0.3,0.5,0.2,1.1-0.3,1.4
			c-2.2,1.5-8.6,5.1-15.8,1.7c-8.7-4.2-15.8-19.7-2.1-27.9C1415.1,436.2,1415.6,436.3,1415.9,436.7z"/>
		<ellipse class="st5" cx="1491.4" cy="337.5" rx="15.9" ry="14.6"/>
		<polygon class="st5" points="1498.5,347.6 1499,358.6 1491.2,350.9 		"/>
		<path class="st13" d="M1495.9,344.2l-1.9-0.7c3-7.8-0.4-12.5-0.6-12.6l1.6-1.2C1495.2,329.9,1499.3,335.3,1495.9,344.2z"/>
		<circle class="st13" cx="1487.9" cy="332.3" r="1.3"/>
		<circle class="st13" cx="1487.9" cy="341.5" r="1.3"/>
		<path class="st15" d="M601.3,692.7c-3.3-2.9-8.1-5.2-12.6-4.6c-2.4,0.3-4.6,1.7-5.8,3.8c-6.8,6.6-3.6,17.5,1.2,24.7
			c2.6,3.9,6.3,7.2,11.2,7.5c5,0.4,8.6-2.9,11.6-6.5C612.8,710.5,607.5,698.2,601.3,692.7z"/>
		<path class="st16" d="M601.6,654.9c-3.9-3.6-8.6-1.4-10.7,2.6l-0.1,0.1c-3,5.2-3.3,12.4,1.2,16.9c4.3,4.2,11.3,2.4,14-2.7
			C609.2,666,606.1,659,601.6,654.9z"/>
		<path class="st16" d="M635.4,663.1c-4.2-2.2-7.5-1.8-10.9,1.1c-0.3,0.1-0.5,0.4-0.7,0.6c-3.3,4.2-6.8,8.7-7.4,14.2
			c-0.4,3.3,0.1,6-1.1,9.3c-1.1,2.7-1.7,5.6-1.7,8.6c0,8.3,6.9,21.9,16.8,14.3c4.6-3.6,4.5-9.5,5.3-14.7c1-7.2,2.4-14.4,3.6-21.6
			C640,669.9,640.3,665.8,635.4,663.1z"/>
		<g class="st17">
			<path class="st18" d="M1291.7,332.6c-0.3-0.8,0.4,0.5-0.1-0.3c-9.1-0.3-16.1,2.5-23.7,2.8c0.2,11.9-4.4,25-11.3,35.5
				c0.2,5.3,0.5,12.5,1,18.3c-1.7,0.2-3.2,1.3-3.9,2.9c-0.5,1.1-0.8,2.3-0.1,3c1.6,1.6,0.2,5.5,0.2,5.5s-1.7,10.4,1.1,11.8
				c0.8,0.4,1.8-0.7,2.9-2.5c0.1,1,0.6,1.9,1.4,2.5c2.9,1.4,9.1-16.9,8.7-19.1c-0.1-0.8-0.4-1.5-0.7-2.2c4.1-6.5,9.6-17.1,12.4-22.3
				h1.7c1.6,0,3.1-1,3.7-2.5C1287.8,359.1,1294.3,340.9,1291.7,332.6z"/>
		</g>
		<path class="st19" d="M1257.6,384.6c0,0-3.9,4.8-2.2,6.4s0.2,5.5,0.2,5.5s-1.7,10.4,1.1,11.8s9.1-16.9,8.7-19.1
			c-0.2-1.3-0.7-2.4-1.4-3.5L1257.6,384.6z"/>
		<path class="st20" d="M1265.6,358.3c0,0-8.3,34-5.4,34.1s16.7-27.7,18.6-30.7S1265.6,358.3,1265.6,358.3z"/>
		<path class="st21" d="M1256.6,385.1c-2.2-0.4-4.4,0.8-5.4,2.9c-0.5,1.1-0.8,2.3-0.1,3c1.6,1.6,0.2,5.5,0.2,5.5s-1.7,10.4,1.1,11.8
			s9.1-16.9,8.7-19.1c-0.2-1.3-0.7-2.4-1.4-3.5L1256.6,385.1z"/>
		<path class="st22" d="M1253.8,359.8c0,0,0.6,35,3.4,34.4s9.1-31,10.3-34.4S1253.8,359.8,1253.8,359.8z"/>
		<path class="st11" d="M1215.7,309.6v11.1c0,5.5,3,10.5,7.7,13.1l18.9,10.4c2.5,1.4,4.1,4.1,4.1,7v7.5c0,2,1.5,3.8,3.5,4l14.3,1.8
			c0.3,0,0.6,0.1,0.9,0.1c1.9,0,9.7,0,13.9,0c1.6,0,3.1-1,3.7-2.5c2.6-6.7,9.1-24.9,6.5-33.2c-3.3-10.3-27.3-19.3-27.3-19.3H1215.7z
			"/>
		<path class="st5" d="M1262.2,261.2v17.9h14.8l-2-18.9c-1.5,1.5-3.5,2.3-5.6,2.3C1267,262.4,1264.6,262,1262.2,261.2z"/>
		<rect x="1263" y="268.3" class="st23" width="12.9" height="1"/>
		<circle class="st23" cx="1266.5" cy="266.1" r="0.7"/>
		<path class="st22" d="M1262.8,218.2l-16.3-2.8l-8.3,6.3l3.4,7.6l-5,2.9l-1.2,8.2l1.7,7.6l8.2,8.8h3.7l2.3-7.8l0.9-5.9
			c1.8,0.5,3.6,0.6,5.4,0.3C1268.1,241.2,1262.8,218.2,1262.8,218.2z"/>
		<polygon class="st5" points="1234.5,257 1236.9,279.1 1259.7,280.6 1253.8,254.6 		"/>
		<path class="st23" d="M1260.3,281.1l-23.8-1.6l-2.5-23l20.2-2.6L1260.3,281.1z M1237.4,278.6l21.6,1.4l-5.6-24.9l-18.3,2.3
			L1237.4,278.6z"/>
		<line class="st24" x1="1246.7" y1="255.3" x2="1248.3" y2="279.8"/>
		
			<rect x="1247" y="255.2" transform="matrix(0.9978 -6.610060e-02 6.610060e-02 0.9978 -14.9535 83.0446)" class="st23" width="1" height="24.6"/>
		<path class="st5" d="M1233,255.9l9.7,7.7c0.4,0.3,1.1,0.3,1.4-0.2c0.1-0.2,0.2-0.4,0.2-0.6v-6.9c0-0.3-0.1-0.5-0.3-0.7l-7.6-7.6
			c-0.4-0.4-1-0.4-1.4,0c-0.1,0.1-0.2,0.3-0.2,0.4l-2.2,6.8C1232.5,255.2,1232.7,255.7,1233,255.9z"/>
		<path class="st23" d="M1243.3,264.3c-0.3,0-0.7-0.1-0.9-0.3l-9.7-7.7c-0.5-0.4-0.7-1-0.5-1.6l2.2-6.8c0.3-0.8,1.1-1.2,1.9-1
			c0.2,0.1,0.4,0.2,0.6,0.4l7.6,7.6c0.3,0.3,0.4,0.7,0.4,1.1v6.9c0,0.6-0.3,1.1-0.8,1.4C1243.8,264.3,1243.5,264.3,1243.3,264.3z
			 M1235.8,247.9L1235.8,247.9c-0.3,0-0.4,0.2-0.5,0.3l-2.2,6.8c-0.1,0.2,0,0.4,0.2,0.5l9.7,7.7c0.2,0.2,0.5,0.1,0.7-0.1
			c0.1-0.1,0.1-0.2,0.1-0.3v-6.9c0-0.1-0.1-0.3-0.2-0.4l-7.6-7.6C1236,247.9,1235.9,247.9,1235.8,247.9z"/>
		<path class="st25" d="M1251.1,256.7l2.1-8.5l1.8,0.4c5.5,2.4,9.1,7.8,9.1,13.8v50.1l-11.8-2.8L1251.1,256.7z"/>
		<path class="st26" d="M1221.4,254.1l11.7-3.1l4.3,9.6c1.8,3.9,2.7,8.1,2.7,12.4v41.7h-11.6c-4.6,0-9-1.6-12.5-4.4l-2.2-1.8
			L1221.4,254.1z"/>
		<path class="st27" d="M1234.3,279.6h-9.6v-11h9.6V279.6z M1225.8,278.6h7.6v-9h-7.6V278.6z"/>
		<rect x="1224.9" y="271.5" class="st27" width="9" height="1"/>
		<circle class="st27" cx="1229.5" cy="275.3" r="0.6"/>
		<path class="st5" d="M1243,298.6l-19.1-9.6c-3.1-1.6-4.8-4.9-4.3-8.3l4.4-29.3l-3-2.5l-6,1.9c-5.4,1.7-9.3,6.3-10.2,11.9l-1.5,9.3
			c-0.7,4.2-0.5,8.5,0.7,12.6l0,0c2.4,8.8,8.8,15.9,17.4,19.2l19.9,7.6L1243,298.6z"/>
		<path class="st4" d="M1236.6,318.6l-8.3-6.8v-3.2h12.8v7.5c0,1.7-1.3,3-3,3l0,0C1237.5,319.1,1237,318.9,1236.6,318.6z"/>
		<path class="st28" d="M1238,319.6c-0.7,0-1.3-0.2-1.8-0.6l-8.5-7v-3.9h13.8v8C1241.5,318,1240,319.6,1238,319.6L1238,319.6z
			 M1228.7,311.5l8.2,6.7c0.3,0.3,0.7,0.4,1.2,0.4c1.4,0,2.5-1.1,2.5-2.5v-7h-11.8L1228.7,311.5z"/>
		<path class="st4" d="M1238.3,276.9h50.5c1.7,0,3,1.3,3,3v36.2c0,1.7-1.3,3-3,3h-50.5c-1.7,0-3-1.3-3-3v-36.2
			C1235.3,278.3,1236.6,276.9,1238.3,276.9z"/>
		<path class="st28" d="M1288.8,319.6h-50.5c-1.9,0-3.5-1.6-3.5-3.5v-36.2c0-1.9,1.6-3.5,3.5-3.5h50.5c1.9,0,3.5,1.6,3.5,3.5v36.2
			C1292.3,318,1290.7,319.6,1288.8,319.6z M1238.3,277.4c-1.4,0-2.5,1.1-2.5,2.5v36.2c0,1.4,1.1,2.5,2.5,2.5h50.5
			c1.4,0,2.5-1.1,2.5-2.5v-36.2c0-1.4-1.1-2.5-2.5-2.5H1238.3z"/>
		<line class="st24" x1="1228.2" y1="308.6" x2="1235.3" y2="314.2"/>
		
			<rect x="1231.2" y="306.9" transform="matrix(0.6209 -0.7839 0.7839 0.6209 222.8336 1083.6259)" class="st28" width="1" height="9"/>
		<circle class="st4" cx="1263.5" cy="298" r="3.8"/>
		<path class="st28" d="M1263.5,302.4c-2.4,0-4.3-1.9-4.3-4.3s1.9-4.3,4.3-4.3s4.3,1.9,4.3,4.3l0,0
			C1267.8,300.4,1265.9,302.4,1263.5,302.4z M1263.5,294.7c-1.8,0-3.3,1.5-3.3,3.3s1.5,3.3,3.3,3.3s3.3-1.5,3.3-3.3l0,0
			C1266.8,296.2,1265.3,294.7,1263.5,294.7L1263.5,294.7z"/>
		<ellipse class="st15" cx="1255.9" cy="212" rx="13.4" ry="9.8"/>
		<circle class="st15" cx="1242.8" cy="206.7" r="11.4"/>
		<ellipse class="st15" cx="1233.8" cy="221.7" rx="11.3" ry="15"/>
		<ellipse class="st15" cx="1227.1" cy="242" rx="10.5" ry="14.8"/>
		<ellipse class="st15" cx="1227.1" cy="248.2" rx="6.8" ry="11.5"/>
		<ellipse class="st15" cx="1236.4" cy="237.6" rx="8.6" ry="12.4"/>
		<polygon class="st23" points="1219,289.3 1218,289.1 1218.7,286.1 1216.3,286.6 1216.1,285.6 1220,284.8 		"/>
		<path class="st5" d="M1248.7,254.3l2.7,5.4c0.2,0.5,0.8,0.7,1.3,0.5c0.2-0.1,0.4-0.3,0.5-0.5l3.4-7.8c0.1-0.3,0.1-0.7-0.1-1
			l-3.3-4.1c-0.3-0.4-1-0.5-1.4-0.2c-0.1,0.1-0.2,0.2-0.3,0.4l-2.8,6.5C1248.5,253.8,1248.6,254.1,1248.7,254.3z"/>
		<path class="st23" d="M1252.3,260.7c-0.6,0-1.1-0.3-1.3-0.8l-2.7-5.4c-0.2-0.4-0.2-0.9,0-1.3l2.8-6.5c0.3-0.8,1.2-1.1,2-0.8
			c0.2,0.1,0.4,0.2,0.6,0.4l3.3,4.1c0.4,0.4,0.4,1,0.2,1.6l-3.4,7.8C1253.5,260.3,1252.9,260.7,1252.3,260.7L1252.3,260.7z
			 M1252.3,246.9L1252.3,246.9c-0.2,0-0.4,0.1-0.5,0.3l-2.8,6.5c-0.1,0.1-0.1,0.3,0,0.4l0,0l2.7,5.4c0.1,0.2,0.3,0.3,0.5,0.3
			s0.4-0.1,0.4-0.3l3.4-7.8c0.1-0.2,0-0.4-0.1-0.5l-3.3-4.1C1252.6,246.9,1252.5,246.9,1252.3,246.9z"/>
		<path class="st22" d="M1268.4,254.7c0,0,3.9-2.5,5.7-3.5s5.6-6.5,7.5-4.7s-1.2,3.7-1.5,4.8s0.2,3.8-1.6,5.6
			c-1.8,1.8-4.3,6.5-8.2,6.9s-6.6-0.8-7.4-3.5s-0.5-5.1,0.7-6.4c0,0,2-6.1,3.7-5.5S1267.8,252.8,1268.4,254.7z"/>
		<polygon class="st12" points="1250.3,347.9 1244.3,345.2 1250.1,340 1250.8,340.7 1246.1,344.9 1250.7,347 		"/>
		
			<rect x="1245.2" y="344.1" transform="matrix(0.9877 -0.1561 0.1561 0.9877 -38.4772 199.1936)" class="st12" width="7.6" height="1"/>
		<path class="st12" d="M1267.6,326.2c-3.5-0.4-7.4-0.7-7.8-0.6l-0.2-1c0.5-0.1,5.3,0.3,8.2,0.6L1267.6,326.2z"/>
		
			<rect x="1217.5" y="313.7" transform="matrix(0.6445 -0.7646 0.7646 0.6445 191.2434 1043.6555)" class="st12" width="1" height="4.9"/>
		
			<rect x="1283.2" y="334.3" transform="matrix(0.7368 -0.6761 0.6761 0.7368 112.2417 958.0211)" class="st12" width="6.9" height="1"/>
		
			<rect x="1279.1" y="325.3" transform="matrix(0.974 -0.2265 0.2265 0.974 -40.4589 298.944)" class="st12" width="6.7" height="1"/>
		<path class="st22" d="M1198.8,653.8h9.8v-6c3.2-0.7,6-2.9,7.4-5.9c2.7-6-1.5-20.8-1.5-20.8s-22.1,11.5-21.4,12.3
			S1198.8,653.8,1198.8,653.8z"/>
		<rect x="1228.1" y="551.4" transform="matrix(0.6 -0.8 0.8 0.6 45.0958 1224.7828)" class="st7" width="38.4" height="31.8"/>
		
			<ellipse transform="matrix(0.6046 -0.7965 0.7965 0.6046 53.5234 1211.8724)" class="st29" cx="1247.4" cy="552" rx="2.4" ry="2.4"/>
		
			<rect x="1256.1" y="552.5" transform="matrix(0.6046 -0.7965 0.7965 0.6046 51.4248 1222.5135)" class="st29" width="2" height="14"/>
		
			<rect x="1235.1" y="567.7" transform="matrix(0.6046 -0.7965 0.7965 0.6046 30.9897 1211.7673)" class="st29" width="2" height="14"/>
		
			<rect x="1247.1" y="554.3" transform="matrix(0.6046 -0.7965 0.7965 0.6046 43.213 1217.6826)" class="st29" width="2" height="22"/>
		
			<rect x="1242.8" y="558.6" transform="matrix(0.6046 -0.7965 0.7965 0.6046 40.0791 1214.9313)" class="st29" width="2" height="17"/>
		
			<rect x="1237.1" y="563.2" transform="matrix(0.6045 -0.7966 0.7966 0.6045 37.4615 1210.7711)" class="st29" width="2" height="9"/>
		
			<rect x="1251.3" y="556.8" transform="matrix(0.6046 -0.7965 0.7965 0.6046 48.4393 1219.2477)" class="st29" width="2" height="8"/>
		<path class="st22" d="M1240,656.7l15.2-18.5c0.4-0.4,0.6-1,0.7-1.6l4.8-43.7c0.1-0.5,0.2-1,0.6-1.4l3-4.2c1.5-2,1.9-4.6,1.2-7
			l-2.4-7.7l-5.4,7.3c-0.7,0.9-1.9,1.1-2.8,0.4c-0.3-0.2-0.5-0.4-0.6-0.7c-0.6-1.2-1-2.4-1.4-3.7s-2.7,0.3-2.8,1.7l0.3,10.1
			c0,0.7,0.2,1.4,0.6,2l1.4,1.9c0.6,0.8,0.8,1.8,0.5,2.7l-12.6,40.7c-0.2,0.6-0.5,1.1-1,1.4l-9.3,7.6L1240,656.7z"/>
		<path class="st5" d="M1184,666.8l-26.6,36.7c-0.6,0.9-0.5,2.1,0.4,2.7l15.5,12.3l-0.3,25.3c0,0,50.3,2,50.5,0s4.6-55.3,5.2-62.9
			c0-0.6,0.3-1.1,0.6-1.6l16.8-21.8c0.6-0.8,0.5-2-0.3-2.7l-13.9-12.4c-0.7-0.6-1.7-0.7-2.5-0.1l-15.6,11.4
			c-0.9,0.7-2.2,0.8-3.2,0.2l-8.8-0.2l-6.3-1.2L1184,666.8z"/>
		
			<rect x="1170.6" y="710.6" transform="matrix(0.5709 -0.821 0.821 0.5709 -78.1244 1272.814)" class="st23" width="16" height="1"/>
		<rect x="1180" y="698.6" class="st23" width="3.1" height="1"/>
		
			<rect x="1177.6" y="702.4" transform="matrix(0.8719 -0.4897 0.4897 0.8719 -192.9669 668.1575)" class="st23" width="5.9" height="1"/>
		
			<rect x="1212.5" y="711.5" transform="matrix(0.6247 -0.7809 0.7809 0.6247 -98.197 1219.6143)" class="st23" width="14.4" height="1"/>
		
			<rect x="1180.3" y="722" transform="matrix(0.8869 -0.4619 0.4619 0.8869 -200.7515 627.2457)" class="st23" width="1" height="3.4"/>
		<path class="st23" d="M1223,660.1h-1c0.2-1.7-0.3-3.4-1.5-4.5c-2-1.7-5.2-1.2-5.3-1.2l-0.2-1c0.2,0,3.8-0.6,6.1,1.4
			C1222.6,656.2,1223.2,658.2,1223,660.1z"/>
		<path class="st23" d="M1216.6,658.1c-0.6-1.2-1.8-2-3.2-2.1v-1c1.7,0.1,3.2,1.1,4.1,2.6L1216.6,658.1z"/>
		<polygon class="st23" points="1227.8,678.6 1225.5,674.3 1226.4,673.9 1228.7,678.1 		"/>
		
			<rect x="1228.1" y="671.3" transform="matrix(0.9079 -0.4191 0.4191 0.9079 -168.6335 576.7995)" class="st23" width="1" height="1.8"/>
		<path class="st11" d="M1199,605.3c-1.1,0-5.3-6.2-12.3-3.7c-17,6-23.3,35-27.3,41.7s-16.3,9.7-14.3,21s4.3,10,7.3,11.7
			s4.7,10,11,10.7s11.3-6,15-5.7s7,2.3,11.7,1c4.5-1.3,8.4-15.1,9-25.9c0-0.7,0.4-1.3,0.9-1.6c1.1-0.6,3-2.9,5.4-10.6
			c2.1-6.8,1.8-10.1,1.1-11.6c-0.3-0.9,0-1.9,0.7-2.4c3.2-2.2,9.4-7.2,7.2-13.2C1211.3,608.7,1207.3,605,1199,605.3z"/>
		<path class="st22" d="M1163.6,708.3l-6.6,9c-0.9,1.3-2.7,1.6-4.1,0.7l-31.1-20.4c-0.2-0.1-0.3-0.3-0.4-0.5l-3.5-8.7
			c-0.2-0.6-0.6-1.1-1-1.6c-1.7-1.8-5.9-6.3-7-4.3c-1.4,2.5,4.8,9.4,4.8,9.4s-7.7-4-8.8-6.3c-1.9-3.6,0.4-6.8-1.9-7.4
			s-2.4,5.8-2.4,5.8s-2.3-4.1-3.6-2.7c-0.9,1,1.6,8,1.6,8s-2-1.1-2.6,0.3s4.6,7.3,7.5,9.3s11.6,4,13,3.9c1.2,0,27.2,23.1,35.7,30.7
			c1.5,1.3,3.8,1.3,5.3,0l17.5-15.4L1163.6,708.3z"/>
		<path class="st30" d="M1469.3,513.6c-6.6-0.1-13.2-1.3-19.4-3.5l-10.9,7.3l2.1,3.8l-2-3.6c-0.5-1-1.8-1.3-2.7-0.8
			c0,0-0.1,0-0.1,0.1l-4.9,3.3c-0.7,0.5-1.1,1.4-0.8,2.3l-1.4,0.7c-0.3,0.1-0.6,0.1-0.9,0l-1.1-0.5l0,0l-0.9-0.4l-5.1-2.5l0,0
			l-0.9-0.4l-4.6-2.3c-0.8-0.4-1.7-0.2-2.3,0.3l-3.7,3.5l-0.1-0.1l-1.3,1.5l23.3,21l0.7-0.7l5.8-5.8c0.5,0.8,1.6,1.1,2.4,0.7
			l5.8-2.5c0.9-0.4,1.4-1.4,1.1-2.3l0.2,0.4l29.2-19.5c-0.9,0-2,0-2.9,0C1472.4,513.6,1470.9,513.6,1469.3,513.6z"/>
		<path class="st30" d="M1564.6,521.8c0-0.2,0-0.4,0-0.6h-1.3c-13-0.1-25.6-4-36.3-11.3c-3.6-0.9-7-2.3-10.3-4
			c-8.1,4-9.3,8.7-25.9,7.6l18.3,7.9l-24.5,17.7c-1.9,1.3-3.1,3.4-3.3,5.7c-1,10.7-3.9,41.6-2.3,47c-0.8,0.3-1.3,1.2-1.3,2.1
			l0.6,5.3c0.1,1,1,1.8,2,1.8v1.7c0,0.3-0.2,0.6-0.4,0.8l-1,0.7l0,0l-0.8,0.6l-4.6,3.4l0,0l-0.8,0.6l-2.3,1.7
			c5.1-1.4,10.3-2.2,15.6-2.3c1.5,0,2.9-0.1,4.4,0c1.5-0.1,3,0,4.5,0s2.8-0.1,4.2,0l-2.8-7.9c0.9-0.2,1.4-1,1.4-1.9v-6.5
			c0-1.1-0.9-2-2-2c-0.1,0-0.2,0-0.2,0l-0.7,0.1l2.1-33.1c0.1-1.2,0.9-2.2,2-2.6l58.6-21.5c0.8,1.7,1.6,2.9,2.2,3.1
			c1.6,0.5,3.4,0.3,4.8-0.7c-0.1-3-0.4-6.4,0-9.4C1564.2,524.3,1564.7,523.3,1564.6,521.8z"/>
		<path class="st31" d="M1427.6,517l-2.5,1.3c-0.3,0.1-0.6,0.1-0.9,0l-12.5-6.2c-0.8-0.4-1.7-0.2-2.3,0.3l-4.4,4.2l23.3,21l7.4-7.5
			L1427.6,517z"/>
		
			<rect x="1415.7" y="511.5" transform="matrix(0.6684 -0.7438 0.7438 0.6684 77.6401 1228.5463)" class="st6" width="2" height="31.4"/>
		<path class="st6" d="M1430.4,528.8c-3.6,0-7.1-1.4-9.8-3.8c-2.8-2.5-6.6-3.5-10.2-2.7l-0.5-1.9c4.3-1,8.8,0.2,12.1,3.2
			c4.7,4.3,10.6,3.3,11.3,2.8l1.1,1.7C1433.1,528.6,1431.8,528.8,1430.4,528.8z"/>
		
			<rect x="1414.5" y="514.4" transform="matrix(0.4366 -0.8996 0.8996 0.4366 333.8736 1563.9126)" class="st6" width="2.3" height="2"/>
		
			<rect x="1417.5" y="516.1" transform="matrix(0.4639 -0.8859 0.8859 0.4639 302.5004 1534.1068)" class="st6" width="2.5" height="2"/>
		
			<rect x="1420.6" y="517.5" transform="matrix(0.4296 -0.903 0.903 0.4296 342.7124 1579.6453)" class="st6" width="2.4" height="2"/>
		<path class="st4" d="M1511.8,519.6l-31.6-14.7c-1-0.5-2.1-0.4-3,0.2l-33.6,22.9l-8.7-15.6l36.3-24.4l56.8,8.1L1511.8,519.6z"/>
		<path class="st32" d="M1435.1,512.7l8.2,14.5c0.5,1,0.2,2.2-0.8,2.7c-0.1,0-0.1,0.1-0.2,0.1l-5.8,2.5c-1,0.4-2.1,0-2.6-0.9
			l-7.4-13.7c-0.5-0.9-0.2-2,0.7-2.6l4.9-3.3c0.9-0.6,2.2-0.4,2.8,0.6C1435,512.6,1435,512.7,1435.1,512.7z"/>
		
			<rect x="1475.2" y="499.9" transform="matrix(0.1466 -0.9892 0.9892 0.1466 766.8414 1889.6981)" class="st32" width="6.8" height="1"/>
		
			<rect x="1475.7" y="499.1" transform="matrix(0.8742 -0.4856 0.4856 0.8742 -57.8631 779.9418)" class="st32" width="1" height="5.1"/>
		<path class="st31" d="M1476.2,594.9v2.8c0,0.3-0.2,0.6-0.4,0.8l-11.3,8.2c-0.7,0.5-1,1.4-0.8,2.2l1.6,5.8l29.4-10.9l-3.2-10
			L1476.2,594.9z"/>
		
			<rect x="1464.5" y="608.1" transform="matrix(0.9376 -0.3478 0.3478 0.9376 -119.4497 552.8123)" class="st6" width="31.4" height="2"/>
		<path class="st6" d="M1472.8,612.5l-1.9-0.5c1.2-4.3,4.3-7.7,8.4-9.2c6-2.2,7.9-7.9,7.8-8.7l2-0.2c0.2,1.8-2.1,8.3-9.1,10.8
			C1476.5,606,1473.8,608.9,1472.8,612.5z"/>
		<path class="st25" d="M1527.8,499.9l-47.4,34.2c-1.9,1.3-3.1,3.4-3.3,5.7c-1.1,11.3-4.2,45.2-2,47.7c2.7,3,15.3,0,15.3,0l2.2-35.7
			c0.1-1.2,0.9-2.2,2-2.6l63.5-23.3C1558.2,525.9,1534.3,495.5,1527.8,499.9z"/>
		<path class="st33" d="M1485.8,588.4c-0.1-1.4-1.6-34.6,3.7-42.8c3.8-5.9,57.7-29.4,62.7-30.5l0.2,1c-6.6,1.5-58.6,24.7-62.1,30.1
			c-5,8-3.5,41.9-3.5,42.3L1485.8,588.4z"/>
		<path class="st33" d="M1473.6,588.9l0.6,5.3c0.1,1,1,1.8,2.1,1.8l15.4-0.7c1.1,0,1.9-0.9,1.9-2v-6.5c0-1.1-0.9-2-2-2
			c-0.1,0-0.2,0-0.2,0l-16,1.8C1474.3,586.9,1473.5,587.9,1473.6,588.9z"/>
		<path class="st34" d="M1533.4,465.3c0,0-29.5,22.3-36.2,22.9s-1,5.7-1,5.7s27.5-7.7,39-16.3S1533.4,465.3,1533.4,465.3z"/>
		<path class="st11" d="M1521.2,502.3l9.2-14.8c0.7-1.1,0.9-2.4,0.7-3.6c-2-9.9-7.9-55.5,10.7-64.4c11.7-5.6,17.8,2.3,22.6,9.7
			c3.4,5.3,5.5,11.3,6.4,17.5c0.7,4.7,1.7,11.6,2.4,16.7c0.9,5.4,0.8,11-0.2,16.4c-1.1,6.3-2.8,15.2-4,20.9
			c-0.7,3.4-1.2,6.8-1.5,10.2c-0.4,4.7-1.3,11.7-2.4,13.4c-1.8,2.8-4.8,8-9.8,6.5c-2.2-0.7-5.2-13.1-11.5-17
			C1533.5,507.3,1520,508.6,1521.2,502.3z"/>
		<path class="st22" d="M1527,379c0,0,0.3,15.5-4.5,19.3s4.5,4.3,4.5,4.3s-3,9.5,0.5,11.8c3.3,2.2,7.5,2.7,11.3,1.5
			c3.5-1.3,2.3,8.3,2.3,8.3c1.1,2.5,3.8,3.9,6.5,3.3c4.8-1,8.3-3,8.8-4.5s-2.8-17.3,0-21.8s-13.5-22-13.5-22H1527V379z"/>
		<path class="st15" d="M1538.2,394.4v4.3c0,0.3,0.1,0.5,0.3,0.7l1.8,1.8c0.4,0.4,1,0.4,1.4,0c0.1-0.1,0.2-0.3,0.3-0.4
			c0.7-2.7,2.4-7.5,5.3-6.3c4,1.7-0.3,10,3,12.7s5.3,1,6.7,0c0.8-0.6,6.3-11.9,9.6-18.6c2-4.2,0.9-9.5-3-12.1
			c-1.2-0.8-2.6-1.3-4.2-1.3c-5.3,0.1-10.3-0.7-14-2.7c-3.2-1.8-9.2-8.8-10.7-10.6c-0.2-0.3-0.5-0.4-0.9-0.3
			c-2.5,0.3-12.7,2.6-9.8,16.6C1527.2,394.1,1538.2,394.4,1538.2,394.4z"/>
		<path class="st12" d="M1545.1,432.3c-3.4,0.1-6.3-2.3-6.7-5.6l1-0.1c0.3,1.8,1.4,3.3,3,4.2c2.4,1.2,5.8,0.6,10.2-1.7l0.5,0.9
			C1550.6,431.3,1547.9,432.1,1545.1,432.3z"/>
		<path class="st12" d="M1565.2,443.4c-2.1-3.3-4.4-5-6.8-5l0,0c-4.1,0-7.2,4.9-7.2,5l-0.8-0.5c0.1-0.2,3.4-5.4,8-5.4l0,0
			c2.7,0,5.3,1.8,7.6,5.4L1565.2,443.4z"/>
		
			<rect x="1545.1" y="456.3" transform="matrix(0.2343 -0.9722 0.9722 0.2343 740.4597 1853.7948)" class="st12" width="3.8" height="1"/>
		<path class="st12" d="M1558.7,507.1c-5.1-6.3-9.7-7.1-9.7-7.2l0.2-1c0.2,0,4.9,0.9,10.3,7.5L1558.7,507.1z"/>
		<path class="st12" d="M1556.1,499.6c-0.5-0.9-1.3-1.6-2.2-2.1l0.4-0.9c1.2,0.6,2.1,1.5,2.7,2.6L1556.1,499.6z"/>
		
			<rect x="1468.3" y="603.5" transform="matrix(0.8051 -0.5931 0.5931 0.8051 -72.3131 989.2848)" class="st6" width="2" height="2.3"/>
		
			<rect x="1468.2" y="597.7" transform="matrix(0.8211 -0.5708 0.5708 0.8211 -79.0043 945.7668)" class="st6" width="2" height="2.5"/>
		<rect x="1473.8" y="599.6" transform="matrix(0.8 -0.6 0.6 0.8 -65.5012 1005.0382)" class="st6" width="2" height="2.4"/>
		<polygon class="st5" points="1503.3,498 1529.1,493.9 1521.7,489.5 1496.3,491.9 1499.9,498.7 		"/>
		<path class="st22" d="M1501,495.9l62.5-3c0,0,6.8-2.7,5.3-25.5c-0.4-6.7-16.3-6.8-16.8-2.5s0,16.8,0,16.8l-52.5,9.5L1501,495.9z"
			/>
		<polygon class="st5" points="1448.8,460.5 1447.5,463.1 1460.2,495.7 1500.8,498.7 1503.3,498 1488.7,461.9 		"/>
		<path class="st35" d="M1500.8,499L1500.8,499l-40.8-3l-0.1-0.1l-12.7-32.7l1.4-2.9h0.2l40.1,1.4l0.1,0.1l14.8,36.4L1500.8,499z
			 M1460.3,495.5l40.4,3l2.3-0.7l-14.5-35.7l-39.6-1.4l-1.1,2.4L1460.3,495.5z"/>
		<polyline class="st5" points="1447.5,463.1 1486.6,464.5 1500.8,498.7 		"/>
		<polygon class="st35" points="1500.5,498.8 1486.4,464.7 1447.5,463.4 1447.5,462.9 1486.8,464.2 1501,498.6 		"/>
		<line class="st24" x1="1486.6" y1="464.5" x2="1488.7" y2="461.9"/>
		
			<rect x="1485.8" y="462.8" transform="matrix(0.6222 -0.7828 0.7828 0.6222 199.4115 1339.3834)" class="st35" width="3.3" height="0.5"/>
		<path class="st13" d="M1467.7,484.5L1467.7,484.5z M1467.5,484.7v-0.1h0.1l0,0c0,0,0,0.1,0,0s0-0.1,0-0.1h0.1l0.1-0.1l0,0l0,0h0.1
			c0,0,0-0.1,0.1-0.2l0,0c0,0,0,0.1-0.1,0.2c0,0,0,0,0.1,0v-0.1c-0.1-0.1,0.1-0.3,0.1-0.5s-0.1,0.3-0.1,0.3V484v0.1l0.1-0.3
			l-0.1,0.3l0,0c0,0,0.1-0.5,0.2-0.7s0.2-0.6,0.2-0.7c0.3-0.9,0.6-1.8,1-2.7c0,0,0-0.1,0.1-0.2s0,0,0.1,0l0,0c0,0,0,0.1,0,0s0,0,0,0
			c0.2,0.8,0.5,1.6,0.9,2.3c0.2,0.3,0.4,0.5,0.6,0.6l0.3,0.2c0.1,0.1,0.2,0.2,0.3,0.2h0.1c0.1,0.1,0.2,0.2,0.4,0.2s0.1,0,0.1,0
			s0.2,0.2,0.3,0.2s0,0,0.1,0s0,0,0,0s0.3,0,0.3,0.1s0.1,0.1,0.1,0.1h0.1l0.1,0.1l0,0l0.1,0.1h-0.1c0,0,0.1,0.1,0.2,0.1
			s0.2,0.3,0.4,0.3s0,0,0,0l0.1,0.1l0,0l0,0c0.2,0.2,0.4,0.3,0.6,0.3c0.1,0,0.2,0,0.2,0c0.2,0,0.3-0.1,0.5-0.2
			c0.3-0.3,0.6-0.6,0.8-0.9c0.1-0.1,0.2-0.3,0.2-0.4c0.2-0.3,0.3-0.6,0.4-0.9c0.1-0.2,0.2-0.4,0.2-0.5s0.1-0.2,0.1-0.2
			s0,0.1,0.1,0.2s0,0,0,0s0.1,0.2,0.2,0.3s-0.1-0.3,0-0.1l0.2,0.4c0,0.1,0,0.1,0.1,0.1s-0.2-0.2,0-0.2s0.1,0.2,0.1,0.1
			s-0.1-0.2,0-0.2s0.1,0.2,0.1,0.2l0.1,0.2c0,0,0,0.1,0,0s-0.2-0.3-0.1-0.3s0.1,0.1,0.1,0.2s0.1,0.1,0.1,0.2s0,0,0-0.1s0,0,0,0l0,0
			l0,0l0,0l0,0l0,0l0,0c0,0,0,0.1,0.1,0.1c0-0.1,0-0.2-0.1-0.2c-0.1-0.2,0,0,0.1,0.1s0-0.1-0.1-0.2s-0.1-0.2-0.1-0.2
			c0.1,0.1,0.1,0.2,0.2,0.3c0,0.1,0-0.1,0-0.1s-0.1-0.1,0-0.1l0.1,0.1c0,0,0.1,0.2,0.2,0.3s0,0,0-0.1c-0.1-0.2-0.1-0.5-0.2-0.7
			s0.1,0.1,0.1,0.2s0.1,0.2,0.1,0.3c0-0.2,0.1,0.1,0.1,0.1l0.1,0.2c0,0-0.1-0.1-0.1-0.2s0,0,0,0s-0.1-0.3-0.2-0.5s-0.1-0.1-0.1-0.2
			s0,0,0.1,0.1l0.2,0.6c0,0.1,0,0.2,0.1,0.2c0,0,0,0,0.1,0.1s0,0.1,0,0.1c0-0.1,0-0.1,0-0.2s-0.1-0.1-0.1-0.3s-0.1-0.1-0.1-0.2
			s0.1,0.2,0.1,0.2s0.1,0.2,0.1,0.3s-0.1-0.2-0.1-0.2l0,0c0,0-0.1-0.1,0-0.1s0.1,0.2,0.1,0.2v-0.1c0,0-0.1-0.1,0-0.1s0-0.1,0-0.2
			s-0.1-0.1,0-0.1s0.1,0.1,0.1,0.1s-0.1-0.3-0.1-0.4l0,0c0-0.1,0-0.2-0.1-0.3c-0.1-0.3-0.2-0.5-0.2-0.9v-0.1c0,0,0,0.1,0.1,0.1
			s0,0,0,0s0,0.2,0.1,0.3c0,0.1,0.1,0.2,0.1,0.3l0,0l0,0v0.1c0.1,0.3,0.2,0.5,0.3,0.8c0-0.1,0-0.1,0,0c0,0,0-0.1,0,0s0,0,0-0.1
			s0,0,0,0c0.1,0.2,0.2,0.6,0.3,0.9s0-0.1,0-0.1c0-0.1,0-0.1-0.1-0.2v-0.1c0,0,0-0.2,0-0.1s0,0.2,0.1,0.2s0,0.1,0.1,0.1
			s0.1,0.1,0.1,0.1c0-0.1-0.1-0.2-0.1-0.3c0-0.1-0.1-0.2-0.1-0.3v-0.1l0,0l0,0l0,0v0.1c0.1,0.1,0.1,0.3,0.2,0.5s-0.1-0.2-0.1-0.2
			c-0.1-0.3-0.2-0.6-0.2-0.9l0,0c0,0,0,0,0-0.1s0,0,0,0l0,0l0,0l0,0l0,0l0,0l0,0l0,0l0,0c0,0,0,0,0,0.1s0,0,0,0
			c0.1,0.2,0.2,0.4,0.2,0.6c0,0.1,0,0.1,0.1,0.2c0,0,0-0.1,0,0c0.1,0.2,0.1,0.4,0.2,0.6c0.1,0.1,0-0.1,0-0.1v-0.2c0,0,0,0.1,0.1,0.2
			c0-0.1,0-0.1,0-0.2s-0.1-0.3,0-0.1c0,0.1,0.1,0.1,0.1,0.2c0-0.1-0.1-0.2-0.1-0.2c0-0.1,0-0.1,0-0.2s0.1,0.2,0.1,0.2s0-0.1,0,0
			s0,0,0-0.1s0-0.1,0-0.1c-0.1-0.2,0,0.1,0.1,0.1s0-0.2,0,0c0,0.1,0.1,0.3,0.2,0.4c0.1,0.2,0-0.1,0-0.1c0-0.1,0-0.1,0-0.2
			c0,0.1,0.1,0.2,0.1,0.3l0,0c0.1,0.1,0.1,0.3,0.1,0.3s0-0.1,0,0s0-0.1,0-0.2l0,0c0-0.1,0-0.3-0.1-0.4c0,0,0-0.1-0.1-0.2
			c0-0.1,0-0.1,0-0.2l0,0c0-0.2-0.1-0.4-0.1-0.6s0,0,0,0.1s0,0.1,0.1,0.2c0-0.1,0-0.1,0-0.2s0,0,0-0.1s0,0,0,0s0-0.1,0,0s0,0,0,0
			s0,0,0,0.1s0,0.1,0.1,0.2l0,0c0,0,0,0,0,0.1v0.1l0,0c0,0,0.1,0.1,0.1,0.2s0-0.2,0-0.2c-0.1-0.3-0.2-0.6-0.2-1
			c-0.1-0.5-0.2-1.1-0.4-1.6l0,0l0,0l0,0l0,0c0-0.3-0.1-0.5-0.3-0.8l-0.1-0.1l0,0c0,0-0.1,0,0,0s0.1,0.1,0.1,0s-0.1-0.2-0.1-0.3
			c-0.1-0.1-0.1-0.1-0.2-0.2s0.1,0,0.1,0c-0.1-0.1-0.3-0.2-0.5-0.2h-0.1c-0.1,0-0.1-0.1-0.2-0.1c0,0,0,0-0.1,0s-0.1-0.1-0.1-0.1
			s-0.2,0-0.2-0.1s0,0,0,0s-0.2,0-0.3,0s-0.1,0-0.1,0s0,0.1,0,0s0.1-0.1,0-0.1s-0.1,0.1-0.1,0l0,0h-0.1v-0.1c0,0-0.3-0.1-0.2-0.1
			s-0.1,0-0.1,0s0.1-0.1-0.1-0.1s-0.1-0.1-0.2-0.1s-0.1,0-0.1,0h0.1h-0.1l-0.1-0.1l0,0l0,0c0,0-0.1,0-0.1-0.1h-0.1l0,0h-0.1
			c0,0,0,0,0-0.1l0,0l0,0c0,0,0,0-0.1,0s0,0,0,0l-0.2-0.1c0-0.1,0,0-0.1,0s0,0-0.1,0s0,0,0,0l0,0c-0.1,0-0.2,0-0.3-0.1
			c0,0,0,0,0-0.1s-0.1,0-0.1,0l0,0c-0.1,0-0.2,0-0.2,0s0,0-0.1,0s0,0-0.1,0c-0.2,0.1-0.3,0.3-0.4,0.5c-0.3,0.6-0.6,1.3-0.8,2
			c-0.2,0.7-0.5,1.2-0.7,1.8c0,0.1-0.1,0.3-0.2,0.3s0-0.1,0-0.1c0-0.2,0-0.5-0.1-0.6c0,0.2,0,0.4,0,0.6v0.1c0-0.1,0-0.1,0-0.2
			c-0.1-0.5-0.2-1-0.2-1.6c0-0.2,0-0.4,0-0.5c0-0.3-0.1-0.5,0-0.7c0-0.2-0.1-0.5-0.2-0.7c0-0.1-0.1-0.2-0.1-0.2
			c0-0.1-0.1-0.2-0.1-0.3c0,0-0.1,0-0.1-0.1s0.2,0.1,0.2,0.1l-0.1-0.1h-0.1l-0.1-0.1c-0.1-0.1-0.3-0.2-0.5-0.3s-0.1-0.1-0.2-0.1
			s-0.1-0.1-0.2-0.1h-0.1c-0.1,0-0.1-0.1-0.2-0.2s-0.1,0-0.1,0s0,0,0-0.1c0,0-0.2-0.1-0.3-0.2l0,0l0,0c0,0,0.1,0,0,0s0,0-0.1,0
			s0,0,0-0.1s-0.2,0-0.3-0.1s0,0-0.1-0.1h-0.1c0,0,0-0.1-0.1-0.1s0,0-0.1,0s0-0.1,0-0.1s-0.1-0.1-0.2-0.1s-0.3,0-0.3-0.1
			s0.1,0,0.1,0l0,0c0,0-0.1-0.1-0.2-0.1l0,0l0,0l0,0c0,0-0.2,0-0.3,0s0,0,0,0s0,0-0.1,0s0,0-0.1-0.1h-0.1l0,0h-0.1l0,0
			c-0.2,0-0.4,0-0.5,0.1c-0.6,0.5-1.1,1.2-1.5,1.9c-0.1,0.1-0.1,0.3-0.2,0.3h-0.1c0,0.1,0,0.1-0.1,0.1s0,0,0,0s0,0.1-0.1,0.1
			s0-0.1,0-0.1s-0.1,0.1-0.1,0s0-0.1-0.1-0.2s-0.1,0-0.1,0l0,0c0,0,0-0.1,0,0s0,0.1,0,0.1s0,0,0-0.1h-0.1c-0.1,0-0.1-0.2-0.1-0.1
			s0,0,0-0.1s0-0.1,0,0s0,0.1,0,0.1s-0.1-0.4-0.1-0.2s0,0,0-0.1s-0.1,0-0.1-0.1s-0.1,0-0.1,0v-0.1c0,0-0.1,0-0.1-0.1s0,0,0,0l0,0
			v0.1v-0.1l0,0l0,0l0,0l0,0c0-0.1,0,0-0.1,0s0-0.1,0,0s0-0.1,0-0.2s0,0-0.1,0s0,0,0,0s0,0-0.1,0s0,0,0,0h-0.1c0,0,0.1-0.1,0-0.1
			s-0.1,0.1-0.1,0.1c0-0.1,0-0.1,0-0.2c-0.1,0-0.1,0-0.2,0v0.1l0,0c0,0,0,0,0-0.1s-0.1-0.1-0.1-0.1s0,0.1-0.1,0.2c0.1-0.1,0,0.2,0,0
			c0,0,0.1-0.2,0-0.2s-0.1,0.1-0.2,0s0.1-0.1,0.1-0.1l0,0v0.1h-0.1c0,0,0,0.1-0.1,0.1s0,0,0-0.1s0,0,0,0s0,0,0-0.1s0,0,0,0l-0.1-0.1
			c0,0,0,0-0.1,0s-0.1,0-0.1,0l-0.1,0.1l0.1-0.2c0,0-0.1,0-0.2,0s0,0.1,0,0s0-0.1,0-0.1l0,0l0,0c0,0-0.1-0.1-0.1,0s0,0,0,0.1l0,0
			l0,0c0,0,0,0-0.1,0l0,0l0,0v-0.1c0,0,0,0.1-0.1,0.1s0-0.1,0-0.1s-0.1,0.2,0,0.2s0-0.1,0-0.1c0,0.1,0,0.1,0.1,0.2l0,0
			c0,0-0.1,0.1,0,0.1s0-0.1,0-0.1l0,0l0,0l0,0l0,0l0,0v-0.1v0.1l0.1,0.1h0.1c0,0.1,0,0.2,0,0.2c0,0.2,0,0.4,0.1,0.7
			c0,0.3,0,0.6,0.1,0.9c0.1,0.9,0.2,2.1,0.3,3.1c0,0.3,0.1,0.5,0.1,0.8c0,0.1,0.1,0.2,0.1,0.2v0.2l0,0v0.1c0,0,0,0,0.1,0v0.1
			c0.1,0.1,0.1,0.4,0.1,0.5s0-0.1,0-0.2v-0.1c0,0,0.1,0.1,0.1,0s0,0.3,0.1,0.3s0-0.1,0,0s0,0.1,0,0.1s0.1,0,0.1,0.1s0,0.2,0.1,0.1
			s0-0.1,0-0.1v0.1l0,0c0,0,0,0.2,0.1,0.2s0,0,0.1,0c0,0,0,0.1,0.1,0.1l0,0h0.1l0,0l0,0l0,0v0.1l0,0l0,0c0,0,0,0,0.1,0
			s0,0.1,0.1,0.1s0-0.1,0-0.1s0,0.1,0.1,0.1s0,0,0.1,0.1s0,0,0,0s0,0.1,0.1,0.1h0.1c0.1,0,0,0.1,0.1,0.1s0,0,0-0.1h0.1
			c0,0,0.1-0.1,0.1,0v0.1c0,0,0,0,0.1,0s0,0,0,0s0,0,0,0.1l0,0c0,0,0,0.1,0.1,0.1s0-0.1,0.1-0.1s0,0.1,0,0s0.1,0,0,0s0,0,0,0.1
			s0,0,0,0l0,0h0.1c0,0,0,0.1,0.1,0.1s0,0,0,0s0,0,0-0.1s0,0,0,0s0,0,0.1,0s0,0.1,0,0.1c0,0.1,0,0.1,0.1,0.1l0,0c0,0,0,0.1,0.1,0
			s0,0.1,0.1,0.1s0,0,0.1,0.1s0,0,0-0.1l0,0h0.1C1467,484.2,1467.5,484.6,1467.5,484.7L1467.5,484.7
			C1467.6,484.7,1467.5,484.7,1467.5,484.7z M1474.3,484.5L1474.3,484.5C1474.3,484.4,1474.3,484.5,1474.3,484.5L1474.3,484.5z
			 M1474.4,484.4L1474.4,484.4L1474.4,484.4L1474.4,484.4z M1477.8,482.2L1477.8,482.2C1477.8,482.2,1477.8,482.3,1477.8,482.2
			S1477.8,482.2,1477.8,482.2S1477.8,482.1,1477.8,482.2L1477.8,482.2z M1475.9,476.5L1475.9,476.5L1475.9,476.5L1475.9,476.5z
			 M1477.5,477.3L1477.5,477.3L1477.5,477.3L1477.5,477.3z M1478.7,477.8L1478.7,477.8C1478.7,477.8,1478.6,477.8,1478.7,477.8
			L1478.7,477.8z M1478.1,477.7L1478.1,477.7L1478.1,477.7L1478.1,477.7z M1478.4,477.7L1478.4,477.7
			C1478.5,477.7,1478.3,477.8,1478.4,477.7L1478.4,477.7z M1463.8,475.4L1463.8,475.4L1463.8,475.4L1463.8,475.4z M1463.8,475.5
			L1463.8,475.5C1463.8,475.5,1463.8,475.4,1463.8,475.5L1463.8,475.5z M1464.4,475.8L1464.4,475.8
			C1464.4,475.8,1464.3,475.9,1464.4,475.8L1464.4,475.8z M1464.8,476L1464.8,476C1464.8,476.1,1464.8,475.9,1464.8,476L1464.8,476z
			 M1464.8,476.2L1464.8,476.2L1464.8,476.2L1464.8,476.2z M1471.4,480.9L1471.4,480.9L1471.4,480.9L1471.4,480.9L1471.4,480.9
			L1471.4,480.9L1471.4,480.9L1471.4,480.9L1471.4,480.9L1471.4,480.9C1471.4,480.9,1471.4,481,1471.4,480.9L1471.4,480.9z
			 M1471.4,481L1471.4,481L1471.4,481L1471.4,481z M1471.5,481.4c-0.2-0.7-0.3-1.4-0.4-2.1c0-0.1-0.1-0.3,0-0.3s0.1,0,0,0
			s0,0.1,0,0.1c0,0.1,0,0.1,0,0.2C1471.2,480,1471.4,480.7,1471.5,481.4C1471.6,481.4,1471.5,481.5,1471.5,481.4L1471.5,481.4z
			 M1468.9,479.5L1468.9,479.5C1468.9,479.4,1468.8,479.6,1468.9,479.5L1468.9,479.5z M1468.9,479.4
			C1468.9,479.3,1469,479.4,1468.9,479.4S1468.8,479.5,1468.9,479.4L1468.9,479.4z M1468.9,479.3L1468.9,479.3
			C1468.9,479.4,1468.9,479.3,1468.9,479.3L1468.9,479.3z M1468.9,479.2L1468.9,479.2C1468.9,479.2,1469,479.3,1468.9,479.2
			L1468.9,479.2z M1468.5,478.9c0-0.1,0.1-0.3,0.2-0.4s0.1-0.3,0.2-0.4c0-0.1,0.1-0.1,0.1-0.2v0.1
			C1468.8,478.3,1468.6,478.6,1468.5,478.9C1468.4,479.1,1468.5,478.9,1468.5,478.9L1468.5,478.9z M1468.2,478.9L1468.2,478.9
			L1468.2,478.9L1468.2,478.9z M1468.5,478.2L1468.5,478.2C1468.5,478.3,1468.5,478.2,1468.5,478.2L1468.5,478.2z M1468.5,478.2
			L1468.5,478.2L1468.5,478.2L1468.5,478.2z M1468.4,478.2L1468.4,478.2L1468.4,478.2L1468.4,478.2z M1468.9,477.3L1468.9,477.3
			c-0.1,0.1-0.1,0.2-0.2,0.3c0,0,0,0.1-0.1,0.1l0,0c0,0.1-0.1,0.2-0.2,0.3c0,0.1,0,0,0,0c0-0.1,0.1-0.2,0.2-0.3l0,0
			c0,0,0-0.1,0.1-0.1C1468.7,477.6,1468.8,477.5,1468.9,477.3c0,0,0.1,0,0.1-0.1L1468.9,477.3z M1468.6,478
			C1468.6,478.1,1468.6,478,1468.6,478S1468.7,478,1468.6,478L1468.6,478z M1468.6,478.1L1468.6,478.1
			C1468.6,478.1,1468.7,478,1468.6,478.1L1468.6,478.1z M1468.6,478.1L1468.6,478.1L1468.6,478.1L1468.6,478.1z M1468.6,478.1
			L1468.6,478.1L1468.6,478.1L1468.6,478.1z M1469.1,478.8L1469.1,478.8C1469.1,478.8,1469.1,478.9,1469.1,478.8L1469.1,478.8z
			 M1469.1,478.8C1469.1,478.8,1468.9,479.1,1469.1,478.8C1469,478.9,1469,478.9,1469.1,478.8L1469.1,478.8z M1471.6,481.5
			L1471.6,481.5C1471.6,481.5,1471.5,481.5,1471.6,481.5L1471.6,481.5z M1473.9,483.9l-0.2,0.2L1473.9,483.9L1473.9,483.9z
			 M1473.7,483.9L1473.7,483.9L1473.7,483.9L1473.7,483.9z M1474,483.9c0.1-0.1,0.1-0.1,0.1-0.1L1474,483.9v0.1V483.9z M1474,484.1
			l0.1-0.1C1474.3,483.8,1474.1,484.1,1474,484.1s0,0.1,0,0.1V484.1z M1474.6,484.3C1474.6,484.3,1474.5,484.3,1474.6,484.3
			S1474.7,484.4,1474.6,484.3L1474.6,484.3z M1476.8,481.5c0,0.1-0.1,0.2-0.2,0.4c-0.1,0.4-0.3,0.7-0.5,1.1s-0.4,0.7-0.6,1
			c0,0-0.2,0.3-0.3,0.3s0-0.1,0-0.1c0.3-0.4,0.6-0.8,0.8-1.3c0.1-0.3,0.2-0.4,0.3-0.8l0.1-0.4
			C1476.4,481.7,1476.6,481.5,1476.8,481.5L1476.8,481.5z M1478.4,481.8L1478.4,481.8c0,0,0.1,0,0,0.1V481.8z M1476.4,480.9
			c-0.3,1-0.8,2-1.4,2.8c0,0.1,0,0,0,0l0.2-0.3c0.1-0.1,0.1-0.2,0.2-0.3c0-0.1,0,0,0,0s0.2-0.3,0.3-0.5c0.2-0.5,0.4-1,0.6-1.5
			C1476.3,481,1476.4,480.9,1476.4,480.9C1476.5,480.8,1476.5,481,1476.4,480.9L1476.4,480.9z M1476.4,480.8
			c-0.3,0.9-0.7,1.7-1.2,2.5c-0.2,0.3-0.4,0.6-0.7,0.9c0,0.1,0,0,0,0s0.2-0.2,0.3-0.3l0,0c0,0.1,0,0,0,0c0.2-0.3,0.5-0.6,0.6-1
			c0.1-0.3,0.3-0.6,0.5-0.9s0.3-0.6,0.4-1c0-0.1,0.1-0.4,0.2-0.4s0,0.3,0,0.3L1476.4,480.8z M1474.1,483.6L1474.1,483.6v0.1V483.6z
			 M1476.3,480.5L1476.3,480.5v0.1V480.5z M1476.2,479.9c0,0.1-0.1,0.3-0.1,0.4c-0.3,1-0.8,1.9-1.3,2.8c-0.1,0.1-0.2,0.3-0.2,0.4
			c0,0-0.1,0.2-0.1,0s0.2-0.3,0.3-0.4s0.2-0.3,0.2-0.4c0.2-0.4,0.4-0.8,0.6-1.3s0.3-0.9,0.5-1.4c0.1,0,0.1-0.1,0.1,0V479.9z
			 M1474.5,483.1c0.1-0.2,0.3-0.5,0.4-0.6s0-0.1,0,0s0,0,0,0s0-0.1,0,0c0.4-0.8,0.7-1.6,1-2.4c0-0.1,0.1-0.4,0.2-0.5s0,0.1,0,0.2
			c-0.3,1.1-0.8,2.2-1.4,3.3l-0.1,0.2c0,0.1,0.3-0.5,0,0L1474.5,483.1z M1474.5,482.9L1474.5,482.9v0.1V482.9z M1475.7,480.8v0.1
			l0,0V480.8z M1475.6,481.1C1475.6,481.3,1475.5,481.2,1475.6,481.1V481c0.2-0.1,0.1,0.2,0,0.2V481.1z M1475.5,481.3L1475.5,481.3
			c0-0.1,0,0.3,0,0.1V481.3z M1475.5,481.4L1475.5,481.4v0.1V481.4z M1475.2,482.1L1475.2,482.1v0.1V482.1z M1475.2,482.2
			L1475.2,482.2c0-0.1,0,0.1,0,0.1V482.2z M1475.1,482.3L1475.1,482.3c0-0.1,0,0.1,0,0.1V482.3z M1475,482.5
			C1475,482.5,1475,482.6,1475,482.5c0,0,0,0.1-0.1,0.2C1474.8,482.9,1474.9,482.6,1475,482.5C1475.1,482.6,1475,482.5,1475,482.5
			v0.1V482.5z M1474.8,482.9L1474.8,482.9L1474.8,482.9L1474.8,482.9L1474.8,482.9L1474.8,482.9v0.1V482.9z M1474.5,483
			c0,0.1,0,0.1-0.1,0.1l-0.1,0.1c0,0-0.1,0.2-0.1,0.1s0.2-0.2,0.2-0.2S1474.4,483,1474.5,483v0.1V483z M1476.1,479.8
			c-0.1,0.3-0.2,0.6-0.3,0.8v0.1c0,0.1,0,0,0-0.1c0-0.2,0.1-0.4,0.2-0.6l0.1-0.4c0,0,0.1-0.2,0-0.1c0,0.1,0,0.2-0.1,0.3
			L1476.1,479.8z M1478.1,479.8c0,0.1,0.1,0.2,0.1,0.3s0.1,0.2,0,0.1c0,0.1,0-0.1-0.1-0.1S1478.1,479.8,1478.1,479.8
			c-0.1-0.1-0.1,0.1-0.1,0.1L1478.1,479.8z M1476.1,479.2L1476.1,479.2c-0.3,0.6-0.5,1.4-0.8,2c-0.1,0.2-0.2,0.4-0.3,0.6l-0.1,0.1
			c-0.1,0.1-0.1,0.2-0.1,0.3c-0.2,0.4-0.5,0.9-0.8,1.2c0,0-0.3,0.4-0.4,0.4s0.1-0.1,0.1-0.1c0.1-0.1,0.3-0.3,0.4-0.4
			c0.2-0.2,0.3-0.4,0.4-0.6c0-0.1,0-0.1,0.1-0.2c0-0.1,0.1-0.1,0.1-0.2c0,0,0,0,0-0.1s0.1-0.2,0.1-0.3c0.3-0.6,0.7-1.6,0.9-2.3
			c0-0.2,0.1-0.3,0.2-0.5c-0.1,0.1,0-0.1,0-0.1s0.1,0.2,0.1,0.3L1476.1,479.2z M1475.9,479.1C1475.9,479.1,1476,478.9,1475.9,479.1
			c-0.1,0.1-0.1,0.2-0.1,0.4c-0.3,0.8-0.5,1.5-0.9,2.3c-0.1,0.3-0.3,0.6-0.4,0.8c-0.1,0.3-0.3,0.6-0.6,0.8l-0.1,0.2l0.1-0.2
			c0.2-0.3,0.4-0.5,0.6-0.8c0.6-1.1,1-2.2,1.4-3.3V479.1z M1471.4,477.8C1471.4,477.8,1471.4,477.7,1471.4,477.8c0-0.1,0-0.1,0-0.2
			c0,0,0,0,0-0.1l0,0c0,0,0,0,0,0.1C1471.4,477.6,1471.4,477.7,1471.4,477.8C1471.4,477.7,1471.4,477.7,1471.4,477.8
			c0.1,0.6,0.1,1.3,0.2,2c0.1,0.6,0.2,1.2,0.3,1.7c0,0.1,0,0.2,0.1,0.2c0,0.1,0,0,0,0s0,0.1,0,0s-0.1-0.3-0.1-0.4
			c-0.2-0.9-0.3-1.8-0.4-2.7l0,0l0,0l0,0v-0.1l0,0c0-0.1,0-0.1,0-0.2s0-0.2,0-0.3c0,0,0,0,0-0.1s0,0,0,0s0-0.1,0,0s0,0,0,0v0.1
			c0,0.1,0,0.2,0,0.3c0,0.1,0,0.1,0,0.2l0,0v0.1l0,0l0,0l0,0c0,0.2,0,0.4,0.1,0.6c0,0,0,0,0,0.1s0,0.1,0,0.2
			C1471.5,479,1471.5,478.4,1471.4,477.8L1471.4,477.8z M1471.6,479.1L1471.6,479.1v0.1V479.1z M1471.8,480.8L1471.8,480.8
			L1471.8,480.8L1471.8,480.8L1471.8,480.8L1471.8,480.8L1471.8,480.8c0.1,0.3,0.1,0.5,0.2,0.7c0,0,0,0.1,0,0
			C1471.9,481.2,1471.8,481,1471.8,480.8L1471.8,480.8L1471.8,480.8L1471.8,480.8L1471.8,480.8L1471.8,480.8L1471.8,480.8
			c0,0,0,0,0,0.1V480.8z M1472.1,481.4L1472.1,481.4L1472.1,481.4L1472.1,481.4L1472.1,481.4c-0.3-1.3-0.4-2.7-0.5-4.1l0,0
			c0.1,0.7,0.2,1.4,0.2,2.1C1471.9,480.1,1472,480.8,1472.1,481.4L1472.1,481.4L1472.1,481.4L1472.1,481.4L1472.1,481.4
			c0,0-0.1,0.2-0.1,0.1L1472.1,481.4z M1472.5,480.8L1472.5,480.8v0.2V480.8z M1472.5,480.8L1472.5,480.8L1472.5,480.8L1472.5,480.8
			L1472.5,480.8L1472.5,480.8L1472.5,480.8L1472.5,480.8L1472.5,480.8L1472.5,480.8c0,0-0.1,0.2,0,0.1V480.8z M1472.5,480.5
			L1472.5,480.5L1472.5,480.5L1472.5,480.5L1472.5,480.5L1472.5,480.5l-0.1,0.1L1472.5,480.5z M1472.5,480.4L1472.5,480.4
			L1472.5,480.4L1472.5,480.4l-0.1,0.1L1472.5,480.4z M1472.4,479.8L1472.4,479.8L1472.4,479.8L1472.4,479.8
			C1472.4,479.9,1472.4,479.9,1472.4,479.8c0,0.1,0,0.2,0,0.2l0,0l0,0l0,0l0,0l0,0l0,0l0,0l0,0l0,0
			C1472.4,480,1472.4,479.9,1472.4,479.8L1472.4,479.8L1472.4,479.8L1472.4,479.8c0,0-0.1,0.1-0.1,0.2L1472.4,479.8z M1472.5,479.7
			L1472.5,479.7L1472.5,479.7C1472.5,479.7,1472.5,479.8,1472.5,479.7S1472.5,479.7,1472.5,479.7L1472.5,479.7l-0.1,0.1
			L1472.5,479.7z M1472.4,479.7C1472.4,479.7,1472.4,479.8,1472.4,479.7S1472.4,479.7,1472.4,479.7L1472.4,479.7L1472.4,479.7
			L1472.4,479.7L1472.4,479.7L1472.4,479.7L1472.4,479.7L1472.4,479.7L1472.4,479.7L1472.4,479.7L1472.4,479.7L1472.4,479.7
			L1472.4,479.7L1472.4,479.7l-0.1,0.1L1472.4,479.7z M1472.5,479.3C1472.5,479.3,1472.5,479.4,1472.5,479.3L1472.5,479.3
			c0,0.1,0,0.1,0,0.2l0,0l0,0c0,0,0,0.1,0,0s0,0,0,0l0,0C1472.5,479.5,1472.5,479.4,1472.5,479.3L1472.5,479.3
			C1472.5,479.4,1472.5,479.3,1472.5,479.3v-0.1l-0.1,0.2L1472.5,479.3z M1472.4,478.3L1472.4,478.3L1472.4,478.3v0.1
			c0,0.1,0,0.1,0,0.2s0,0.2,0,0.2l0,0l0,0v0.1v-0.1l0,0l0,0c0-0.1,0-0.2,0-0.2c0-0.1,0-0.1,0-0.2
			C1472.4,478.4,1472.4,478.4,1472.4,478.3L1472.4,478.3L1472.4,478.3c0,0-0.1,0-0.1,0.1L1472.4,478.3z M1471.9,477.2v0.1
			c0,0,0.1,0,0,0c0.1,0.2,0,0.4,0.1,0.6c0-0.2,0-0.4,0-0.5l0,0c0,0.1,0,0.3,0.1,0.4c0,0.1,0.1,0.1,0.1,0.2c0,0.2,0,0.5,0,0.7
			c0,0.1,0,0.2,0,0.3c0,0.6,0.2,1.2,0.2,1.7c0,0.1,0.1,0.4,0.1,0.4l0,0c0,0-0.1-0.2-0.1-0.3c-0.1-0.7-0.2-1.6-0.3-2.3
			c0,0.7,0.1,1.3,0.2,2l0.1,0.5c0,0,0,0.1,0,0.2s-0.1-0.1-0.1-0.1V481c0-0.2-0.1-0.4-0.1-0.7
			C1471.9,479.4,1471.9,478.3,1471.9,477.2c-0.1,0-0.1,0-0.1,0.1L1471.9,477.2z M1471.6,477c0.1,0.8,0.2,1.5,0.2,2.3
			c0,0.4,0.1,0.8,0.2,1.2c0.1,0.4,0.1,0.8,0.2,1.1l0,0c0,0,0,0.1-0.1,0c0-0.1-0.1-0.2-0.1-0.3c-0.1-0.7-0.2-1.3-0.3-2
			c0-0.1-0.1-0.2-0.1-0.3s0-0.1,0-0.1s0-0.3,0-0.4c0-0.3-0.1-0.6-0.1-0.9C1471.6,477.4,1471.6,477.2,1471.6,477
			c-0.1,0.1-0.1,0-0.1,0.1L1471.6,477z M1471.5,477.5L1471.5,477.5c0,0-0.1,0.2-0.1,0.1L1471.5,477.5z M1471.5,477.4L1471.5,477.4
			L1471.5,477.4C1471.4,477.4,1471.4,477.4,1471.5,477.4c0-0.1,0-0.2,0-0.2l0,0C1471.5,477.2,1471.5,477.3,1471.5,477.4
			L1471.5,477.4L1471.5,477.4L1471.5,477.4c0,0-0.1,0.2-0.1,0.1L1471.5,477.4z M1471.2,477.1c0-0.1,0-0.3,0.1-0.1
			c0.1,0.4,0.1,0.8,0.1,1.2c0.1,1.3,0.2,2.5,0.5,3.8c0.1,0,0,0,0,0l0,0h-0.1c0-0.1-0.1-0.1-0.1-0.2c-0.1-0.5-0.2-0.9-0.3-1.4l0,0
			l0,0l0,0l0,0l0,0l0,0l0,0l0,0l0,0v-0.1l0,0l0,0c-0.1-0.7-0.2-1.5-0.2-2.3c-0.2-0.2-0.2-0.4-0.2-0.6L1471.2,477.1z M1468.9,477
			L1468.9,477c0,0-0.2,0.1-0.1,0.1L1468.9,477z M1468.2,478.2c0.2-0.3,0.4-0.7,0.6-1l0.1-0.2l-0.2,0.3
			C1468.5,477.7,1468.4,477.9,1468.2,478.2c0,0.1,0,0.1,0,0.1s0-0.3-0.1,0L1468.2,478.2z M1468.7,477.5L1468.7,477.5l-0.1,0.1
			L1468.7,477.5z M1468.7,477.6L1468.7,477.6l-0.2,0.1L1468.7,477.6z M1468.1,479c0.1-0.2,0.1-0.3,0.2-0.5c0.2-0.4,0.4-0.8,0.6-1.2
			c0-0.1,0.1-0.2,0.2-0.3l0,0l0,0l0,0c0,0-0.1,0.2-0.1,0.3C1468.6,477.8,1468.3,478.4,1468.1,479c0,0-0.3,0.3-0.2,0.2L1468.1,479z
			 M1468.4,478.8L1468.4,478.8c0-0.1-0.2,0.2-0.2,0.2L1468.4,478.8z M1469,479.3c0-0.1,0.1-0.2,0.1-0.3s0-0.1,0.1-0.1
			c0,0.1-0.1,0.2-0.1,0.3l-0.1,0.2c-0.3,0.2-0.2,0.1-0.2,0.1L1469,479.3z M1469,479.4L1469,479.4c0,0.1-0.2,0.2-0.2,0.2L1469,479.4z
			 M1469,479.5L1469,479.5c0,0.1-0.3,0.2-0.3,0.2L1469,479.5z M1469,479.6L1469,479.6l-0.3,0.2L1469,479.6z M1466.5,483.4
			L1466.5,483.4c-0.3,0.2-0.4,0.1-0.3,0.2L1466.5,483.4z M1467.3,484v0.1v0.1h-0.3L1467.3,484z M1467.3,484.1L1467.3,484.1l-0.3,0.2
			L1467.3,484.1z M1467.7,484.4L1467.7,484.4l-0.3,0.2L1467.7,484.4z M1464.3,475.2L1464.3,475.2z M1464,475.1L1464,475.1z
			 M1466.1,476.5L1466.1,476.5c0,0-0.2,0.2-0.3,0.2L1466.1,476.5z M1472.2,476.3L1472.2,476.3z M1479.7,482.4L1479.7,482.4z
			 M1468.2,484.2L1468.2,484.2l-0.3,0.2L1468.2,484.2z M1480.1,481.8L1480.1,481.8z M1480.1,481.8L1480.1,481.8z M1480.1,481.7
			L1480.1,481.7l-0.3,0.2L1480.1,481.7z M1480.1,481.7L1480.1,481.7L1480.1,481.7z M1480.1,481.7L1480.1,481.7l-0.3,0.1
			L1480.1,481.7z M1480.1,481.7L1480.1,481.7l-0.3,0.1L1480.1,481.7z M1480.1,481.6C1480.1,481.6,1480.1,481.7,1480.1,481.6
			C1480.1,481.7,1480.1,481.7,1480.1,481.6L1480.1,481.6z M1480.1,481.5L1480.1,481.5v0.1C1480.1,481.6,1480.1,481.6,1480.1,481.5
			l-0.3,0.1L1480.1,481.5z M1479.8,482.7L1479.8,482.7z M1479.1,482L1479.1,482z M1479.1,482L1479.1,482z M1479.1,482L1479.1,482z
			 M1479.1,482L1479.1,482z M1479.1,481.8C1479.1,481.9,1479.2,481.8,1479.1,481.8z M1479.1,482L1479.1,482l-0.4,0.1L1479.1,482z
			 M1479.1,481.9L1479.1,481.9z M1479.1,482L1479.1,482l-0.4,0.1L1479.1,482z M1479.1,482L1479.1,482z M1479.1,482L1479.1,482z
			 M1479.8,479.5L1479.8,479.5z M1479.8,479.5L1479.8,479.5h-0.4H1479.8z M1478.9,482.8L1478.9,482.8z M1479.8,479.4L1479.8,479.4z
			 M1478.9,482.8L1478.9,482.8z M1479.8,479.4L1479.8,479.4h-0.4H1479.8z M1479.8,479.4C1479.8,479.4,1479.8,479.3,1479.8,479.4
			c0-0.1-0.4,0-0.4,0H1479.8z M1478.7,482.5L1478.7,482.5z M1478.7,482.5L1478.7,482.5h-0.4H1478.7z M1478.7,482.5L1478.7,482.5
			l-0.4-0.1L1478.7,482.5z M1478.7,482.5L1478.7,482.5l-0.4-0.1L1478.7,482.5z M1478.4,482.9L1478.4,482.9z M1478.7,480.6
			L1478.7,480.6l-0.4-0.1L1478.7,480.6z M1478.6,480.4L1478.6,480.4l-0.4-0.1L1478.6,480.4z M1478.6,480.4L1478.6,480.4z
			 M1477.6,482.4L1477.6,482.4z M1477.6,482.4L1477.6,482.4l-0.4-0.1L1477.6,482.4z M1477.6,482.4
			C1477.6,482.4,1477.6,482.3,1477.6,482.4c0-0.1-0.4-0.1-0.4-0.1L1477.6,482.4z M1477.6,482.3L1477.6,482.3l-0.4-0.1L1477.6,482.3z
			 M1478.7,477.7L1478.7,477.7c-0.6-0.1-0.3,0-0.4-0.1L1478.7,477.7z M1477.6,477.3C1477.6,477.3,1477.7,477.3,1477.6,477.3
			c0.1,0-0.4-0.1-0.4-0.1L1477.6,477.3z M1475.3,484L1475.3,484c-0.1,0.1-0.3-0.2-0.4-0.1L1475.3,484z M1475.4,482.5L1475.4,482.5
			l-0.4-0.1L1475.4,482.5z M1475.4,482.6C1475.4,482.6,1475.4,482.5,1475.4,482.6z M1475.4,482.6L1475.4,482.6L1475.4,482.6
			c0,0-0.5,0-0.5-0.1L1475.4,482.6z M1476.6,476.6L1476.6,476.6z M1472.9,481.4L1472.9,481.4z M1472.9,481.3L1472.9,481.3z
			 M1472.9,481.3L1472.9,481.3l-0.5-0.1L1472.9,481.3z M1472.9,481.3L1472.9,481.3l-0.5-0.1L1472.9,481.3z M1472.9,481.3
			L1472.9,481.3l-0.5-0.2L1472.9,481.3z M1472.9,481.3L1472.9,481.3z M1472.9,481.2L1472.9,481.2z M1473.1,480.2
			C1473.1,480.3,1473.1,480.3,1473.1,480.2c0.1-0.1,0-0.3-0.1-0.3s-0.3,0-0.4,0.1l0,0L1473.1,480.2z M1472.9,481.2L1472.9,481.2
			l-0.5-0.2L1472.9,481.2z M1472.9,481.2L1472.9,481.2z M1473.1,480.2L1473.1,480.2l-0.5-0.2L1473.1,480.2z M1473.1,480.2
			L1473.1,480.2l-0.5-0.3L1473.1,480.2z M1472.9,481.2L1472.9,481.2l-0.5-0.3L1472.9,481.2z M1473.1,480.2L1473.1,480.2l-0.5-0.3
			L1473.1,480.2z M1472.8,481.2L1472.8,481.2z M1473.1,480.2C1473.1,480.1,1473.1,480.1,1473.1,480.2z M1472.8,481.1L1472.8,481.1z
			 M1472.8,481.1L1472.8,481.1z M1473.1,480.1L1473.1,480.1z M1472.8,481.1L1472.8,481.1z M1473.1,480.1L1473.1,480.1l-0.5-0.3
			L1473.1,480.1z M1472.8,481.1L1472.8,481.1z M1473.1,480.1L1473.1,480.1l-0.5-0.4L1473.1,480.1z M1473.1,480L1473.1,480l-0.5-0.3
			L1473.1,480z M1472.8,481L1472.8,481l-0.5-0.4L1472.8,481z M1473.1,480L1473.1,480l-0.5-0.4L1473.1,480z M1473.1,480L1473.1,480
			l-0.5-0.4L1473.1,480z M1473.1,480C1473.1,480,1473.1,479.9,1473.1,480c0.1-0.2,0-0.4-0.1-0.5s-0.3,0-0.4,0.1l0,0L1473.1,480z
			 M1472.8,481L1472.8,481z M1472.8,481L1472.8,481z M1473.1,480L1473.1,480l-0.5-0.5L1473.1,480z M1472.8,481L1472.8,481z
			 M1472.4,482.3v0.1c0.2-0.1,0.2-0.4,0-0.6c-0.1-0.2-0.4-0.2-0.6,0L1472.4,482.3z M1473.1,480L1473.1,480l-0.5-0.5L1473.1,480z
			 M1472.8,481L1472.8,481z M1473.1,480L1473.1,480c0,0-0.6-0.6-0.5-0.6L1473.1,480z M1473.1,480L1473.1,480c0,0-0.6-0.6-0.5-0.6
			L1473.1,480z M1472.8,481L1472.8,481c0,0-0.6-0.6-0.5-0.6L1472.8,481z M1473.1,479.9L1473.1,479.9z M1472.4,482.3L1472.4,482.3
			l-0.5-0.6L1472.4,482.3z M1473.1,479.9L1473.1,479.9z M1472.8,480.9L1472.8,480.9l-0.6-0.6L1472.8,480.9z M1472.4,482.3
			L1472.4,482.3c0,0-0.5-0.6-0.6-0.6L1472.4,482.3z M1473.1,479.9L1473.1,479.9c0,0-0.6-0.6-0.5-0.6L1473.1,479.9z M1472.4,482.3
			L1472.4,482.3c0,0-0.5-0.6-0.6-0.6L1472.4,482.3z M1473.1,479.8L1473.1,479.8l-0.6-0.6L1473.1,479.8z M1472.8,480.8L1472.8,480.8
			l-0.6-0.6L1472.8,480.8z M1472.4,482.2C1472.4,482.2,1472.4,482.3,1472.4,482.2c0,0.1-0.5-0.6-0.6-0.6L1472.4,482.2z
			 M1473.1,479.8L1473.1,479.8l-0.6-0.6L1473.1,479.8z M1473.1,479.8L1473.1,479.8l-0.6-0.6L1473.1,479.8z M1472.8,480.8
			L1472.8,480.8l-0.6-0.6L1472.8,480.8z M1473.1,479.7L1473.1,479.7l-0.6-0.6L1473.1,479.7z M1472.4,482.2L1472.4,482.2
			c0,0-0.5-0.6-0.6-0.6L1472.4,482.2z M1473.1,479.7L1473.1,479.7z M1472.8,480.7L1472.8,480.7l-0.6-0.5L1472.8,480.7z
			 M1472.4,482.1L1472.4,482.1l-0.6-0.5L1472.4,482.1z M1473.1,479.5L1473.1,479.5z M1472.4,482.1L1472.4,482.1c0,0-0.5-0.5-0.6-0.5
			L1472.4,482.1z M1473.1,479.5L1473.1,479.5l-0.6-0.5L1473.1,479.5z M1472.4,482L1472.4,482l-0.6-0.5L1472.4,482z M1473.1,479.5
			L1473.1,479.5l-0.6-0.5L1473.1,479.5z M1472.4,482c0-0.1,0-0.1,0-0.2c0.1-0.2,0.1-0.4-0.1-0.5s-0.4-0.1-0.5,0.1L1472.4,482z
			 M1473.1,479.4L1473.1,479.4l-0.6-0.5L1473.1,479.4z M1473.1,479.4L1473.1,479.4l-0.6-0.6L1473.1,479.4z M1473,479.4L1473,479.4z
			 M1473,479.4L1473,479.4l-0.6-0.6L1473,479.4z M1473,479.4L1473,479.4l-0.6-0.6L1473,479.4z M1473,479.4L1473,479.4l-0.6-0.6
			L1473,479.4z M1472.3,481.9C1472.3,481.9,1472.3,482,1472.3,481.9c0,0.1-0.5-0.6-0.6-0.6L1472.3,481.9z M1473,479.3L1473,479.3
			l-0.6-0.6L1473,479.3z M1473,479.3L1473,479.3l-0.6-0.7L1473,479.3z M1472.3,481.9L1472.3,481.9c0,0-0.5-0.7-0.6-0.7L1472.3,481.9
			z M1473,479.2L1473,479.2z M1472.3,481.9L1472.3,481.9l-0.6-0.7L1472.3,481.9z M1473,479.2L1473,479.2l-0.6-0.7L1473,479.2z
			 M1472.3,481.8C1472.3,481.9,1472.3,481.9,1472.3,481.8c0.2-0.1,0.3-0.4,0.1-0.6c-0.2-0.2-0.5-0.3-0.7-0.1L1472.3,481.8z
			 M1473,479.2L1473,479.2z M1472.3,481.8L1472.3,481.8c0,0-0.5-0.7-0.6-0.7L1472.3,481.8z M1472.3,481.7L1472.3,481.7
			c0.2-0.1,0.3-0.4,0.1-0.6c-0.2-0.2-0.5-0.3-0.7-0.1L1472.3,481.7z M1472.3,481.7L1472.3,481.7l-0.6-0.7L1472.3,481.7z
			 M1472.3,481.7L1472.3,481.7l-0.6-0.7L1472.3,481.7z M1472.3,481.7L1472.3,481.7l-0.6-0.7L1472.3,481.7z M1472.3,481.7
			L1472.3,481.7l-0.6-0.8L1472.3,481.7z M1472.3,481.7L1472.3,481.7l-0.6-0.8L1472.3,481.7z M1472.3,481.7L1472.3,481.7
			c0.3-0.1,0.3-0.4,0.1-0.7c-0.2-0.3-0.5-0.3-0.8-0.1l0,0L1472.3,481.7z M1473,478.9L1473,478.9l-0.6-0.8L1473,478.9z M1472.3,481.6
			L1472.3,481.6l-0.6-0.8L1472.3,481.6z M1472.3,481.6L1472.3,481.6l-0.6-0.8L1472.3,481.6z M1473,478.8L1473,478.8z M1472.3,481.6
			L1472.3,481.6l-0.6-0.8L1472.3,481.6z M1473,478.8L1473,478.8l-0.6-0.8L1473,478.8z M1472.3,481.5L1472.3,481.5l-0.6-0.8
			L1472.3,481.5z M1473,478.7v0.1c0.3-0.2,0.3-0.5,0.2-0.8c-0.2-0.3-0.5-0.3-0.8-0.2l0,0L1473,478.7z M1472.3,481.5L1472.3,481.5
			l-0.6-0.8L1472.3,481.5z M1472.3,481.5L1472.3,481.5l-0.6-0.9L1472.3,481.5z M1472.3,481.5L1472.3,481.5l-0.6-0.9L1472.3,481.5z
			 M1473,478.7L1473,478.7l-0.6-0.9L1473,478.7z M1472.3,481.5L1472.3,481.5l-0.6-0.9L1472.3,481.5z M1473,478.6v0.1
			c0.3-0.2,0.4-0.5,0.2-0.8s-0.5-0.4-0.8-0.2l0,0L1473,478.6z M1472.3,481.5L1472.3,481.5l-0.6-0.9L1472.3,481.5z M1472.3,481.5
			L1472.3,481.5c0,0-0.6-0.9-0.6-1L1472.3,481.5z M1472.3,481.5L1472.3,481.5l-0.6-1L1472.3,481.5z M1472.3,481.5L1472.3,481.5
			l-0.6-1L1472.3,481.5z M1472.3,481.5L1472.3,481.5c0,0-0.6-1-0.6-1.1L1472.3,481.5z M1472.3,481.5L1472.3,481.5
			c0,0-0.6-1.1-0.7-1.1L1472.3,481.5z M1472.3,481.5L1472.3,481.5l-0.7-1.1L1472.3,481.5z M1472.3,481.5L1472.3,481.5
			c0,0-0.6-1.1-0.7-1.2L1472.3,481.5z M1472.7,479.9L1472.7,479.9c0-0.1-0.7-1.2-0.7-1.2L1472.7,479.9z M1472.3,481.4L1472.3,481.4
			l-0.7-1.2L1472.3,481.4z M1472.3,481.4L1472.3,481.4l-0.7-1.2L1472.3,481.4z M1472.7,479.9c0-0.1,0-0.2,0-0.3
			c-0.1-0.4-0.3-0.7-0.7-0.9L1472.7,479.9z M1472.2,481.4L1472.2,481.4l-0.7-1.2L1472.2,481.4z M1472.2,481.4L1472.2,481.4l-0.7-1.2
			L1472.2,481.4z M1472.2,481.4L1472.2,481.4c0,0-0.7-1.2-0.7-1.3L1472.2,481.4z M1472.2,481.4L1472.2,481.4l-0.7-1.3L1472.2,481.4z
			 M1472.2,481.4L1472.2,481.4l-0.7-1.3L1472.2,481.4z M1472.2,481.3C1472.2,481.4,1472.2,481.4,1472.2,481.3c0.4-0.1,0.5-0.6,0.4-1
			c-0.2-0.4-0.7-0.5-1-0.4L1472.2,481.3z M1472.2,481.3L1472.2,481.3c0.4-0.1,0.5-0.6,0.3-1s-0.7-0.5-1-0.3L1472.2,481.3z
			 M1472.7,479.7L1472.7,479.7l-0.7-1.3L1472.7,479.7z M1472.7,479.7L1472.7,479.7l-0.7-1.4L1472.7,479.7z M1472.2,481.2
			C1472.2,481.3,1472.2,481.3,1472.2,481.2c0.4-0.1,0.6-0.6,0.4-1s-0.7-0.6-1.1-0.4L1472.2,481.2z M1472.7,479.6L1472.7,479.6
			l-0.7-1.4L1472.7,479.6z M1472.1,481.8L1472.1,481.8z M1472.7,479.4c0,0.1,0,0.1,0,0.2c0.4-0.2,0.7-0.7,0.5-1.1s-0.7-0.7-1.1-0.5
			l0,0L1472.7,479.4z M1472.2,481.2L1472.2,481.2l-0.7-1.4L1472.2,481.2z M1472.1,481.8L1472.1,481.8z M1472.2,481.2L1472.2,481.2
			l-0.7-1.4L1472.2,481.2z M1472.1,481.8L1472.1,481.8z M1472.2,481.1L1472.2,481.1l-0.7-1.4L1472.2,481.1z M1472.2,481.1
			L1472.2,481.1l-0.7-1.4L1472.2,481.1z M1472,481.7L1472,481.7z M1472,481.5L1472,481.5z M1472,481.4L1472,481.4z M1472.9,478.2
			L1472.9,478.2z M1468.9,485.6L1468.9,485.6l-0.8-1.4L1468.9,485.6z M1468.9,485.6C1468.9,485.7,1468.9,485.6,1468.9,485.6z
			 M1468.9,485.1v-0.2l-0.8-1.1L1468.9,485.1z M1468.7,485.9L1468.7,485.9c-0.9-1.4-0.8-1.3-0.8-1.4L1468.7,485.9z M1468.6,485.9
			L1468.6,485.9l-0.8-1.4L1468.6,485.9z M1466.4,484.7L1466.4,484.7L1466.4,484.7z M1466.4,484.7L1466.4,484.7L1466.4,484.7z
			 M1466,484.4L1466,484.4z M1465.5,484.1L1465.5,484.1z M1465.2,483.2c-0.1-0.5-0.1-1.1-0.2-1.6s-0.1-0.8-0.2-1.3
			c0-0.1,0-0.3-0.1-0.4s0,0,0,0v0.3l0,0c0,0,0-0.2-0.1-0.3c0,0.2,0,0.5,0,0.7c0.1,0.5,0.1,0.9,0.2,1.3c0,0.2,0.1,0.4,0.1,0.6l0,0
			v0.1v0.1c0,0,0-0.3,0-0.1s0.1,0.2,0.1,0.4s-0.7-1.2-0.7-1.5L1465.2,483.2z M1465,482.6L1465,482.6c0,0-0.8-1.3-0.8-1.4L1465,482.6
			z M1466.2,477.8C1466.2,477.8,1466.2,477.7,1466.2,477.8l-0.8-1.4L1466.2,477.8z M1464.8,480C1464.8,480.1,1464.8,480,1464.8,480z
			 M1464.8,480C1464.8,479.9,1464.8,480,1464.8,480z M1464.7,480L1464.7,480z M1464.7,479.4L1464.7,479.4z M1464.7,479.4
			L1464.7,479.4z M1464.7,479.4L1464.7,479.4z M1464.7,479.4L1464.7,479.4l-0.8-1.5L1464.7,479.4z M1464.7,479.4L1464.7,479.4
			l-0.8-1.5L1464.7,479.4z M1465.2,477.2L1465.2,477.2z M1464.7,479.3L1464.7,479.3l-0.8-1.5L1464.7,479.3z M1464.7,479.3
			L1464.7,479.3l-0.8-1.6L1464.7,479.3z M1464.7,479.3L1464.7,479.3l-0.8-1.6L1464.7,479.3z M1465.2,477.2L1465.2,477.2l-0.8-1.6
			L1465.2,477.2z M1464.7,479.3L1464.7,479.3l-0.8-1.6L1464.7,479.3z M1464.7,479.2C1464.6,479.2,1464.6,479.3,1464.7,479.2
			c0.5-0.2,0.6-0.7,0.4-1.2s-0.8-0.6-1.3-0.4L1464.7,479.2z M1464.7,479.1C1464.6,479.2,1464.6,479.2,1464.7,479.1
			c0.5-0.2,0.6-0.7,0.4-1.2s-0.8-0.6-1.3-0.4L1464.7,479.1z M1464.7,479.1L1464.7,479.1c0,0-0.9-1.6-0.9-1.7L1464.7,479.1z
			 M1464.7,479.1C1464.6,479.1,1464.6,479.1,1464.7,479.1c0.5-0.2,0.7-0.8,0.4-1.2s-0.8-0.7-1.3-0.4l0,0L1464.7,479.1z
			 M1464.7,479.1L1464.7,479.1z M1464.7,479L1464.7,479z M1464.7,479L1464.7,479z"/>
		<path class="st12" d="M1568.9,465.8c-0.4,0-0.7-0.2-1-0.4c-2.8-2.7-8.6-4.6-15.5-1.2c-0.7,0.4-1.6,0.1-2-0.7
			c-0.1-0.2-0.1-0.4-0.2-0.6V454h1v8.8c0,0.2,0.1,0.3,0.2,0.4s0.3,0.1,0.5,0c7.4-3.6,13.6-1.5,16.6,1.4c0.2,0.2,0.4,0.2,0.6,0.1
			s0.3-0.3,0.3-0.5l-1.8-7l1-0.3l1.8,7.1c0.2,0.8-0.4,1.6-1.2,1.8C1569.2,465.8,1569.1,465.8,1568.9,465.8L1568.9,465.8z"/>
		<path class="st36" d="M1541.3,728.4c0.5,0.3,1.1,0.1,1.4-0.4c0.1-0.2,0.1-0.4,0.1-0.7c-0.9-4.8-1.4-9.7-1.3-14.6
			c0.2-2.3,0.6-4.6,1.2-6.9c0.3-1.1-0.1-2.2-0.9-3c-2.8-2.5-9.1-6.9-11.8,3.5C1527,717.8,1536.8,725.9,1541.3,728.4z"/>
		
			<ellipse transform="matrix(0.6169 -0.787 0.787 0.6169 51.5751 1483.1115)" class="st36" cx="1549.3" cy="688.6" rx="2.7" ry="4.2"/>
		<path class="st36" d="M1551.6,705.6l-0.2,0.1c-0.9,0.4-7.8,3.8-1.9,18.8c6.3,16,17.7,21.3,18.5,21.3s2-16.2-2.3-29
			S1558.7,703.5,1551.6,705.6z"/>
		<path class="st15" d="M1872.7,308.4c0-2.1-1.5-3.8-3.6-4.1c-8.1-1.8-17-5-25.3-4.9c-6.3,0.1-15.2,3.2-13.9,11.1
			c1.4,9,12.5,8.1,19.1,7.8c7.7-0.4,16.4,0.6,22.7-4.3C1873.5,312.7,1874,310.3,1872.7,308.4
			C1872.7,308.5,1872.7,308.5,1872.7,308.4z"/>
		<path class="st15" d="M1869.5,256.8c-0.6-2.5-1.3-4.9-1.8-7.4s-1.1-5-1.4-7.5c0.9,2.4,2,4.6,3.1,6.9s2.3,4.5,3.4,6.8
			c2,3.8,7.9,11.9,11.2,17c3.6-4.9,3.2-11.6,2.1-17.3c-0.8-4.1-2-8.1-3.5-12c0-0.6-0.1-1.1-0.3-1.7c-3.1-9.3-7.2-32.1-21.5-29.6
			c-5.9,1-11.2,7.3-13.6,12.4c-2.8,6.1-3.1,12.8-1.9,19.3c2.4,12.2,10.5,24.8,21.9,30.2c3.5,1.6,7.6,3,11.2,2.2
			C1876.5,271.3,1871.8,264.3,1869.5,256.8z"/>
		<path class="st15" d="M1851,283.5c-1.8-1.8-3.7-3.6-5.5-5.4s-3.6-3.6-5.2-5.6c2,1.5,4.1,2.9,6.3,4.3s4.3,2.6,6.5,3.9
			c3.8,2.2,7.6,4.4,11.4,6.6c0-0.9-0.3-1.7-0.7-2.5c-3.8-6.4-7.4-12.8-11.3-19.1c-3.6-6-7.9-8.8-14.4-11c-5.7-1.9-12.3-3.1-17,1.4
			c-4.1,3.9-4.7,10.3-3.3,15.6c3.6,12.5,16.2,17.4,27.5,20.8c4.8,1.5,11.9,4.9,16.4,1.1C1858.2,290.3,1854.6,286.9,1851,283.5z"/>
		<path class="st15" d="M80.4,706.9c-0.2,0.1-0.4,0.2-0.5,0.3c-1.6,1.3-10.9,8.7-14.2,17.5c-3.7,9.7-5.5,16.2-3.3,18
			s15.2-4.7,21.3-14.8S92.9,702.2,80.4,706.9z"/>
		<path class="st15" d="M103.7,645c-13-11.5-24.2,5.4-32,13.5c-6,6.2-16.6,40.5-17.4,43.9c0,0.2,0,0.4,0,0.6c0,0.1,0,0.3,0.1,0.5
			L80.2,675l-21.6,33.4c0.5,0.2,1,0.3,1.5,0.3C73.4,710.3,116.7,656.5,103.7,645z"/>
		<path class="st22" d="M1395.6,278.6l12.8-11.8l15.5,19c0.6,0.8,1.1,1.3,0.5,2l-5.1,6c-0.7,0.8-1.8,0.9-2.6,0.4l-1.6-0.5
			c-0.8-0.5-1.9-0.4-2.6,0.3l0,0c-0.4,0.4-1,0.4-1.4,0l0,0L1395.6,278.6z"/>
		<path class="st37" d="M1413.3,290.8c-0.6-1-1.9-1.2-3.4-0.8c0.4-0.6,0.4-1.4,0.1-2.1c-0.5-0.8-1.4-1.1-2.3-1
			c0.3-0.6,0.3-1.3,0-1.9c-0.6-0.8-1.6-1.2-2.5-1c0.5-0.7,0.6-1.6,0.2-2.4c-0.7-1.2-2.8-1.3-4.6-0.3s-2.8,2.9-2,4.1
			c0.6,0.8,1.6,1.2,2.5,1c-0.5,0.7-0.6,1.6-0.2,2.4c0.5,0.8,1.4,1.1,2.3,1c-0.3,0.6-0.3,1.3,0,1.9c0.6,1,1.9,1.2,3.4,0.8
			c-0.4,0.6-0.4,1.4-0.1,2.1c0.7,1.2,2.8,1.3,4.6,0.3S1414,292,1413.3,290.8z"/>
		<path class="st37" d="M1420.2,292.6c1,1,2.3,1.5,3.8,1.5c1.6-0.2,3.1-0.9,4.2-2c0.4-0.5,2.6-10.8,2.6-10.8s-4.3-0.5-6.5-2.1
			c-1.3-1-1.9-4.3-4.6-5.6c-1.3-0.6-3.6-1.7-5.5-1.3c-0.9,0.2-3.8,0.8-5,2.7c-1.5,2.4-1.1,6.5,0,7.2s3.7-0.7,4.7-2.2
			c0.5-0.8,1.1-1.5,1.8-2.2l0.8,0.7c0.6,0.5,1.1,1.1,1.7,1.6c0.8,1.4,1.5,2.8,2.1,4.3c0.2,0.4,0.4,0.8,0.6,1.1l1,1.5
			c0.1,0.2,0.2,0.5,0.3,0.8l0.1,0.4c0.1,0.5,0,1-0.3,1.4L1420.2,292.6z"/>
		<polygon class="st5" points="1388.7,271.8 1394.4,279.4 1408.3,266.9 1402.1,257.8 		"/>
		<path class="st23" d="M1394.4,280.1l-6.3-8.4l14.1-14.7l6.8,10L1394.4,280.1z M1389.4,271.8l5.2,6.9l13.1-11.8l-5.7-8.3
			L1389.4,271.8z"/>
		
			<rect x="1394.3" y="267.7" transform="matrix(0.8016 -0.5979 0.5979 0.8016 113.7205 888.0186)" class="st23" width="1" height="9.9"/>
		<circle class="st23" cx="1397.2" cy="270.2" r="1"/>
		<polygon class="st5" points="1429.8,279.4 1427.2,295.2 1437.9,298.7 1439.8,280.4 		"/>
		<path class="st23" d="M1438.4,299.3l-11.8-3.8l2.8-16.6l11,1.1L1438.4,299.3z M1427.8,294.8l9.8,3.2l1.8-17.1l-9-0.9L1427.8,294.8
			z"/>
		
			<rect x="1432.7" y="286.7" transform="matrix(0.2895 -0.9572 0.9572 0.2895 738.6143 1579.3925)" class="st23" width="1" height="11"/>
		<circle class="st23" cx="1433.2" cy="289" r="1"/>
	</g>
</g>
</svg>
