<svg id="Слой_1" data-name="Слой 1" xmlns="http://www.w3.org/2000/svg" viewBox="0 0 25 25">
    <defs>
        <style>.cls-1{fill:#fff;}</style>
    </defs>
    <title>vk</title>
    <path class="cls-1"
          d="M3,6.24H4.58a1.1,1.1,0,0,1,1,.7A19.27,19.27,0,0,0,6.76,9.31a17.63,17.63,0,0,0,1.46,2.27,3,3,0,0,0,.55.57,1.18,1.18,0,0,0,.21.13.45.45,0,0,0,.64-.21,1.75,1.75,0,0,0,.17-.46c.06-.28.09-.57.12-.86A13.28,13.28,0,0,0,9.93,9a5.66,5.66,0,0,0-.14-1.28,1.22,1.22,0,0,0-.51-.79,1.76,1.76,0,0,0-.58-.23l-.15,0c-.09,0-.12-.07-.08-.16a.9.9,0,0,1,.13-.21,1.54,1.54,0,0,1,.81-.49,5.28,5.28,0,0,1,1-.15c.71,0,1.43,0,2.14,0a5,5,0,0,1,1.23.16,1,1,0,0,1,.79.87,4.9,4.9,0,0,1,0,1.17s0,0,0,.06q0,1,0,2c0,.41,0,.82,0,1.23a2.15,2.15,0,0,0,.13.74.89.89,0,0,0,.26.37.34.34,0,0,0,.35.06,1.17,1.17,0,0,0,.39-.24,5.39,5.39,0,0,0,.81-.93,18.58,18.58,0,0,0,2-3.56l.3-.72a1.65,1.65,0,0,1,.13-.24.63.63,0,0,1,.58-.3h.15l3.68,0a2.48,2.48,0,0,1,.73.06l.17.06a.49.49,0,0,1,.29.54,2.63,2.63,0,0,1-.3.94,11.89,11.89,0,0,1-.91,1.51c-.61.88-1.28,1.72-1.93,2.58-.2.27-.39.54-.57.83a2.13,2.13,0,0,0-.19.45.62.62,0,0,0,.07.53,2.45,2.45,0,0,0,.34.46c.29.29.59.58.89.86a16,16,0,0,1,2,2.12c.17.23.32.48.47.73a1.27,1.27,0,0,1,.17.44.63.63,0,0,1-.22.63,1.38,1.38,0,0,1-.69.29,2.26,2.26,0,0,1-.36,0l-2.85,0h-.08A2.3,2.3,0,0,1,18.79,19a4.65,4.65,0,0,1-1.13-1l-.93-1a3.69,3.69,0,0,0-.65-.6,1.47,1.47,0,0,0-.33-.17.58.58,0,0,0-.59.11,1.34,1.34,0,0,0-.39.6,3.71,3.71,0,0,0-.2,1c0,.19,0,.38,0,.57a.76.76,0,0,1-.59.76,1.34,1.34,0,0,1-.43.07H12.11A7,7,0,0,1,10.24,19,8.69,8.69,0,0,1,7,17.22a12.51,12.51,0,0,1-1.72-1.85A30.17,30.17,0,0,1,3,11.91q-.9-1.56-1.67-3.18c-.23-.49-.46-1-.68-1.47A1.58,1.58,0,0,1,.51,6.9.43.43,0,0,1,.8,6.38a1.47,1.47,0,0,1,.57-.11H3Z"/>
</svg>