<svg id="Слой_1" data-name="Слой 1" xmlns="http://www.w3.org/2000/svg" viewBox="0 0 200 200">
    <defs>
        <style>.cls-1{fill:#292929;}</style>
    </defs>
    <title>kupi</title>
    <path class="cls-1"
          d="M63.62,88.67h4.44c0,.23.07.48.07.72,0,5.5,0,11,0,16.5,0,3.17-1.12,5.9-3.88,7.66a9.64,9.64,0,0,1-9.94.5c-3.28-1.62-4.7-4.48-4.73-8-.05-5.6,0-11.19,0-16.79,0-.16,0-.32,0-.55H54c0,.4,0,.78,0,1.16,0,5.34,0,10.67,0,16A4.73,4.73,0,0,0,63.42,107a10.55,10.55,0,0,0,.19-2.13c0-5,0-10.09,0-15.13C63.62,89.42,63.62,89.07,63.62,88.67Z"/>
    <path class="cls-1"
          d="M82.64,107.33v7.2H78.21v-26c3.46.13,6.94-.08,10.3.45,4.58.72,7.46,5.25,6.88,10-.64,5.21-3.93,8.22-9.18,8.39C85.08,107.36,83.94,107.33,82.64,107.33ZM82.84,93a2.18,2.18,0,0,0-.17.46c0,2.89,0,5.78,0,8.67a.87.87,0,0,0,.61.59,28.94,28.94,0,0,0,3.69-.1,4.45,4.45,0,0,0,4-4.19c.18-2.57-1.08-4.58-3.42-5.05A37.19,37.19,0,0,0,82.84,93Z"/>
    <path class="cls-1"
          d="M160.89,88.73c3.18,0,6.32-.25,9.41.05,5.8.57,8.35,5.8,7.69,10.53-.7,5-4.08,7.9-9.21,8-1.1,0-2.2,0-3.43,0v7.19h-4.47Zm4.49,14.18a41,41,0,0,0,5-.44,4.72,4.72,0,0,0,.21-8.93,38.24,38.24,0,0,0-5.21-.54Z"/>
    <path class="cls-1"
          d="M127,115.19l-12.2-26.57c1.54,0,2.94,0,4.33,0a1.21,1.21,0,0,1,.77.66c2.17,4.65,4.31,9.32,6.45,14l.65,1.4,3.41-7.4c1.21-2.63,2.42-5.25,3.6-7.89a1.11,1.11,0,0,1,1.23-.81c1.26.07,2.52,0,4,0Z"/>
    <path class="cls-1"
          d="M42.78,88.62,32.5,101.56l10.34,13c-1.89,0-3.59,0-5.29,0-.2,0-.44-.25-.59-.44-3.18-4-6.34-8-9.53-12a.78.78,0,0,1,0-1.17c3.17-4,6.32-7.93,9.49-11.88a1.31,1.31,0,0,1,.87-.45C39.36,88.59,41,88.62,42.78,88.62Z"/>
    <path class="cls-1" d="M21.91,88.65h4.31v25.87H21.91Z"/>
    <path class="cls-1" d="M108,88.68v25.84H103.6V88.68Z"/>
    <path class="cls-1" d="M150,114.55h-4.35V88.67H150Z"/>
</svg>