<svg id="Слой_1" data-name="Слой 1" xmlns="http://www.w3.org/2000/svg" viewBox="0 0 200 200"><defs><style>.cls-1{fill:#f36b21;}</style></defs><title>deli</title><path class="cls-1" d="M97.69,39.67q-3.09,3.12-6.19,6.25c-5,5-10,9.93-14.93,15A33.08,33.08,0,0,0,71.07,99.4,32.62,32.62,0,0,0,92.8,116.25a31.9,31.9,0,0,0,20.36-1.65,33,33,0,0,0,14.77-12.09,33,33,0,0,0,2.7-32.39A34.1,34.1,0,0,0,124,60.53a3.08,3.08,0,0,1-.05-4.5,3.13,3.13,0,0,1,4.52.14,39.46,39.46,0,0,1-10.16,63,38.18,38.18,0,0,1-13.44,4,39.68,39.68,0,0,1-15.7-1.37A39.49,39.49,0,0,1,64.29,99.83,38.07,38.07,0,0,1,61.3,89a42.68,42.68,0,0,1-.1-9.31,38.54,38.54,0,0,1,3.53-12.59,43.47,43.47,0,0,1,9.2-12.5c4.88-4.8,9.68-9.67,14.52-14.51a1.89,1.89,0,0,0,.24-.39Z"/><path class="cls-1" d="M103.3,102.29a17.55,17.55,0,0,1-5.88,0,19.25,19.25,0,0,0,0-10.62,8.76,8.76,0,0,0-5.15-5.91,16.64,16.64,0,0,0-9.35-1.52,1.18,1.18,0,0,1-.27-.05,17.06,17.06,0,0,1,1-5.7l.83.46a18.22,18.22,0,0,0,9.11,1.85,4,4,0,0,0,2.48-.84,7.35,7.35,0,0,1,9,.45,1.24,1.24,0,0,0,.65.32,20.51,20.51,0,0,0,8.66-1c.87-.32,1.68-.79,2.57-1.22a1.22,1.22,0,0,1,.19.34c.34,1.55.7,3.1,1,4.66.13.72,0,.78-.79.72a15.79,15.79,0,0,0-11,2.81,8.36,8.36,0,0,0-3.27,5,25.58,25.58,0,0,0-.4,8.19A12.4,12.4,0,0,0,103.3,102.29Z"/><path class="cls-1" d="M100.16,58.14l6.69,6.28L98.41,68.2c.13-.91.2-1.62.35-2.32.11-.54-.11-.66-.57-.6a19.36,19.36,0,0,0-13.43,8,18.8,18.8,0,0,0-3.57,9.23,19.79,19.79,0,0,0,.3,6.16,2.08,2.08,0,0,1,0,.94L80,88.51c-.6-.43-.85-.34-1,.39-.21.88-.4,1.77-.6,2.65a1.36,1.36,0,0,1-.35.67,3.93,3.93,0,0,1-.28-.6c-2.35-8.55-.86-16.29,5-23A23.19,23.19,0,0,1,97,61a9.11,9.11,0,0,1,1.83-.15c.65,0,.84-.3.91-.83.05-.38.1-.76.17-1.14C100,58.68,100.06,58.48,100.16,58.14Z"/><path class="cls-1" d="M106.8,66.21l2.1-.94c.91-.41.94-.6.21-1.26s-1.44-1.36-2.17-2l.07-.16a9.44,9.44,0,0,1,.92.21,23.82,23.82,0,0,1,14,32.64.94.94,0,0,0,.36,1.41c.48.33.91.75,1.46,1.21a4.06,4.06,0,0,1-.62.33L115.8,99.8c-.69.21-.78.13-.71-.55q.4-3.93.8-7.85c0-.11,0-.21.1-.51l2.1,1.58a19.1,19.1,0,0,0,.13-15.52A19.51,19.51,0,0,0,106.8,66.21Z"/><path class="cls-1" d="M78.25,99.7l2.11-9,7.51,5.4L85.63,97a19.28,19.28,0,0,0,28.09,1.58c-.07.83-.1,1.55-.19,2.26-.11.94,0,1.06.94.78a31.64,31.64,0,0,1,3.29-.85c-.16.19-.31.39-.48.56a23,23,0,0,1-12.08,6.44,23.46,23.46,0,0,1-21.4-6.26,21.84,21.84,0,0,1-2-2.29.92.92,0,0,0-1.26-.37C79.86,99.18,79.16,99.38,78.25,99.7Z"/><path class="cls-1" d="M37,152.47a3,3,0,0,0,2.38-1.95,10.49,10.49,0,0,0,.73-4.25c0-2,0-3.93,0-5.89,0-.57.16-.77.76-.77q4.24,0,8.49,0c.63,0,.8.2.79.81,0,3.65,0,7.29,0,10.94,0,1,0,1.08,1,1.09.55,0,.65.26.65.74,0,1.68,0,3.36,0,5H49.2c0-.93,0-1.86,0-2.79,0-.49-.21-.64-.68-.64q-4.12,0-8.24,0c-.47,0-.69.15-.68.64,0,.93,0,1.86,0,2.79H37Zm4.2-.17a1.84,1.84,0,0,0,.41.13l5.25,0c.48,0,.56-.32.56-.71,0-3,0-6,0-9,0-.56-.25-.74-.77-.73-1.05,0-2.1,0-3.15,0-.57,0-.78.24-.78.8,0,1.61.06,3.23,0,4.83a15.62,15.62,0,0,1-.58,3.14A7.32,7.32,0,0,1,41.2,152.3Z"/><path class="cls-1" d="M127.42,138.48a4,4,0,0,1-2.61,3.14c-1,.34-2,.57-3,.87a3.72,3.72,0,0,0-2.51,2.71,1.54,1.54,0,0,0-.05.35c0,.09,0,.18,0,.4.23-.14.4-.23.55-.34a5.19,5.19,0,0,1,7.56,6.72,4.82,4.82,0,0,1-4.33,2.76c-2.1.13-4.07-.24-5.27-2.19a6,6,0,0,1-.86-2.55,13.66,13.66,0,0,1,1-7.53,5,5,0,0,1,2.91-2.48c.66-.23,1.35-.37,2-.55a3.11,3.11,0,0,0,2-1.11.5.5,0,0,1,.36-.18C126,138.47,126.64,138.48,127.42,138.48Zm-5,14.32a2.82,2.82,0,0,0,2.9-2.85,2.88,2.88,0,0,0-2.9-3,2.94,2.94,0,0,0-2.9,2.91A2.91,2.91,0,0,0,122.39,152.8Z"/><path class="cls-1" d="M92.87,149.73,92.49,152c-.13.76-.23,1.53-.4,2.27a.74.74,0,0,1-.53.45c-.62,0-1.25,0-1.88,0,0-.58,0-1.17.12-1.75.42-2.51.86-5,1.32-7.51.06-.32,0-.79.56-.72s1.3-.36,1.68.45l2.08,4.52c.13.28.28.56.52,1,.52-1.11,1-2,1.38-2.94s.79-1.74,1.18-2.62,1.06-.42,1.6-.42c.22,0,.58.39.63.65.57,3,1.09,6.06,1.62,9.09a1.18,1.18,0,0,1,0,.25c-.71,0-1.44,0-2.17,0-.14,0-.34-.33-.38-.54-.27-1.51-.5-3-.9-4.59a6.12,6.12,0,0,0-.45.71c-.62,1.34-1.2,2.69-1.83,4a1.06,1.06,0,0,1-.66.56c-.18,0-.5-.28-.61-.52-.62-1.28-1.18-2.59-1.78-3.88-.13-.28-.29-.55-.44-.83Z"/><path class="cls-1" d="M137.45,148.85a47.41,47.41,0,0,0-3.39,4.6c-.84,1.46-2,1.41-3.33,1.31-.15,0-.39-.41-.39-.63,0-2.36,0-4.72,0-7.08,0-.47,0-.94,0-1.4s.18-.62.62-.61c2.39,0,1.92-.32,2,1.86,0,1.07,0,2.15,0,3.22,0,.25,0,.49.08,1,.3-.31.48-.47.62-.65,1.16-1.55,2.34-3.09,3.47-4.66a1.56,1.56,0,0,1,1.45-.73c1.79,0,1.79,0,1.79,1.83,0,2.41,0,4.81,0,7.22,0,.54-.14.75-.71.73-2.12-.07-1.84.37-1.86-1.84,0-1.1,0-2.2,0-3.29a6.83,6.83,0,0,0-.1-.79Z"/><path class="cls-1" d="M80.31,150.91c.29-.38.59-.76.88-1.15,1-1.36,2.06-2.72,3.05-4.11a1.39,1.39,0,0,1,1.29-.63c1.82,0,1.82,0,1.82,1.83,0,2.36,0,4.72,0,7.08,0,.68-.22.88-.89.87-1.73,0-1.73,0-1.73-1.74,0-1.15,0-2.29,0-3.44,0-.22,0-.45,0-.67l-.18-.08c-.43.55-.87,1.09-1.29,1.65-1,1.27-1.88,2.56-2.86,3.81a1.27,1.27,0,0,1-.86.43c-2.07.07-2.07,0-2.07-2,0-2.29,0-4.58,0-6.87,0-.61.13-.87.81-.86,1.78,0,1.78,0,1.78,1.78,0,1.1,0,2.2,0,3.3,0,.25,0,.49,0,.74Z"/><path class="cls-1" d="M103.77,149.91c0-3.13,2.17-5.15,5.53-5.18s5.52,2.11,5.62,5.14-2.28,5.21-5.47,5.21C106,155.08,103.78,153.08,103.77,149.91Zm5.56,2.89a2.9,2.9,0,0,0,2.9-2.89,3,3,0,0,0-2.91-2.92,2.91,2.91,0,0,0-2.88,2.92A2.85,2.85,0,0,0,109.33,152.8Z"/><path class="cls-1" d="M63.14,152.22a4.11,4.11,0,0,1-2.45,2.44,5.63,5.63,0,0,1-5.92-.88A5.46,5.46,0,0,1,53.48,148a4.63,4.63,0,0,1,4.35-3.29c3.27-.21,5.32,1.62,5.48,4.87,0,.53-.23.63-.67.63q-2.95,0-5.89,0c-.89,0-1,.15-.75,1a2.54,2.54,0,0,0,4.09,1.28,2.13,2.13,0,0,1,2.26-.48Zm-4.75-3.52h1.82c.53,0,.66-.21.46-.7a2.53,2.53,0,0,0-2.24-1.54A2.63,2.63,0,0,0,56.15,148c-.23.52-.06.75.49.75Z"/><path class="cls-1" d="M74.48,150c0,1.4,0,2.8,0,4.2,0,.45-.17.56-.58.55-2.35-.07-2,.39-2-1.91,0-1.61,0-3.22,0-4.83,0-.63-.22-.84-.86-.83-2,0-2,0-2,2a21.47,21.47,0,0,1-.14,2.86,3.14,3.14,0,0,1-3.63,2.69.64.64,0,0,1-.43-.4,5,5,0,0,1,0-1.33.66.66,0,0,1,.41-.43c1-.28,1.4-.68,1.41-1.77,0-1.7,0-3.41,0-5.11,0-.55.18-.74.72-.74q3.19,0,6.38,0c.55,0,.75.2.74.74,0,1.42,0,2.85,0,4.27Z"/><path class="cls-1" d="M152,150c0,1.38,0,2.76,0,4.14,0,.5-.13.7-.67.7-1.9,0-1.9,0-1.9-1.86,0-1.64,0-3.27,0-4.91,0-.61-.19-.86-.81-.81a10.9,10.9,0,0,1-1.47,0c-.5,0-.64.2-.65.67,0,1.4,0,2.81-.15,4.19a3.06,3.06,0,0,1-3.64,2.72.69.69,0,0,1-.43-.47,4.76,4.76,0,0,1,0-1.26.59.59,0,0,1,.33-.42c1.28-.38,1.61-.77,1.62-2.14,0-1.57,0-3.13,0-4.7,0-.62.2-.81.81-.8q3.08,0,6.17,0c.61,0,.82.17.8.8C151.95,147.21,152,148.59,152,150Z"/><path class="cls-1" d="M154.9,149.91c0-1.4,0-2.8,0-4.2,0-.47.15-.68.64-.67,2.33,0,1.87-.32,1.91,1.84,0,1.88-.23,1.68,1.67,1.7a9.39,9.39,0,0,1,1.4.08,2.77,2.77,0,0,1,2.56,3.1,2.89,2.89,0,0,1-2.88,3c-1.59.06-3.18,0-4.76,0-.46,0-.54-.23-.54-.61C154.9,152.76,154.9,151.34,154.9,149.91Zm3.72.65c-1.17,0-1.17,0-1.17,1.16a2.23,2.23,0,0,0,0,.63c0,.15.21.38.32.38a8.58,8.58,0,0,0,1.86-.11,1,1,0,0,0-.14-2A5.78,5.78,0,0,0,158.61,150.57Z"/></svg>