<svg id="Слой_1" data-name="Слой 1" xmlns="http://www.w3.org/2000/svg" viewBox="0 0 200 200"><defs><style>.cls-1{fill:#338d36;}.cls-2{fill:#1d1d1b;}</style></defs><title>carprice</title><path class="cls-1" d="M118.54,116.29c-5.14.34-10,.51-14.89,1-7.27.76-14.44-.49-21.66-.85-1.06-.05-2.11-.34-3.17-.49-.84-.12-1.25.13-1.27,1.13,0,3.06-.7,3.65-3.74,3.66-1.69,0-3.38,0-5.06,0-1.92,0-2.8-1-2.81-2.87,0-1-.06-2,0-3a8.27,8.27,0,0,0-1.45-5.63c-1.45-2.07-1.4-4.62-.81-7.13a20.27,20.27,0,0,1,3.52-6.92c.44-.62.33-.84-.12-1.47A5.44,5.44,0,0,1,66.42,91c-.05-1.08.89-1.41,1.73-1.45a8.92,8.92,0,0,1,3.29.27c1.13.4,1.37-.21,1.79-.9,1.23-2,2.38-4.11,3.78-6,1.69-2.3,4.25-3.37,6.91-4.19,5.68-1.75,11.53-1.39,17.35-1.41a35.21,35.21,0,0,1,13.38,2.35,14.65,14.65,0,0,1,8.78,9.88l.27.87c1-.29,1.86-.58,2.77-.83a2.1,2.1,0,0,1,1.1-.15c1,.33,2.39.52,2.74,1.22C130.9,91.8,130,93,129,93.87a10.75,10.75,0,0,1-1,.71c.93,1.51,2,2.9,2.71,4.43,2,4,2.76,8.05,0,12.08a1.85,1.85,0,0,0-.23.93q-.15,3-.26,6c-.06,1.75-.52,2.5-2.21,2.62a58.57,58.57,0,0,1-7.16,0,2.62,2.62,0,0,1-2.3-2.68C118.51,117.39,118.54,116.79,118.54,116.29ZM97.3,81.38c-2.9.25-6,.52-9,.77a13.8,13.8,0,0,0-6.42,2.15c-3,1.93-4.3,5.05-5.31,8.29-.07.23.53.94.86,1,2.37.25,4.74.47,7.12.53,4.5.1,9,.15,13.5.07,6.69-.11,13.37-.34,20.06-.58a1.58,1.58,0,0,0,1.18-1,4.73,4.73,0,0,0-.34-2C117.26,85.21,113,83,108,82.2,104.51,81.67,101,81.65,97.3,81.38Zm-.11,26.4H92.83c-2.39,0-4.78-.06-7.16.07-.67,0-1.68.52-1.85,1s.42,1.37.81,2a1.76,1.76,0,0,0,1.05.64,19.73,19.73,0,0,0,3.84.65c5.8.07,11.61.1,17.41,0a8.21,8.21,0,0,0,3.59-1.26,2.6,2.6,0,0,0,.88-1.87c0-.27-.83-.73-1.35-.91a6,6,0,0,0-1.92-.29C104.49,107.77,100.84,107.78,97.19,107.78Zm21.36-1a8.47,8.47,0,0,0,6.78-3,2.78,2.78,0,0,0-1.54-4.67,4.9,4.9,0,0,0-3.23.45,23.26,23.26,0,0,0-4.48,3.93c-1.31,1.46-.6,3,1.35,3.27A7.38,7.38,0,0,0,118.55,106.8Zm-42.27.06a3.68,3.68,0,0,0,1.39-.09c.72-.36,1.76-.81,1.9-1.39s-.45-1.59-.89-2.29a6.23,6.23,0,0,0-1.48-1.46A19,19,0,0,0,74,99.35c-1.72-.85-4-.16-4.7,1.23-.59,1.21-.4,3.22,1.74,4.5C72.69,106,74.3,107,76.28,106.86Z"/><path class="cls-2" d="M112.15,71.78c.19-1.71.35-3.41.58-5.11s.66-3.4.71-5.11a6.28,6.28,0,0,1,3-5.11q6.83-5,13.67-9.92c2.18-1.58,4.35-3.19,6.56-4.74,1.66-1.17,2.64-1,4,.49q5.91,6.74,11.79,13.51c1.3,1.5,1.26,2.36-.38,3.58-4.8,3.55-9.64,7-14.47,10.55-2.07,1.51-4.2,2.93-6.2,4.53s-4.22,1.46-6.5,1.19l-6.48-.79c-1.52-.18-3.06-.28-4.57-.56C112.51,74,112.08,73,112.15,71.78Zm18.49-15.71c1.44,1.58,2.82,3.26,4.37,4.76a2.89,2.89,0,0,0,3.51.48,19.07,19.07,0,0,0,3.31-2.52,1.51,1.51,0,0,0,.29-1.41c-1.55-1.91-3.18-3.76-4.89-5.53-.2-.21-1.11.14-1.59.42-.14.08-.07.9.15,1.18,1,1.23,2,2.41,3.11,3.58.89,1,.53,1.57-.46,2.19a1.67,1.67,0,0,1-2.25-.39c-1-1-1.89-2-2.82-3C132.29,54.6,132,54.62,130.64,56.06Zm-1.79.81c-1.26,1.09-2.42,2-3.46,3a1.47,1.47,0,0,0-.23,1.38c1.47,1.8,3,3.55,4.62,5.2.25.26,1.13,0,1.64-.17a1.72,1.72,0,0,0-.12-1.34c-.85-1.1-1.86-2.08-2.77-3.14-1.33-1.54-1.3-1.6.41-2.66.31-.19.6-.41,1-.66Zm-9.33,14.51a1.58,1.58,0,0,0,1.82-1.59,1.75,1.75,0,0,0-1.78-2,1.84,1.84,0,0,0-1.91,1.94A1.76,1.76,0,0,0,119.52,71.38Z"/><path class="cls-2" d="M109.69,77c-1.36-.25-2.63-.44-3.88-.75-.38-.1-.65-.58-1-.83-.72-.49-1.46-1.29-2.22-1.33C99.4,73.92,96.2,74,93,74a2.2,2.2,0,0,0-2.15,1.43c-.4.94-3.87,1.82-4.64,1.19-.19-.15-.2-.65-.14-1A6.65,6.65,0,0,1,92.21,70a38.53,38.53,0,0,1,12.43.23C107.87,70.93,110.18,74.4,109.69,77Z"/><path class="cls-2" d="M92.92,150.73c0,1.55,0,3.16,0,4.77,0,1,0,1-1,1s-1.85,0-2.78,0c-.41,0-.56-.15-.56-.57q0-8.21,0-16.42c0-.58.29-.85,1.14-.9a48.49,48.49,0,0,1,5.59-.23,9.2,9.2,0,0,1,5,1.5c1.8,1.3,2.22,3.18,2.07,5.23a5,5,0,0,1-2.3,4.14,7.76,7.76,0,0,1-3.27,1.14C95.58,150.48,94.28,150.6,92.92,150.73Zm0-3.64,3.33-.37a2.19,2.19,0,0,0,1.78-1.63,2.28,2.28,0,0,0-1-2.63c-1.3-.69-2.69-.5-4.1-.48Z"/><path class="cls-1" d="M59.47,142.85a10.24,10.24,0,0,0-4.5-1,4.52,4.52,0,0,0-4.47,3.45,7.73,7.73,0,0,0,.55,5.8,4.08,4.08,0,0,0,2.78,2,8.79,8.79,0,0,0,5.45-.64l.51-.18c.34,1,.7,2,1,3,0,.15-.29.55-.51.61a22.41,22.41,0,0,1-3.91,1,11.28,11.28,0,0,1-5.39-.58,7.3,7.3,0,0,1-4.59-5.44A14.38,14.38,0,0,1,46,147.2c.09-3.15,1.2-5.86,4-7.62a9.66,9.66,0,0,1,6.59-1.32,11.26,11.26,0,0,1,3.78,1.1c.14.07.31.35.27.47C60.23,140.83,59.85,141.82,59.47,142.85Z"/><path class="cls-2" d="M147.54,151H139c-.22,1.11,1.28,2.14,2.23,2.3a11.65,11.65,0,0,0,4.31-.28,3.88,3.88,0,0,0,.68-.3c.11.42.24.79.31,1.18s.08.81.17,1.21c.2.88.16,1-.68,1.23a12.32,12.32,0,0,1-5,.59c-2.93-.43-5.45-1.67-6.14-5.54a8,8,0,0,1,1.43-6.54,6.2,6.2,0,0,1,3.75-2.27,6.6,6.6,0,0,1,4.7.76,5.15,5.15,0,0,1,2.4,3A8.42,8.42,0,0,1,147.54,151ZM139,148.21h4.78c-.34-1.67-1.11-2.39-2.45-2.39A2.41,2.41,0,0,0,139,148.21Z"/><path class="cls-1" d="M64.22,146.19c-.13-.84-.21-1.61-.38-2.36-.1-.45,0-.72.46-.79,1.08-.17,2.15-.42,3.23-.49,2.09-.15,4.11,0,5.65,1.76a4.59,4.59,0,0,1,1,3c.1,2.68.11,5.37.16,8.06,0,.48-.16.68-.68.81a23.33,23.33,0,0,1-6.72.47,4.76,4.76,0,0,1-3.69-1.79,4.23,4.23,0,0,1,1.87-6.38,9.13,9.13,0,0,1,4.12-.43,2.25,2.25,0,0,0,1.26-.18c.23-.12-.37-1.47-.81-1.68a2.93,2.93,0,0,0-1.28-.36c-1.17.05-2.34.21-3.51.32C64.67,146.21,64.46,146.19,64.22,146.19Zm6.3,4.57c-1,0-2,0-2.88,0A1.32,1.32,0,0,0,66.43,152c0,1,.2,1.44,1.1,1.57a14.81,14.81,0,0,0,2.55.08.65.65,0,0,0,.43-.46C70.55,152.42,70.52,151.64,70.52,150.76Z"/><path class="cls-2" d="M129.8,157.09a7.92,7.92,0,0,1-5.5-2.25,5.73,5.73,0,0,1-1.54-3.31,10,10,0,0,1-.26-1.52c.1-2.93,1.08-5.42,3.85-6.82a7.61,7.61,0,0,1,5.56-.47c1.66.45,1.65.47,1.15,2.1a5.65,5.65,0,0,0-.29,1.1c-.06.6-.31.54-.77.39a5,5,0,0,0-3.5-.07,3.2,3.2,0,0,0-1.81,2.9,4.17,4.17,0,0,0,.95,3.48,3.43,3.43,0,0,0,3,.74c.72-.06,1.43-.21,2.14-.34.35-.06.45.08.49.4.09.66.22,1.31.34,2s.08.87-.69,1Z"/><path class="cls-2" d="M109,156.45c-1.28,0-2.44,0-3.6,0a.64.64,0,0,1-.42-.47q0-5.95,0-11.89a.8.8,0,0,1,.43-.6,13.87,13.87,0,0,1,7.14-.74c.21,0,.42.07.64.09.63.06.79.29.67.89s-.23,1.3-.32,1.95-.34.74-.91.67c-1-.12-2-.17-3.05-.25-.53,0-.57.32-.57.73q0,3.81,0,7.63C109,155.07,109,155.71,109,156.45Z"/><path class="cls-1" d="M77.6,150c0-1.89,0-3.79,0-5.68a.82.82,0,0,1,.6-.93,16,16,0,0,1,7-.57c1.28.18,1.33.31,1,1.56a7,7,0,0,0-.25,1.26c0,.64-.44.62-.91.57-.85-.09-1.7-.2-2.56-.22s-1,.1-1,1c0,2.93,0,5.85,0,8.78,0,.57-.17.76-.74.73-.84,0-1.68,0-2.52,0-.54,0-.72-.17-.71-.71C77.61,153.82,77.6,151.9,77.6,150Z"/><path class="cls-2" d="M115.77,149.69c0-2,0-4.09,0-6.14,0-.56.16-.76.74-.73a23.76,23.76,0,0,0,2.58,0c.59,0,.73.19.73.74,0,3.51,0,7,0,10.53,0,.62,0,1.25,0,1.87,0,.36-.14.5-.5.5-1,0-2,0-3,0-.46,0-.58-.2-.58-.63,0-2,0-4.09,0-6.14Z"/><path class="cls-2" d="M117.81,136.73a2.2,2.2,0,0,1,2.38,2.28,2.31,2.31,0,0,1-2.28,2.33,2.27,2.27,0,0,1-2.51-2.29A2.21,2.21,0,0,1,117.81,136.73Z"/></svg>