<svg id="Слой_1" data-name="Слой 1" xmlns="http://www.w3.org/2000/svg" viewBox="0 0 200 200">
    <defs>
        <style>.cls-1{fill:#e91f2b;}.cls-2{fill:#0774ad;}</style>
    </defs>
    <title>domino</title>
    <path class="cls-1"
          d="M112.73,91.24c-1.91-2-3.73-3.83-5.57-5.68q-8.72-8.76-17.48-17.5c-.53-.53-.59-.82,0-1.38q10.41-10.36,20.76-20.76c1.63-1.63,2.85-1.67,4.42-.1,6.32,6.31,12.57,12.68,19,18.92,2.58,2.52,1.74,3.77-.07,5.56-6.72,6.64-13.37,13.35-20.05,20C113.43,90.58,113.16,90.83,112.73,91.24Zm.08-29.75a5.94,5.94,0,1,0,5.9,5.87A6,6,0,0,0,112.81,61.49Z"/>
    <path class="cls-2"
          d="M87.47,68.75c1.12,1.21,2,2.22,3,3.17Q98.51,80,106.62,88.11c1.35,1.35,2.66,2.73,4,4.05.46.44.42.7,0,1.11q-4.78,4.75-9.53,9.52L89.41,114.55a2.51,2.51,0,0,1-3.76-.14l-6.52-6.53L67.71,96.46c-.61-.61-1.2-1.24-1.81-1.84a2.55,2.55,0,0,1-.09-4c1.48-1.52,3-3,4.51-4.5q6.88-6.89,13.75-13.79C85.15,71.27,86.18,70.12,87.47,68.75ZM84.94,92.56a6,6,0,1,0-6,6A6,6,0,0,0,84.94,92.56Zm11.32,6.18a6,6,0,1,0-6.05-5.84A6,6,0,0,0,96.27,98.74Z"/>
    <path class="cls-2"
          d="M42,147.24c0-2.74,0-5.49,0-8.23,0-.76.18-1.08,1-1.07,2.88,0,5.77,0,8.65,0a9,9,0,0,1,8.41,5.79c1.16,3.23.7,7.92-2.34,10.48a10.17,10.17,0,0,1-6.5,2.36c-2.71.07-5.41,0-8.12,0-.8,0-1.1-.2-1.09-1.07.06-2.78,0-5.56,0-8.33Zm5.42,0c0,1.27,0,2.53,0,3.8,0,.56.19.87.79.85.91,0,1.83,0,2.74,0a4.54,4.54,0,0,0,4.11-4.35A4.22,4.22,0,0,0,52,142.87a19.84,19.84,0,0,0-3.56-.22c-.69,0-1,.29-1,1C47.5,144.87,47.47,146.06,47.47,147.26Z"/>
    <path class="cls-2"
          d="M83,144.58c3.1-2,6-2.91,8.61.33a26.11,26.11,0,0,1,2.63-1.64,5.14,5.14,0,0,1,3.9-.19,3,3,0,0,1,2.31,2.93c.08,3.3.06,6.6,0,9.91,0,.25-.47.67-.74.7-1,.09-2,0-3.05,0-.74,0-1-.28-1-1,0-2.14,0-4.29,0-6.43,0-.8-.08-1.59-.91-2a2,2,0,0,0-2.43.42,2.16,2.16,0,0,0-.57,1.36c-.06,2.18-.06,4.36,0,6.54,0,.85-.3,1.12-1.11,1.08s-1.83,0-2.74,0-1.07-.25-1.05-1c0-2.11,0-4.22,0-6.33,0-.93-.12-1.79-1.16-2.12a2.4,2.4,0,0,0-2.54.88,1.7,1.7,0,0,0-.26,1.07c0,2.18,0,4.36,0,6.54,0,.72-.21,1-1,1-1,0-2,0-3.06,0a.72.72,0,0,1-.83-.83q0-6,0-11.91c0-.59.32-.81.86-.8l2.21,0C82,143.17,83.18,142.84,83,144.58Z"/>
    <path class="cls-2"
          d="M115,144.69a7.72,7.72,0,0,1,5.32-1.88c2.47.13,3.91,1.54,3.93,4,0,2.91,0,5.83,0,8.74,0,.82-.24,1.14-1.08,1.08a16.7,16.7,0,0,0-2.53,0c-.9.07-1.25-.21-1.22-1.17.07-2,0-4,0-6a2.1,2.1,0,0,0-1.2-2.25,2.91,2.91,0,0,0-3,.76,2.13,2.13,0,0,0-.31,1.17c0,2.18,0,4.35,0,6.53,0,.74-.24,1-1,1-1,0-2,0-2.95,0-.62,0-.89-.21-.89-.86q0-5.9,0-11.8c0-.63.26-.9.87-.9.77,0,1.55,0,2.32,0C114.38,143,115.21,143,115,144.69Z"/>
    <path class="cls-2"
          d="M133.28,157.05a7.26,7.26,0,0,1-7.17-7.11,7.18,7.18,0,1,1,7.17,7.11Zm2.65-7.19a2.62,2.62,0,1,0-5.24,0,2.62,2.62,0,0,0,5.24,0Z"/>
    <path class="cls-2"
          d="M76.2,149.91A7.11,7.11,0,0,1,69.45,157a7.15,7.15,0,1,1-.39-14.28A7,7,0,0,1,76.2,149.91Zm-9.71-.11a2.62,2.62,0,1,0,5.24-.14,2.74,2.74,0,0,0-2.53-2.51A2.7,2.7,0,0,0,66.48,149.8Z"/>
    <path class="cls-2"
          d="M145,152a40.43,40.43,0,0,0,3.91,1.38,5.76,5.76,0,0,0,2.27-.11c.26,0,.69-.52.64-.67a1.25,1.25,0,0,0-.74-.74c-1.16-.27-2.35-.41-3.52-.66-1.58-.35-3.07-.92-3.76-2.56a3.8,3.8,0,0,1,2.25-5.16,10.55,10.55,0,0,1,8.85.77c.12.07.34.2.33.23a26.59,26.59,0,0,1-1.21,2.64c-.09.16-.66.16-1,.07-1-.28-2-.65-3-.94a1.18,1.18,0,0,0-.82.08,8.26,8.26,0,0,0-1.06.83,3.92,3.92,0,0,0,1.07.68c.92.22,1.87.31,2.8.46,2.52.41,4,1.74,4,3.71.09,2.46-1.24,4.06-3.79,4.71a11.94,11.94,0,0,1-8.28-1c-.78-.37-1-.79-.41-1.54S144.6,152.66,145,152Z"/>
    <path class="cls-2"
          d="M102.87,149.9c0-1.89,0-3.79,0-5.68,0-.76.2-1.1,1-1.07,1,0,2.11,0,3.15,0a1.07,1.07,0,0,1,.73.75c0,4,0,7.93,0,11.89,0,.58-.27.81-.84.8-1.05,0-2.11,0-3.16,0-.69,0-.92-.29-.91-1C102.88,153.76,102.87,151.83,102.87,149.9Z"/>
    <path class="cls-2"
          d="M140.63,143.1l1-1.28a4.35,4.35,0,0,0-.72-.36,2.33,2.33,0,0,1-1.89-2.13,2.41,2.41,0,0,1,1.19-2.4,2.62,2.62,0,0,1,2.89-.08c1.72,1,2,3,.59,4.93a8.23,8.23,0,0,1-1.95,1.72C141.18,143.89,141.12,143.81,140.63,143.1Z"/>
    <path class="cls-2" d="M105.35,141.87a2.73,2.73,0,0,1,.05-5.45,2.73,2.73,0,1,1-.05,5.45Z"/>
</svg>