<?xml version="1.0" encoding="utf-8"?>
<!-- Generator: Adobe Illustrator 21.0.2, SVG Export Plug-In . SVG Version: 6.00 Build 0)  -->
<svg version="1.1" id="Слой_1" xmlns="http://www.w3.org/2000/svg" xmlns:xlink="http://www.w3.org/1999/xlink" x="0px" y="0px"
	 viewBox="0 0 120 120" style="enable-background:new 0 0 120 120;" xml:space="preserve">
<style type="text/css">
	.st0{fill:#333551;}
	.st1{fill:#EF405F;}
</style>
<title>main_ic_6</title>
<path class="st0" d="M30.1,107.9c-0.8,0-1.5-0.2-2.2-0.5c-2-0.9-3.4-2.9-3.4-5.1l-0.1-13.5c0-0.4-0.4-0.8-0.8-0.8h-8.1
	c-3.1,0-5.6-2.5-5.6-5.6V17.7c0-3.1,2.5-5.6,5.6-5.6h89c3.1,0,5.6,2.5,5.6,5.6v64.8c0,3-2.5,5.5-5.5,5.6H53.6
	c-0.2,0-0.4,0.1-0.5,0.2l-19.2,18.1C32.9,107.3,31.5,107.9,30.1,107.9z M15.5,16.9c-0.4,0-0.8,0.4-0.8,0.8v64.8
	c0,0.4,0.4,0.8,0.8,0.8h8.1c3.1,0,5.5,2.5,5.6,5.5l0.1,13.5c0,0.4,0.4,0.8,0.8,0.8c0.2,0,0.4-0.1,0.6-0.2l19.2-18.1
	c1-1,2.4-1.5,3.8-1.5h50.9c0.4,0,0.8-0.4,0.8-0.8V17.7c0-0.4-0.4-0.8-0.8-0.8L15.5,16.9z"/>
<path class="st0" d="M30.8,47.2H12.3c-1.3,0-2.4-1.1-2.4-2.4c0-1.3,1.1-2.4,2.4-2.4h18.5c1.3,0,2.4,1.1,2.4,2.4
	C33.2,46.1,32.1,47.2,30.8,47.2z"/>
<path class="st0" d="M22.8,56.7H12.3c-1.3,0-2.4-1.1-2.4-2.4c0-1.3,1.1-2.4,2.4-2.4h10.5c1.3,0,2.4,1.1,2.4,2.4
	C25.2,55.6,24.1,56.7,22.8,56.7z"/>
<path class="st1" d="M67.9,35.2c2.2-2.3,5.1-3.7,8.2-3.9c6.8-0.4,12.6,4.7,13,11.5c0.1,1.5-0.1,2.9-0.5,4.3
	c-1.3,4.8-4.3,8.5-7.7,11.9c-3.5,3.5-7.4,6.6-11.6,9.2c-1.2,0.8-2.3,0.4-3.4-0.3c-4.9-2.8-9.2-6.4-12.9-10.7
	c-1.7-2.1-3.3-4.3-4.6-6.7c-1.8-3.2-2.3-6.9-1.3-10.5c1.9-6.5,8.7-10.2,15.2-8.3c1.8,0.5,3.4,1.4,4.8,2.7L67.9,35.2z"/>
<path class="st0" d="M67.9,71.1c-1.2,0-2.3-0.4-3.2-1.1c-5.1-3-9.6-6.7-13.5-11.2c-1.9-2.2-3.5-4.6-4.8-7.1
	c-2.1-3.7-2.7-8.1-1.5-12.3c2.2-7.8,10.4-12.2,18.1-10c1.8,0.5,3.5,1.4,5,2.5c2.3-1.8,5.1-2.9,8.1-3.1c4.7-0.3,9.3,1.7,12.3,5.4
	c3,3.8,4,8.8,2.6,13.4c-1.6,5.5-5.1,9.7-8.3,12.9c-3.6,3.6-7.7,6.8-12,9.5C69.8,70.8,68.9,71,67.9,71.1z M58.9,33.7
	c-0.9,0-1.9,0.1-2.8,0.4c-3.2,0.9-5.8,3.5-6.7,6.7c-0.8,2.9-0.4,6,1.1,8.7c1.2,2.2,2.6,4.4,4.3,6.3c3.5,4,7.7,7.5,12.3,10.2
	c0.2,0.2,0.5,0.3,0.7,0.3c4.1-2.6,7.9-5.6,11.3-9c2.8-2.8,5.8-6.4,7.1-10.9c0.9-3.1,0.3-6.6-1.8-9.1c-2-2.5-5.1-3.9-8.3-3.6
	c-2.5,0.2-4.9,1.3-6.7,3.2L68,38.4l-2.5-2.2C63.7,34.6,61.3,33.7,58.9,33.7L58.9,33.7z"/>
</svg>
