<?xml version="1.0" encoding="utf-8"?>
<!-- Generator: Adobe Illustrator 21.0.2, SVG Export Plug-In . SVG Version: 6.00 Build 0)  -->
<svg version="1.1" id="Слой_1" xmlns="http://www.w3.org/2000/svg" xmlns:xlink="http://www.w3.org/1999/xlink" x="0px" y="0px"
	 viewBox="0 0 120 120" style="enable-background:new 0 0 120 120;" xml:space="preserve">
<style type="text/css">
	.st0{fill:#333551;}
	.st1{fill:#FF3B5B;}
</style>
<title>main_ic_9</title>
<path class="st0" d="M87.1,108.5h-46c-2.8,0-5-2.2-5-5v-87c0-2.8,2.2-5,5-5h46c2.8,0,5,2.2,5,5v86.9
	C92.1,106.2,89.9,108.5,87.1,108.5C87.1,108.5,87.1,108.5,87.1,108.5z M41.1,15.8c-0.4,0-0.7,0.3-0.7,0.7v86.9
	c0,0.4,0.3,0.7,0.7,0.7h46c0.4,0,0.7-0.3,0.7-0.7V16.5c0-0.4-0.3-0.7-0.7-0.7L41.1,15.8z"/>
<path class="st0" d="M64.1,99.3c-4,0-7.2-3.2-7.2-7.2c0-4,3.2-7.2,7.2-7.2c4,0,7.2,3.2,7.2,7.2C71.3,96.1,68,99.3,64.1,99.3z
	 M64.1,89.2c-1.6,0-2.9,1.3-2.9,2.9c0,1.6,1.3,2.9,2.9,2.9c1.6,0,2.9-1.3,2.9-2.9c0,0,0,0,0,0C66.9,90.5,65.7,89.2,64.1,89.2z"/>
<path class="st0" d="M75.6,25.3H61.2c-1.2,0.1-2.2-0.8-2.3-2c-0.1-1.2,0.8-2.2,2-2.3c0.1,0,0.2,0,0.3,0h14.4c1.2,0.1,2.1,1.1,2,2.3
	C77.5,24.3,76.6,25.2,75.6,25.3z"/>
<path class="st0" d="M52.6,25.3c-0.1,0-0.3,0-0.4,0l-0.4-0.1c-0.1-0.1-0.2-0.1-0.4-0.2c-0.1-0.1-0.2-0.2-0.3-0.3
	c-0.1-0.1-0.2-0.2-0.3-0.3c-0.1-0.1-0.1-0.2-0.2-0.4c-0.1-0.1-0.1-0.3-0.1-0.4c-0.1-0.3-0.1-0.6,0-0.8c0-0.1,0.1-0.3,0.1-0.4
	c0.1-0.1,0.1-0.3,0.2-0.4c0.1-0.1,0.2-0.2,0.3-0.3c0.9-0.8,2.1-0.8,3,0c0.8,0.8,0.8,2.2,0,3.1C53.6,25.1,53.1,25.3,52.6,25.3
	L52.6,25.3z"/>
<path class="st0" d="M89.4,55H72.7c-1.2-0.1-2.1-1.1-2-2.3c0.1-1.1,0.9-1.9,2-2h16.7c1.2-0.1,2.2,0.8,2.3,2c0.1,1.2-0.8,2.2-2,2.3
	C89.6,55,89.5,55,89.4,55z"/>
<path class="st0" d="M89.4,63.6h-9.5c-1.2,0.1-2.2-0.8-2.3-2c-0.1-1.2,0.8-2.2,2-2.3c0.1,0,0.2,0,0.3,0h9.5c1.2-0.1,2.2,0.8,2.3,2
	c0.1,1.2-0.8,2.2-2,2.3C89.6,63.6,89.5,63.6,89.4,63.6L89.4,63.6z"/>
<path class="st1" d="M54.4,72.7H17c-1.8,0-3.3-1.4-3.4-3.2L13,44.7c0-1.8,1.4-3.2,3.1-3.2c0,0,0,0,0.1,0h37.5c1.8,0,3.3,1.4,3.4,3.2
	l0.5,24.8C57.6,71.3,56.2,72.7,54.4,72.7C54.5,72.7,54.4,72.7,54.4,72.7z"/>
<path class="st0" d="M17,74.9c-3,0-5.4-2.3-5.5-5.3l-0.5-24.8c0-1.4,0.5-2.8,1.5-3.8c1-1,2.4-1.6,3.9-1.6h37.5c3,0,5.4,2.3,5.5,5.3
	l0.5,24.8c0,1.4-0.5,2.8-1.5,3.8c-1,1-2.4,1.6-3.9,1.6L17,74.9z M53.7,43.7H16.3c-0.3,0-0.6,0.1-0.8,0.3c-0.2,0.2-0.3,0.4-0.3,0.7
	l0.5,24.8c0,0.6,0.6,1.1,1.2,1.1h37.5c0.3,0,0.6-0.1,0.8-0.3c0.2-0.2,0.3-0.4,0.3-0.7l-0.5-24.8C54.9,44.2,54.4,43.7,53.7,43.7z"/>
<path class="st0" d="M35.4,61.2c-1.4,0-2.7-0.5-3.8-1.5L12.3,44.6l2.7-3.4l19.6,15.4c0.5,0.4,1.2,0.4,1.6,0l0.2-0.2l18.8-15.2
	l2.7,3.3L39.1,59.8C38.1,60.7,36.8,61.2,35.4,61.2z"/>
</svg>
