<?xml version="1.0" encoding="utf-8"?>
<!-- Generator: Adobe Illustrator 21.0.2, SVG Export Plug-In . SVG Version: 6.00 Build 0)  -->
<svg version="1.1" id="Слой_1" xmlns="http://www.w3.org/2000/svg" xmlns:xlink="http://www.w3.org/1999/xlink" x="0px" y="0px"
	 viewBox="0 0 120 120" style="enable-background:new 0 0 120 120;" xml:space="preserve">
<style type="text/css">
	.st0{fill:none;}
	.st1{fill:#333551;}
	.st2{fill:#EF405F;}
</style>
<title>main_ic_2</title>
<path class="st0" d="M98.9,46v36.6c0,1.8-1.4,3.2-3.2,3.2H18.4c-1.8,0-3.2-1.4-3.2-3.2v-61c0-1.8,1.4-3.2,3.2-3.2h55.1"/>
<path class="st1" d="M95.7,88.1H18.4c-3.1,0-5.6-2.5-5.6-5.6v-61c0-3.1,2.5-5.6,5.6-5.6h55.1v4.8H18.4c-0.4,0-0.8,0.4-0.8,0.8v61
	c0,0.4,0.4,0.8,0.8,0.8h77.3c0.4,0,0.8-0.4,0.8-0.8V46h4.8v36.6C101.2,85.6,98.7,88.1,95.7,88.1z"/>
<path class="st1" d="M33.7,49.5H15.2c-1.3,0-2.4-1.1-2.4-2.4c0-1.3,1.1-2.4,2.4-2.4h18.5c1.3,0,2.4,1.1,2.4,2.4
	C36.1,48.5,35,49.5,33.7,49.5z"/>
<path class="st1" d="M25.8,59.1H15.2c-1.3,0-2.4-1.1-2.4-2.4c0-1.3,1.1-2.4,2.4-2.4h10.5c1.3,0,2.4,1.1,2.4,2.4
	C28.1,58,27.1,59.1,25.8,59.1z"/>
<rect x="15.2" y="68.9" class="st1" width="84.4" height="4.8"/>
<path class="st2" d="M102.4,44.8l-39,13.9c-1.9,0.7-3.9-0.3-4.7-2.1l-9.7-25.6c-0.7-1.8,0.3-3.8,2.1-4.5c0,0,0.1,0,0.1,0l39-13.9
	c1.9-0.7,3.9,0.3,4.7,2.1l9.7,25.6C105.2,42,104.3,44,102.4,44.8C102.4,44.7,102.4,44.7,102.4,44.8z"/>
<path class="st1" d="M62.1,61.2c-2.5,0-4.8-1.5-5.7-3.8l-9.7-25.6c-0.6-1.5-0.5-3.1,0.2-4.5c0.7-1.5,1.9-2.6,3.4-3.1l39-13.9
	c3.1-1.1,6.5,0.5,7.7,3.5l9.7,25.6c0.6,1.5,0.5,3.1-0.2,4.5c-0.7,1.5-1.9,2.6-3.4,3.1l-39,13.9C63.5,61.1,62.8,61.2,62.1,61.2z
	 M91.4,14.7c-0.2,0-0.3,0-0.5,0.1l-39,13.9c-0.3,0.1-0.6,0.3-0.7,0.6c-0.1,0.3-0.1,0.6,0,0.8L61,55.7c0.3,0.6,1,0.9,1.7,0.7l39-13.9
	c0.3-0.1,0.6-0.3,0.7-0.6c0.1-0.3,0.1-0.6,0-0.8l-9.7-25.6C92.4,15,91.9,14.7,91.4,14.7z"/>
<path class="st0" d="M91.2,96.5H68.1V85.8H46v10.8H22.9c-1.9,0-3.4,1.5-3.4,3.4v4.4c0,1.9,1.5,3.4,3.4,3.4h68.3
	c1.9,0,3.4-1.5,3.4-3.4v-4.4C94.5,98,93,96.5,91.2,96.5z"/>
<path class="st1" d="M91.2,110.1H22.9c-3.2,0-5.8-2.6-5.8-5.8v-4.4c0-3.2,2.6-5.8,5.8-5.8h20.7V83.4h26.9v10.8h20.7
	c3.2,0,5.8,2.6,5.8,5.8v4.4C96.9,107.5,94.4,110.1,91.2,110.1z M22.9,98.9c-0.6,0-1,0.4-1,1v4.4c0,0.6,0.4,1,1,1h68.3
	c0.6,0,1-0.4,1-1v-4.4c0-0.6-0.4-1-1-1H65.7V88.1H48.4v10.8H22.9z"/>
<path class="st1" d="M76.2,40.2c-0.8,0-1.6-0.2-2.4-0.5l-25.8-8.6l1.5-4.5l26.1,8.7c0.6,0.3,1.4,0,1.7-0.6l0.1-0.2l13.9-22.8
	l4.1,2.5L81.7,36.9C80.6,39,78.5,40.2,76.2,40.2z"/>
</svg>
