<?xml version="1.0" encoding="utf-8"?>
<!-- Generator: Adobe Illustrator 21.0.2, SVG Export Plug-In . SVG Version: 6.00 Build 0)  -->
<svg version="1.1" id="Слой_1" xmlns="http://www.w3.org/2000/svg" xmlns:xlink="http://www.w3.org/1999/xlink" x="0px" y="0px"
	 viewBox="0 0 120 120" style="enable-background:new 0 0 120 120;" xml:space="preserve">
<style type="text/css">
	.st0{fill:#EF405F;}
	.st1{fill:#333551;}
</style>
<path class="st0" d="M60,12.3c-26.3,0-47.7,21.4-47.7,47.7s21.4,47.7,47.7,47.7s47.7-21.4,47.7-47.7S86.3,12.3,60,12.3z M60,93.5
	c-18.5,0-33.5-15-33.5-33.5s15-33.5,33.5-33.5s33.5,15,33.5,33.5S78.5,93.5,60,93.5z"/>
<title>main_ic_4</title>
<path class="st1" d="M60,110.1C32.3,110.1,9.9,87.7,9.9,60S32.3,9.9,60,9.9s50.1,22.4,50.1,50.1l0,0C110,87.6,87.6,110,60,110.1z
	 M60,14.7C35,14.7,14.7,35,14.7,60S35,105.3,60,105.3S105.3,85,105.3,60S85,14.7,60,14.7L60,14.7z"/>
<path class="st1" d="M60,95.8c-19.8,0-35.8-16-35.8-35.8s16-35.8,35.8-35.8s35.8,16,35.8,35.8l0,0C95.7,79.7,79.7,95.7,60,95.8z
	 M60,29c-17.1,0-31,13.9-31,31s13.9,31,31,31s31-13.9,31-31S77.1,29,60,29L60,29z"/>
<path class="st1" d="M61.8,71.5v5H59v-4.9c-2.6-0.1-5.1-1.1-6.9-2.9l1.8-2c1.5,1.5,3.6,2.4,5.8,2.4c2.7,0,4.9-1.3,4.9-4
	c0-2.2-1-3.2-4.9-4.3c-4.4-1.3-6.7-3-6.7-6.5c0-3.2,2.5-5.4,6-5.8v-4.9h2.7v5c2,0.2,3.9,1.1,5.4,2.5l-1.8,2c-1.3-1.3-3.2-2-5.1-2
	c-2.3,0-4,1-4,3.2c0,1.9,0.9,2.8,4.9,4c3.6,1.1,6.7,2.5,6.7,6.8C67.8,68.4,65.6,70.9,61.8,71.5z"/>
<path class="st1" d="M62.5,77.3h-4.3v-4.9c-2.5-0.2-4.9-1.3-6.7-3.1L51,68.8l2.9-3.2l0.6,0.6c1.4,1.4,3.3,2.2,5.2,2.1
	c1,0,4.1-0.2,4.1-3.2c0-1.5-0.4-2.4-4.3-3.6s-7.2-2.8-7.2-7.3c0-3.3,2.4-5.8,6-6.5v-5h4.3v5.1c1.9,0.3,3.7,1.3,5.1,2.6l0.6,0.5
	L65.5,54l-0.6-0.5c-1.2-1.2-2.8-1.8-4.5-1.8c-1,0-3.3,0.2-3.3,2.4c0,1.2,0.2,2,4.4,3.3c3.5,1.1,7.2,2.7,7.2,7.6
	c0,3.6-2.3,6.3-6.1,7.2L62.5,77.3z M59.8,75.7H61v-4.8l0.7-0.1c3.3-0.6,5.4-2.8,5.4-5.8c0-3.5-2.2-4.9-6.1-6.1
	c-3.7-1.2-5.5-2.2-5.5-4.8c0-2.4,1.9-4,4.8-4c1.8,0,3.6,0.6,5,1.7L66,51c-1.2-1-2.7-1.7-4.3-1.8H61v-4.9h-1.2v4.8l-0.7,0.1
	c-3.2,0.4-5.3,2.3-5.3,5s1.7,4.4,6.1,5.8c3.6,1.1,5.4,2.2,5.4,5.1s-2.2,4.8-5.7,4.8c-2.1,0.1-4.1-0.7-5.7-2l-0.8,0.8
	c1.6,1.4,3.7,2.1,5.8,2.2h0.8L59.8,75.7z"/>
</svg>
