<?xml version="1.0" encoding="utf-8"?>
<!-- Generator: Adobe Illustrator 21.0.2, SVG Export Plug-In . SVG Version: 6.00 Build 0)  -->
<svg version="1.1" id="Слой_1" xmlns="http://www.w3.org/2000/svg"  x="0px" y="0px"
	 viewBox="0 0 120 120" style="enable-background:new 0 0 120 120;" xml:space="preserve">
<style type="text/css">
	.st0{fill:#FF3B5C;}
	.st1{fill:#333551;}
</style>
<title>main_ic_8</title>
<path class="st0" d="M116.3,68.8L82,102.7c-1.2,1.2-7.8-2.5-9-3.7c0,0,0.7-7.1,3.3-1.7l25.8-27.7l-45.4-47c-0.4-0.4-0.7-0.9-0.8-1.4
	l-12.5-2.3c-0.3-1,0-2.2,0.8-2.9l1.3-1.8c0.8-0.8,1.9-1.1,2.9-0.8L70.2,19c0.5,0.1,1,0.4,1.4,0.8l44.7,44.7
	C117.5,65.7,117.5,67.6,116.3,68.8z"/>
<path class="st1" d="M117.9,62.8L73.2,18.2c-0.7-0.7-1.5-1.2-2.4-1.4l-21.7-5.6c-1.8-0.5-3.8,0.1-5.1,1.4l-4.5,4.5
	c1.5,0.7,2.9,1.4,4.4,2.1l3.4-3.4c0.1-0.1,0.3-0.2,0.5-0.2l0.2,0l21.7,5.6c0.1,0,0.3,0.1,0.3,0.2l44.7,44.7c0.3,0.3,0.3,0.8,0,1.1
	l-34,34c0,0,0,0,0,0c-0.3,0.3-0.8,0.3-1.1,0l-3.8-3.8c-0.5,1.6-1.1,3.2-1.8,4.7l2.4,2.4c1,1,2.4,1.6,3.8,1.6c1.4,0,2.7-0.6,3.7-1.6
	l34-34C120,68.3,120,64.9,117.9,62.8z"/>
<path class="st1" d="M64.9,109c-1.4,0-2.8-0.6-3.8-1.6L16.5,62.8c-0.7-0.7-1.2-1.5-1.4-2.4L9.5,38.6c-0.5-1.8,0.1-3.8,1.4-5.1
	l17.9-17.9c1.3-1.3,3.3-1.9,5.1-1.4l21.7,5.6c0.9,0.2,1.8,0.7,2.5,1.4l44.7,44.7c2.1,2.1,2.1,5.5,0,7.6l-34,34
	C67.7,108.4,66.3,109,64.9,109z M32.5,18.6c-0.2,0-0.4,0.1-0.5,0.2L14.1,36.8c-0.2,0.2-0.3,0.5-0.2,0.7l5.6,21.7
	c0,0.1,0.1,0.3,0.2,0.3l44.7,44.7c0.3,0.3,0.8,0.3,1.1,0c0,0,0,0,0,0l34-34c0.3-0.3,0.3-0.8,0-1.1L54.8,24.5
	c-0.1-0.1-0.2-0.2-0.3-0.2l-21.7-5.6L32.5,18.6z"/>
<path class="st1" d="M39.5,54.2c-5.5,0-9.9-4.5-9.9-9.9s4.5-9.9,9.9-9.9c2.6,0,5.1,1,7,2.9l0,0c3.9,3.9,3.9,10.2,0.1,14.1
	C44.7,53.1,42.1,54.2,39.5,54.2z M39.5,38.9c-3,0-5.4,2.4-5.3,5.4c0,1.4,0.6,2.8,1.5,3.8c2.1,2,5.5,2,7.6,0c2.1-2.1,2.1-5.5,0-7.6
	c0,0,0,0,0,0l0,0C42.3,39.4,40.9,38.9,39.5,38.9L39.5,38.9z"/>
<path class="st1" d="M16.9,77.4c-5.8,0.1-11.1-2.9-14-7.9c-5-9.3-1.8-20.8,7.2-26.2c17.8-10.9,36.9,1.5,37.6,2.1l-2.5,3.8
	c-0.2-0.1-17.4-11.4-32.7-2c-7,4.1-9.4,13-5.7,20.1c3.7,6.5,11.5,7.4,20.8,2.4l2.2,4C25.9,76,21.4,77.3,16.9,77.4z"/>
<path class="st1" d="M63.5,81.9c-1.2,0-2.1-0.9-2.3-2l-2.7-24.5c-0.2-1.3,0.7-2.4,1.9-2.6c1.3-0.2,2.4,0.7,2.6,1.9
	c0,0.1,0,0.1,0,0.2l2.7,24.5c0.1,1.2-0.8,2.4-2,2.5L63.5,81.9z"/>
<path class="st1" d="M52.6,74.9c-3.3,0-5.9-2.7-5.9-5.9s2.7-5.9,5.9-5.9s5.9,2.7,5.9,5.9c0,1.6-0.6,3.1-1.7,4.2
	C55.7,74.3,54.1,74.9,52.6,74.9z M52.6,67.6c-0.8,0-1.3,0.6-1.3,1.4c0,0.8,0.6,1.3,1.4,1.3c0.8,0,1.3-0.6,1.3-1.4
	c0-0.3-0.2-0.7-0.4-0.9C53.3,67.7,52.9,67.6,52.6,67.6z"/>
<path class="st1" d="M71.2,71.9c-3.3,0-5.9-2.7-5.9-5.9c0-3.3,2.7-5.9,5.9-5.9s5.9,2.7,5.9,5.9c0,1.6-0.6,3.1-1.7,4.2
	C74.3,71.3,72.8,71.9,71.2,71.9z M71.2,64.6c-0.8,0-1.3,0.6-1.3,1.4c0,0.8,0.6,1.3,1.4,1.3c0.8,0,1.3-0.6,1.3-1.4
	c0-0.3-0.2-0.7-0.4-0.9C72,64.8,71.6,64.6,71.2,64.6L71.2,64.6z"/>
</svg>
