<?xml version="1.0" encoding="utf-8"?>
<!-- Generator: Adobe Illustrator 21.0.2, SVG Export Plug-In . SVG Version: 6.00 Build 0)  -->
<svg version="1.1" id="Слой_1" xmlns="http://www.w3.org/2000/svg" xmlns:xlink="http://www.w3.org/1999/xlink" x="0px" y="0px"
	 viewBox="0 0 120 120" style="enable-background:new 0 0 120 120;" xml:space="preserve">
<style type="text/css">
	.st0{fill:none;}
	.st1{fill:#333551;}
	.st2{fill:#EF405F;}
</style>
<title>main_ic_1</title>
<path class="st0" d="M47.1,76.1L55,103c0.1,0.3-0.1,0.7-0.4,0.8c-0.1,0-0.1,0-0.2,0H33.5c-0.3,0-0.5-0.2-0.6-0.4l-9.1-31"/>
<path class="st1" d="M54.4,106.1H33.5c-1.3,0-2.5-0.9-2.9-2.1l-9.1-31l4.6-1.3l8.7,29.7h17.2l-7.2-24.6l4.6-1.3l7.9,26.8
	c0.5,1.6-0.4,3.3-2,3.7C55,106.1,54.7,106.1,54.4,106.1L54.4,106.1z"/>
<path class="st0" d="M78.6,21.4L35.6,35.8H12.9c-0.3,0-0.6,0.3-0.6,0.6v35.3c0,0.3,0.3,0.6,0.6,0.6c0,0,0,0,0,0h22.6l43.1,14.3"/>
<path class="st1" d="M77.9,88.9L35.2,74.7H12.9c-1.7,0-3-1.3-3-3V36.4c0-1.7,1.3-3,3-3h22.3l42.7-14.2l1.5,4.5L36,38.2H14.7V70
	L36,69.9l43.4,14.5L77.9,88.9z"/>
<path class="st1" d="M60,50c-1.3,0-2.4-1.1-2.4-2.4V29.2c0-1.3,1.1-2.4,2.4-2.4c1.3,0,2.4,1.1,2.4,2.4v18.5C62.4,49,61.3,50,60,50z"
	/>
<path class="st1" d="M50.5,45.3c-1.3,0-2.4-1.1-2.4-2.4V32.3c0-1.3,1.1-2.4,2.4-2.4c1.3,0,2.4,1.1,2.4,2.4v10.5
	C52.8,44.2,51.8,45.3,50.5,45.3z"/>
<path class="st2" d="M80.6,16.3h13.8c1.1,0,2,0.9,2,2v71.6c0,1.1-0.9,2-2,2H80.6c-1.1,0-2-0.9-2-2V18.3
	C78.6,17.1,79.5,16.3,80.6,16.3z"/>
<path class="st1" d="M93.2,94.2H81.8c-3.1,0-5.6-2.5-5.6-5.6V19.4c0-3.1,2.5-5.6,5.6-5.6h11.4c3.1,0,5.6,2.5,5.6,5.6v69.2
	C98.8,91.7,96.3,94.2,93.2,94.2z M81.8,18.6c-0.4,0-0.8,0.4-0.8,0.8v69.2c0,0.4,0.4,0.8,0.8,0.8h11.4c0.4,0,0.8-0.4,0.8-0.8V19.4
	c0-0.4-0.4-0.8-0.8-0.8L81.8,18.6z"/>
<path class="st2" d="M107.2,61.5l-10.8,3V43.7l10.8,3c0.3,0.1,0.4,0.3,0.4,0.6v13.6C107.7,61.1,107.5,61.4,107.2,61.5z"/>
<path class="st1" d="M94,67.5v-27l13.9,3.8c1.3,0.4,2.2,1.5,2.2,2.9v13.7c0,1.4-0.9,2.5-2.2,2.9l0,0L94,67.5z M98.8,46.8v14.5
	l6.5-1.8v-11L98.8,46.8z"/>
<rect x="33.2" y="35.8" class="st1" width="4.8" height="36.5"/>
</svg>
