<?xml version="1.0" encoding="utf-8"?>
<!-- Generator: Adobe Illustrator 21.0.2, SVG Export Plug-In . SVG Version: 6.00 Build 0)  -->
<svg version="1.1" id="Слой_1" xmlns="http://www.w3.org/2000/svg"  x="0px" y="0px"
	 viewBox="0 0 120 120" style="enable-background:new 0 0 120 120;" xml:space="preserve">
<style type="text/css">
	.st0{fill:#EF405F;}
	.st1{fill:#333551;}
</style>
<polygon class="st0" points="62.3,83.1 70.9,94.9 76.4,90.6 76.4,76.8 "/>
<title>main_ic_5</title>
<path class="st0" d="M73.8,41.6c-3.4-8.7-19.5,11.5-24.6,7.7C40,42.3,62,28.8,60.6,27.3c-6.6-7.1-17,2.6-12.2,10
	c-2.1,1.8-2.9,4.7-2.2,7.4c-1.8-1.3-3.7-2.5-5.6-3.8c-5.5-3.5-11,1-11.7,6.3c-5.1,2.3-7.6,10.5-1.3,14.4c0,0,5.1-6.3,9.9-3.3
	c1.4,0.8,1.2,5.5,3.1,7.6c3.8,4.1,9.8,6.5,9.8,6.5c0.9,1.6-0.8,5,0.2,6.7c11-5.1,6,7.1,11,7.6c-0.6,0.3,6.6-3.4,9.8-7.6
	c1.4-2.3,1.5-5.1,0.2-7.4c0.1-0.5,0.1-0.9,0.1-1.4c0-0.5-0.1-1-0.1-1.4c3.1-0.6,5.9-2.8,6.6-5.8C79.9,55.8,76.5,48.2,73.8,41.6z"/>
<path class="st0" d="M73.3,91.8c0.1,0.1-14.8,12.8-14.7,12.9l1.5,1.4l0.3,0.2c3.1,2.2,7.4,1.5,9.7-1.6c0.9-1.2,1.3-2.7,1.3-4.2
	l-0.6-3l3.3,0.3c3.8,0.1,7-2.9,7.1-6.7c0-0.1,0-0.2,0-0.4l-0.4-3.1l3.1,0.4c3.8,0.1,7-2.9,7.1-6.7c0-0.1,0-0.2,0-0.4l-0.4-3.1
	l3.1,0.4c3.8,0.1,7-2.9,7.1-6.7c0-1.5-0.4-2.9-1.2-4.1c-0.2-0.3-0.4-0.6-0.7-0.8L69.7,37.1"/>
<path class="st1" d="M64.6,110c-1.9,0-3.8-0.6-5.4-1.7l-0.4-0.3c-0.2-0.2-0.4-0.3-0.6-0.5l3.4-3.4l0.1,0.1l0.1,0.1l0.1,0.1
	c1.8,1.3,4.3,1.1,5.9-0.4c0.8-0.8,1.3-2,1.3-3.2l-1.2-5.8l6.5,0.5c2.5,0,4.5-2,4.5-4.5c0,0,0,0,0,0l-0.8-6.1l6.1,0.8l0,0
	c2.5,0,4.5-2,4.5-4.5c0,0,0,0,0-0.1l-0.8-6.1l6.1,0.8c2.5,0,4.5-2,4.5-4.5c0-0.9-0.3-1.8-0.8-2.6c-0.1-0.2-0.2-0.3-0.4-0.5
	L68.1,38.8l3.4-3.4l29.3,29.3c0.4,0.4,0.7,0.8,1,1.2c2.9,4.3,1.7,10-2.5,12.9c-1.6,1.1-3.5,1.6-5.5,1.6h-0.3v0.3
	c0.1,5.1-3.9,9.4-9.1,9.5c-0.1,0-0.3,0-0.4,0h-0.3v0.3c0.1,5.1-3.9,9.4-9,9.6c-0.2,0-0.3,0-0.5,0h-0.3v0.3c0.1,5.1-3.9,9.4-9.1,9.6
	C64.7,110,64.7,110,64.6,110L64.6,110z"/>
<path class="st0" d="M60,27.4l-7-7l0,0c-10.8-10.8-28.4-10.8-39.3,0s-10.8,28.4,0,39.3l0,0l7,7"/>
<path class="st1" d="M19,68.3l-7-7C0.2,49.5,0.3,30.4,12,18.6s30.9-11.7,42.6,0l1.6,1.6l0,0l5.3,5.3L58.3,29l-7.5-7.5
	c-9.9-9.9-26-9.9-35.9,0.1s-9.9,26,0.1,35.9l0,0l7.4,7.4L19,68.3z"/>
<rect x="76.8" y="50" transform="matrix(0.7071 -0.7071 0.7071 0.7071 -23.6303 75.4208)" class="st1" width="4.8" height="32.4"/>
<rect x="67" y="59.8" transform="matrix(0.7071 -0.7071 0.7071 0.7071 -33.4357 71.3613)" class="st1" width="4.8" height="32.4"/>
<rect x="67.7" y="95.3" transform="matrix(0.707 -0.7072 0.7072 0.707 -47.8383 77.8617)" class="st1" width="4.8" height="2.7"/>
<path class="st1" d="M26,80.8c-2.3,0-4.4-0.9-6-2.5l-1.2-1.2c-3.3-3.3-3.3-8.7,0-12c0,0,0,0,0,0l8.4-8.4c3.3-3.3,8.7-3.3,12,0
	c0,0,0,0,0,0l1.2,1.3c3.3,3.3,3.3,8.7,0,12L32,78.3C30.4,79.9,28.3,80.8,26,80.8z M30.6,60.1l-8.4,8.4c-1.4,1.4-1.4,3.8,0,5.2
	l1.2,1.2c1.4,1.4,3.8,1.4,5.2,0l8.4-8.4c1.4-1.4,1.4-3.8,0-5.2l-1.2-1.2C34.4,58.7,32,58.7,30.6,60.1L30.6,60.1z"/>
<path class="st1" d="M99.2,70L69.8,40.5L59.4,50.9c-3.7,3.6-9.6,3.6-13.2-0.1c-3.6-3.6-3.6-9.4,0-13.1l19.1-19.1
	c11.8-11.7,30.9-11.7,42.6,0.1c11.7,11.7,11.7,30.7,0,42.5l-1.6,1.6l0,0L99.2,70z M69.8,33.8l29.4,29.4l5.9-5.9
	c9.4-10.4,8.5-26.4-1.9-35.8c-9.9-8.9-24.9-8.7-34.5,0.5L49.6,41.1c-1.8,1.8-1.8,4.6,0,6.4c1.8,1.7,4.6,1.7,6.4,0L69.8,33.8z"/>
<path class="st1" d="M35.8,90.6c-2.2,0-4.4-0.9-6-2.5l-1.2-1.2c-3.3-3.3-3.3-8.7,0-12c0,0,0,0,0,0l8.4-8.4c3.3-3.3,8.7-3.3,12,0
	l1.2,1.2c3.3,3.3,3.3,8.7,0,12l-8.4,8.4C40.2,89.7,38,90.6,35.8,90.6z M40.4,69.9L32,78.3c-1.4,1.4-1.4,3.8,0,5.2l1.2,1.2
	c1.5,1.4,3.8,1.4,5.2,0l8.4-8.4c1.4-1.4,1.4-3.8,0-5.2l-1.2-1.2C44.1,68.5,41.8,68.5,40.4,69.9L40.4,69.9z"/>
<path class="st1" d="M45.6,100.4c-2.3,0-4.4-0.9-6-2.5l-1.2-1.2c-3.3-3.3-3.3-8.7,0-12c0,0,0,0,0,0l8.4-8.4c3.3-3.3,8.7-3.3,12,0
	c0,0,0,0,0,0l1.2,1.2c3.3,3.3,3.3,8.7,0,12l-8.4,8.4C50,99.5,47.9,100.4,45.6,100.4z M50.2,79.7l-8.4,8.4c-1.4,1.4-1.4,3.8,0,5.2
	l1.2,1.2c1.4,1.4,3.8,1.4,5.2,0l8.4-8.4c1.4-1.4,1.4-3.8,0-5.2l-1.2-1.2C53.9,78.3,51.6,78.3,50.2,79.7L50.2,79.7z"/>
<path class="st1" d="M55.4,110.2c-2.2,0-4.4-0.9-6-2.5l-1.2-1.2c-3.3-3.3-3.3-8.7,0-12c0,0,0,0,0,0l8.4-8.4c3.3-3.3,8.7-3.3,12,0
	l1.2,1.2c3.3,3.3,3.3,8.7,0,12l-8.4,8.4C59.8,109.3,57.7,110.2,55.4,110.2z M60,89.6l-8.4,8.4c-1.4,1.4-1.4,3.8,0,5.2l1.2,1.2
	c1.5,1.4,3.8,1.4,5.2,0l8.4-8.4c1.4-1.4,1.4-3.8,0-5.2l-1.2-1.2C63.7,88.2,61.4,88.2,60,89.6L60,89.6z"/>
<ellipse class="st0" cx="72.8" cy="70.6" rx="1.9" ry="4.3"/>
</svg>
