<svg id="Слой_1" data-name="Слой 1" xmlns="http://www.w3.org/2000/svg" viewBox="0 0 45 45"><defs><style>.cls-1{fill:#1da1f3;}.cls-2{fill:#fff;}</style></defs><title>tw</title><rect class="cls-1" width="45" height="45" rx="5" ry="5"/><path class="cls-2" d="M17.4,28a5.23,5.23,0,0,1-4.19-3.47l1.42.08.09-.21a4,4,0,0,0-.54-.37,4.7,4.7,0,0,1-2.57-4,2.72,2.72,0,0,1,.06-.33l1.5.49.17-.17a5,5,0,0,1-1.14-6.24c.28.26.48.44.66.63a13.85,13.85,0,0,0,6.77,4,14.41,14.41,0,0,0,1.79.28c.54.07.74-.17.7-.72a4.81,4.81,0,0,1,7.36-4.39,2.29,2.29,0,0,0,2.77.2,11.75,11.75,0,0,1,1.25-.54c-.13,1-1,1.59-1.44,2.37l.1.13L34,15.29l.12.12c-.57.59-1.1,1.24-1.72,1.77a1.65,1.65,0,0,0-.62,1.29C31.43,24.19,29,28.58,23.56,31a13.1,13.1,0,0,1-9.46.53,28.61,28.61,0,0,1-2.71-1.1,1.79,1.79,0,0,1-.56-.43A9.27,9.27,0,0,0,17.4,28Z"/></svg>